<?xml version="1.0" standalone="no"?>
<!DOCTYPE svg PUBLIC "-//W3C//DTD SVG 20010904//EN"
 "http://www.w3.org/TR/2001/REC-SVG-20010904/DTD/svg10.dtd">
<svg version="1.0" xmlns="http://www.w3.org/2000/svg"
 width="648.000000pt" height="648.000000pt" viewBox="0 0 648.000000 648.000000"
 preserveAspectRatio="xMidYMid meet">
<metadata>
Created by potrace 1.11, written by Peter Selinger 2001-2013
</metadata>
<g transform="translate(0.000000,648.000000) scale(0.100000,-0.100000)"
fill="#000000" stroke="none">
<path d="M2674 6468 c-3 -4 0 -8 6 -8 6 0 8 -5 4 -12 -10 -16 -11 -68 -1 -68
5 0 5 -6 0 -12 -12 -21 -9 -52 7 -66 8 -8 10 -11 3 -8 -15 8 -27 -11 -12 -20
8 -4 7 -9 -2 -15 -11 -7 -11 -9 -1 -9 8 0 10 -6 5 -17 -7 -16 -9 -69 -3 -83 6
-16 5 -50 -1 -50 -5 0 -6 -6 -3 -14 6 -16 59 -17 83 -2 9 6 12 5 8 -1 -4 -6 6
-10 24 -11 20 0 27 3 22 11 -4 7 1 6 11 -2 15 -13 19 -13 27 0 5 8 9 10 9 4 0
-5 22 -10 50 -11 51 -1 58 8 35 46 -8 13 -7 13 8 1 9 -7 15 -16 13 -20 -3 -4
0 -13 5 -21 8 -13 10 -13 19 0 7 11 10 11 10 2 0 -15 31 -12 42 3 5 6 8 5 8
-2 0 -7 8 -13 17 -13 9 0 13 3 10 7 -4 3 -2 12 4 20 9 10 8 13 -2 13 -9 0 -10
3 -4 8 12 9 14 112 2 112 -5 0 -4 7 3 15 9 11 9 15 1 15 -8 0 -9 5 -2 17 7 13
5 23 -7 36 -12 13 -12 18 -3 15 9 -2 14 7 15 25 1 15 -3 27 -9 27 -6 0 -7 3 0
8 6 4 10 26 10 49 l1 42 -204 -1 c-112 -1 -205 -6 -208 -10z m256 -2 c0 -2 -7
-7 -16 -10 -8 -3 -12 -2 -9 4 6 10 25 14 25 6z m35 -5 c3 -5 2 -12 -3 -15 -5
-3 -9 1 -9 9 0 17 3 19 12 6z m-199 -66 c-1 -8 -5 -17 -8 -21 -5 -4 -4 16 1
34 3 9 9 -1 7 -13z m77 -5 c10 -12 9 -12 -4 -2 -9 6 -18 9 -21 6 -3 -3 -9 -1
-12 4 -9 15 22 8 37 -8z m178 -3 c-10 -9 -11 -8 -5 6 3 10 9 15 12 12 3 -3 0
-11 -7 -18z m9 -27 c0 -5 -5 -10 -11 -10 -5 0 -7 5 -4 10 3 6 8 10 11 10 2 0
4 -4 4 -10z m-276 -38 c3 -5 -1 -9 -9 -9 -8 0 -12 4 -9 9 3 4 7 8 9 8 2 0 6
-4 9 -8z m207 -9 c13 -16 12 -17 -3 -4 -10 7 -18 15 -18 17 0 8 8 3 21 -13z
m85 -9 c1 -9 0 -13 -4 -10 -3 4 -7 14 -8 22 -1 9 0 13 4 10 3 -4 7 -14 8 -22z
m-235 -27 c-6 -8 -8 -16 -5 -19 3 -3 1 -9 -4 -12 -6 -3 -9 0 -8 6 2 16 15 38
23 38 3 0 0 -6 -6 -13z m155 1 c3 -4 -1 -5 -10 -4 -8 1 -18 5 -22 8 -3 4 1 5
10 4 8 -1 18 -5 22 -8z m85 -15 c13 -16 12 -17 -3 -4 -10 7 -18 15 -18 17 0 8
8 3 21 -13z m-165 -18 c-1 -13 -4 -27 -7 -30 -5 -4 -4 41 0 53 4 10 8 -2 7
-23z m80 -20 c-1 -8 -8 -21 -16 -28 -10 -10 -11 -9 -4 3 5 8 9 18 10 23 3 14
4 17 8 17 2 0 3 -7 2 -15z m-140 -27 c3 -4 -1 -5 -10 -4 -8 1 -18 5 -22 8 -3
4 1 5 10 4 8 -1 18 -5 22 -8z m238 -4 c3 -8 2 -12 -4 -9 -6 3 -10 10 -10 16 0
14 7 11 14 -7z m-337 -29 c0 -8 -4 -12 -9 -9 -5 3 -6 10 -3 15 9 13 12 11 12
-6z m81 -10 c-3 -3 -9 2 -12 12 -6 14 -5 15 5 6 7 -7 10 -15 7 -18z m256 -1
c3 -8 2 -12 -4 -9 -6 3 -10 10 -10 16 0 14 7 11 14 -7z m-240 -40 c3 -8 2 -12
-4 -9 -6 3 -10 10 -10 16 0 14 7 11 14 -7z"/>
<path d="M3202 6198 l3 -163 158 0 c98 0 157 4 158 10 3 33 4 292 1 303 -3 9
-45 12 -163 12 l-159 0 2 -162z"/>
<path d="M4330 6085 c-128 -19 -180 -31 -300 -71 l-110 -36 -1 -42 c0 -22 -2
-59 -4 -81 -3 -22 -9 -103 -15 -180 -6 -77 -13 -156 -15 -175 -2 -19 -7 -66
-10 -105 -4 -38 -8 -81 -10 -95 -4 -27 -12 -99 -20 -170 -11 -94 -35 -271 -49
-355 -3 -16 -12 -73 -21 -125 -19 -122 -23 -140 -40 -230 -8 -41 -16 -86 -19
-100 -28 -171 -138 -621 -215 -885 -32 -110 -69 -243 -81 -295 -57 -233 -232
-765 -365 -1105 -158 -404 -393 -911 -573 -1240 -134 -244 -271 -480 -390
-674 -28 -44 -49 -81 -47 -81 14 0 315 394 466 610 514 734 1026 1709 1325
2521 l28 77 135 -137 c373 -374 843 -654 1219 -727 300 -58 547 93 612 375 38
164 6 396 -83 609 l-22 53 45 47 c55 58 132 173 177 263 52 105 68 179 68 304
0 109 -1 111 -42 196 -53 109 -134 187 -255 247 -180 88 -331 118 -573 115
-177 -2 -408 -49 -549 -111 -27 -12 -51 -22 -53 -22 -3 0 28 25 68 56 100 76
291 272 362 372 97 135 186 327 212 457 4 17 8 71 10 120 11 249 -112 465
-321 561 -135 63 -357 87 -544 59z"/>
<path d="M2432 5613 l3 -348 348 -1 347 -1 0 348 0 349 -350 0 -350 0 2 -347z"/>
<path d="M3188 5925 c-2 -20 0 -35 7 -35 6 0 7 -3 0 -8 -13 -9 -15 -52 -2 -52
5 0 4 -7 -3 -15 -10 -12 -10 -15 1 -15 11 0 11 -2 -1 -10 -12 -8 -13 -11 -1
-19 10 -6 10 -10 1 -16 -9 -6 -9 -10 1 -16 10 -6 11 -9 2 -9 -7 0 -13 -5 -13
-11 0 -6 6 -9 13 -6 8 3 14 -1 14 -9 0 -7 -4 -11 -8 -8 -4 2 -10 0 -14 -6 -3
-5 0 -10 7 -10 10 0 9 -3 -2 -11 -12 -8 -12 -12 -2 -16 10 -4 10 -8 1 -19 -9
-11 -8 -14 2 -14 11 0 11 -2 -1 -10 -8 -5 -11 -12 -7 -16 3 -4 13 -1 21 5 11
9 16 9 22 0 4 -7 3 -9 -3 -6 -6 4 -19 -3 -29 -15 -19 -21 -19 -21 1 -15 20 7
20 7 1 -8 -11 -8 -17 -18 -13 -21 4 -4 15 -1 24 7 10 7 7 0 -7 -15 -16 -19
-19 -27 -9 -24 9 4 16 1 16 -7 0 -7 -6 -11 -14 -8 -19 7 -16 -7 5 -24 11 -9
12 -12 3 -11 -12 3 -17 -24 -12 -71 1 -12 41 -21 41 -9 0 5 5 6 10 3 15 -10
100 -11 100 -2 0 5 5 5 11 1 7 -4 94 -7 195 -8 157 -1 184 1 185 14 0 10 2 11
6 3 2 -7 12 -13 21 -13 14 0 17 11 17 69 0 43 -4 67 -10 64 -5 -3 -4 0 3 8 15
16 16 33 0 23 -7 -5 -8 -3 -3 6 11 19 12 360 1 353 -5 -4 -5 0 -1 8 15 23 13
49 -4 50 -9 1 -27 2 -41 2 -14 1 -35 -1 -48 -5 -13 -5 -21 -5 -19 0 3 4 -51 7
-119 7 -76 0 -124 -4 -124 -10 0 -5 -5 -3 -10 5 -7 11 -10 11 -10 2 0 -8 -5
-10 -12 -6 -19 12 -167 11 -160 -1 3 -5 -1 -4 -10 3 -14 11 -16 8 -20 -23z
m194 -6 c2 -2 1 -3 -1 -2 -2 2 -9 -2 -16 -7 -8 -7 -12 -5 -12 4 0 12 22 16 29
5z m145 -6 c0 -8 -4 -10 -12 -3 -7 5 -16 6 -20 2 -5 -4 -5 -2 -2 4 9 15 34 13
34 -3z m108 7 c-3 -5 -12 -10 -18 -10 -7 0 -6 4 3 10 19 12 23 12 15 0z m-229
-65 c-1 -8 -5 -17 -8 -21 -5 -4 -4 16 1 34 3 9 9 -1 7 -13z m77 -10 c-7 -21
-12 -19 -10 4 0 11 5 18 9 15 4 -3 5 -11 1 -19z m-27 -7 c4 -7 3 -8 -5 -4 -6
4 -20 2 -29 -6 -15 -12 -16 -11 -3 5 16 20 27 22 37 5z m151 -13 c0 -8 -4 -12
-9 -9 -5 3 -6 10 -3 15 9 13 12 11 12 -6z m67 -23 c3 -5 -1 -9 -9 -9 -8 0 -12
4 -9 9 3 4 7 8 9 8 2 0 6 -4 9 -8z m-299 -62 c-3 -5 -12 -10 -18 -10 -7 0 -6
4 3 10 19 12 23 12 15 0z m65 -16 c0 -8 -19 -13 -24 -6 -3 5 1 9 9 9 8 0 15
-2 15 -3z m246 -6 c3 -4 -1 -5 -10 -4 -8 1 -18 5 -22 8 -3 4 1 5 10 4 8 -1 18
-5 22 -8z m-316 -12 c0 -2 -7 -7 -16 -10 -8 -3 -12 -2 -9 4 6 10 25 14 25 6z
m237 -11 c0 -8 -4 -12 -9 -9 -5 3 -6 10 -3 15 9 13 12 11 12 -6z m-182 -4 c3
-5 2 -12 -3 -15 -5 -3 -9 1 -9 9 0 17 3 19 12 6z m-100 -10 c3 -5 2 -12 -3
-15 -5 -3 -9 1 -9 9 0 17 3 19 12 6z m150 0 c-9 -8 -36 -10 -30 -2 2 4 11 8
20 8 8 0 13 -3 10 -6z m290 -20 c3 -5 2 -12 -3 -15 -5 -3 -9 1 -9 9 0 17 3 19
12 6z m-424 -34 c-10 -9 -11 -8 -5 6 3 10 9 15 12 12 3 -3 0 -11 -7 -18z m144
-15 c-3 -3 -11 0 -18 7 -9 10 -8 11 6 5 10 -3 15 -9 12 -12z m-221 -18 c3 -8
2 -12 -4 -9 -6 3 -10 10 -10 16 0 14 7 11 14 -7z m97 -1 c12 -16 12 -17 -2 -6
-9 7 -20 9 -24 5 -5 -4 -5 -1 -1 6 9 16 11 15 27 -5z m214 -13 c3 -6 -1 -7 -9
-4 -18 7 -21 14 -7 14 6 0 13 -4 16 -10z m155 0 c0 -5 -2 -10 -4 -10 -3 0 -8
5 -11 10 -3 6 -1 10 4 10 6 0 11 -4 11 -10z m-483 -45 c0 -8 -4 -12 -9 -9 -5
3 -6 10 -3 15 9 13 12 11 12 -6z m79 -11 c1 -9 0 -13 -4 -10 -3 4 -7 14 -8 22
-1 9 0 13 4 10 3 -4 7 -14 8 -22z m161 19 c-4 -3 -1 -13 6 -22 11 -14 10 -14
-5 -2 -16 12 -16 31 -1 31 4 0 3 -3 0 -7z m113 -19 c0 -8 -19 -13 -24 -6 -3 5
1 9 9 9 8 0 15 -2 15 -3z m30 -4 c0 -5 -5 -10 -11 -10 -5 0 -7 5 -4 10 3 6 8
10 11 10 2 0 4 -4 4 -10z m89 -4 c9 -11 9 -16 -1 -22 -7 -4 -10 -4 -6 1 4 4 3
14 -3 22 -6 7 -9 13 -6 13 2 0 10 -6 16 -14z m-131 -41 c-3 -3 -9 2 -12 12 -6
14 -5 15 5 6 7 -7 10 -15 7 -18z m-182 -31 c1 -9 0 -13 -4 -10 -3 4 -7 14 -8
22 -1 9 0 13 4 10 3 -4 7 -14 8 -22z m-32 -2 c3 -5 -1 -9 -9 -9 -8 0 -12 4 -9
9 3 4 7 8 9 8 2 0 6 -4 9 -8z m193 -7 c0 -8 -4 -12 -9 -9 -5 3 -6 10 -3 15 9
13 12 11 12 -6z m-237 -9 c0 -2 -7 -7 -16 -10 -8 -3 -12 -2 -9 4 6 10 25 14
25 6z m357 -3 c-4 -3 -1 -13 6 -22 11 -14 10 -14 -5 -2 -16 12 -16 31 -1 31 4
0 3 -3 0 -7z m48 -3 c3 -6 -1 -7 -9 -4 -18 7 -21 14 -7 14 6 0 13 -4 16 -10z
m-334 -33 c-10 -9 -11 -8 -5 6 3 10 9 15 12 12 3 -3 0 -11 -7 -18z m143 7 c3
-8 2 -12 -4 -9 -6 3 -10 10 -10 16 0 14 7 11 14 -7z"/>
<path d="M2961 5193 c10 -11 10 -14 2 -9 -10 6 -13 -18 -13 -105 0 -93 3 -116
18 -133 15 -18 15 -19 0 -8 -15 12 -17 -4 -17 -237 l0 -251 27 -1 c15 -1 31 0
37 1 12 2 4 2 174 0 102 -1 136 1 142 12 6 9 9 9 9 1 0 -8 34 -13 110 -15 61
-2 110 -1 110 2 0 3 33 4 74 2 l74 -4 2 197 c0 157 -2 195 -12 189 -10 -5 -11
-4 0 7 9 9 12 63 12 194 0 105 -4 174 -9 166 -7 -11 -9 -11 -13 0 -4 11 -9 12
-26 2 -12 -7 -24 -9 -27 -4 -6 11 -24 9 -44 -3 -9 -6 -12 -5 -8 1 8 13 -36 11
-45 -2 -5 -6 -8 -5 -8 2 0 7 -11 12 -25 11 -18 -2 -24 -7 -20 -18 3 -9 -1 -7
-10 4 -11 14 -15 16 -15 5 0 -8 -3 -10 -8 -4 -4 6 -16 11 -27 11 -11 0 -23 -5
-27 -11 -5 -6 -8 -5 -8 4 0 11 -3 11 -17 0 -11 -10 -14 -10 -9 -1 4 7 1 12 -9
12 -9 0 -14 -4 -11 -9 5 -8 -22 -8 -31 -1 -9 7 -30 5 -42 -4 -11 -8 -13 -8 -8
0 8 14 -35 13 -45 -1 -5 -6 -8 -4 -8 5 0 13 -1 13 -10 0 -9 -13 -10 -13 -10 0
0 13 -1 13 -10 0 -5 -8 -10 -10 -10 -4 0 13 -38 12 -59 0 -9 -6 -12 -5 -8 1 3
5 0 10 -8 10 -8 0 -11 -5 -8 -11 5 -8 3 -8 -8 0 -16 12 -68 13 -86 1 -6 -4
-14 -3 -18 3 -3 5 -11 10 -17 10 -6 0 -5 -7 3 -17z m140 -46 c-10 -9 -11 -8
-5 6 3 10 9 15 12 12 3 -3 0 -11 -7 -18z m240 0 c-10 -9 -11 -8 -5 6 3 10 9
15 12 12 3 -3 0 -11 -7 -18z m49 17 c0 -8 -19 -13 -24 -6 -3 5 1 9 9 9 8 0 15
-2 15 -3z m271 -17 c-10 -9 -11 -8 -5 6 3 10 9 15 12 12 3 -3 0 -11 -7 -18z
m-615 -13 c1 -9 0 -13 -4 -10 -3 4 -7 14 -8 22 -1 9 0 13 4 10 3 -4 7 -14 8
-22z m218 -20 c3 -8 2 -12 -4 -9 -6 3 -10 10 -10 16 0 14 7 11 14 -7z m320 0
c3 -8 2 -12 -4 -9 -6 3 -10 10 -10 16 0 14 7 11 14 -7z m60 8 c3 -5 -1 -9 -9
-9 -8 0 -12 4 -9 9 3 4 7 8 9 8 2 0 6 -4 9 -8z m-634 -16 c0 -3 -4 -8 -10 -11
-5 -3 -10 -1 -10 4 0 6 5 11 10 11 6 0 10 -2 10 -4z m34 -4 c3 -5 -1 -9 -9 -9
-8 0 -12 4 -9 9 3 4 7 8 9 8 2 0 6 -4 9 -8z m407 -25 c-6 -8 -7 -18 -3 -22 4
-5 1 -5 -6 -1 -10 6 -10 11 -1 22 6 8 14 14 16 14 3 0 0 -6 -6 -13z m-201 -17
c0 -5 -5 -10 -11 -10 -5 0 -7 5 -4 10 3 6 8 10 11 10 2 0 4 -4 4 -10z m285 0
c-3 -5 -12 -10 -18 -10 -7 0 -6 4 3 10 19 12 23 12 15 0z m-493 -12 c-14 -14
-44 -20 -36 -7 3 5 9 7 14 4 5 -3 11 -1 15 5 3 5 9 10 13 10 3 0 1 -5 -6 -12z
m89 -11 c-6 -8 -7 -18 -3 -22 4 -5 1 -5 -6 -1 -10 6 -10 11 -1 22 6 8 14 14
16 14 3 0 0 -6 -6 -13z m395 -23 c1 -9 0 -13 -4 -10 -3 4 -7 14 -8 22 -1 9 0
13 4 10 3 -4 7 -14 8 -22z m-479 9 c-4 -3 -1 -13 6 -22 11 -14 10 -14 -5 -2
-16 12 -16 31 -1 31 4 0 3 -3 0 -7z m48 -3 c3 -6 -1 -7 -9 -4 -18 7 -21 14 -7
14 6 0 13 -4 16 -10z m592 -12 c2 -17 0 -19 -7 -8 -5 8 -6 18 -4 22 8 12 10
10 11 -14z m-482 -7 c-9 -8 -36 -10 -30 -2 2 4 11 8 20 8 8 0 13 -3 10 -6z
m259 1 c3 -5 -1 -9 -9 -9 -8 0 -12 4 -9 9 3 4 7 8 9 8 2 0 6 -4 9 -8z m-261
-37 c-3 -9 -8 -14 -10 -11 -3 3 -2 9 2 15 9 16 15 13 8 -4z m172 -5 c-3 -5
-12 -10 -18 -10 -7 0 -6 4 3 10 19 12 23 12 15 0z m312 -7 c0 -9 -4 -10 -14
-2 -7 6 -13 12 -13 14 0 1 6 2 13 2 8 0 14 -6 14 -14z m-677 -13 c0 -5 -2 -10
-4 -10 -3 0 -8 5 -11 10 -3 6 -1 10 4 10 6 0 11 -4 11 -10z m640 0 c0 -5 -2
-10 -4 -10 -3 0 -8 5 -11 10 -3 6 -1 10 4 10 6 0 11 -4 11 -10z m-590 -16 c0
-8 -19 -13 -24 -6 -3 5 1 9 9 9 8 0 15 -2 15 -3z m140 0 c0 -8 -19 -13 -24 -6
-3 5 1 9 9 9 8 0 15 -2 15 -3z m264 -10 c3 -8 2 -12 -4 -9 -6 3 -10 10 -10 16
0 14 7 11 14 -7z m226 6 c0 -5 -2 -10 -4 -10 -3 0 -8 5 -11 10 -3 6 -1 10 4
10 6 0 11 -4 11 -10z m-563 -17 c-4 -3 -1 -13 6 -22 11 -14 10 -14 -5 -2 -16
12 -16 31 -1 31 4 0 3 -3 0 -7z m-97 -7 c0 -2 -8 -10 -17 -17 -16 -13 -17 -12
-4 4 13 16 21 21 21 13z m313 -11 c-3 -9 -8 -14 -10 -11 -3 3 -2 9 2 15 9 16
15 13 8 -4z m320 0 c-3 -9 -8 -14 -10 -11 -3 3 -2 9 2 15 9 16 15 13 8 -4z
m-676 -12 c0 -9 -4 -10 -14 -2 -7 6 -13 12 -13 14 0 1 6 2 13 2 8 0 14 -6 14
-14z m314 -6 c-10 -9 -11 -8 -5 6 3 10 9 15 12 12 3 -3 0 -11 -7 -18z m129 17
c0 -8 -19 -13 -24 -6 -3 5 1 9 9 9 8 0 15 -2 15 -3z m111 -17 c-10 -9 -11 -8
-5 6 3 10 9 15 12 12 3 -3 0 -11 -7 -18z m83 14 c-7 -8 -54 -9 -49 -1 2 3 15
6 29 6 14 0 23 -2 20 -5z m-639 -41 c3 -5 1 -10 -4 -10 -6 0 -11 5 -11 10 0 6
2 10 4 10 3 0 8 -4 11 -10z m540 -8 c-3 -3 -11 0 -18 7 -9 10 -8 11 6 5 10 -3
15 -9 12 -12z m-475 -6 c0 -2 -7 -7 -16 -10 -8 -3 -12 -2 -9 4 6 10 25 14 25
6z m195 -14 c-3 -3 -11 0 -18 7 -9 10 -8 11 6 5 10 -3 15 -9 12 -12z m80 9 c3
-5 2 -12 -3 -15 -5 -3 -9 1 -9 9 0 17 3 19 12 6z m160 -9 c-3 -3 -11 0 -18 7
-9 10 -8 11 6 5 10 -3 15 -9 12 -12z m80 8 c3 -5 1 -10 -4 -10 -6 0 -11 5 -11
10 0 6 2 10 4 10 3 0 8 -4 11 -10z m-34 -17 c13 -16 12 -17 -3 -4 -17 13 -22
21 -14 21 2 0 10 -8 17 -17z m-423 -48 c-3 -3 -9 2 -12 12 -6 14 -5 15 5 6 7
-7 10 -15 7 -18z m99 0 c0 -8 -4 -12 -9 -9 -5 3 -6 10 -3 15 9 13 12 11 12 -6z
m280 -20 c0 -8 -4 -12 -9 -9 -5 3 -6 10 -3 15 9 13 12 11 12 -6z m-204 -10
c-3 -9 -8 -14 -10 -11 -3 3 -2 9 2 15 9 16 15 13 8 -4z m-296 -10 c0 -8 -4
-12 -9 -9 -5 3 -6 10 -3 15 9 13 12 11 12 -6z m123 9 c0 -8 -19 -13 -24 -6 -3
5 1 9 9 9 8 0 15 -2 15 -3z m-65 -13 c3 -5 2 -12 -3 -15 -5 -3 -9 1 -9 9 0 17
3 19 12 6z m405 -5 c0 -3 -4 -8 -10 -11 -5 -3 -10 -1 -10 4 0 6 5 11 10 11 6
0 10 -2 10 -4z m40 0 c0 -2 -7 -7 -16 -10 -8 -3 -12 -2 -9 4 6 10 25 14 25 6z
m-505 -26 c3 -5 1 -10 -4 -10 -6 0 -11 5 -11 10 0 6 2 10 4 10 3 0 8 -4 11
-10z m62 -13 c0 -8 -6 -14 -14 -14 -9 0 -10 4 -2 14 6 7 12 13 14 13 1 0 2 -6
2 -13z m159 -13 c1 -9 0 -13 -4 -10 -3 4 -7 14 -8 22 -1 9 0 13 4 10 3 -4 7
-14 8 -22z m409 6 c3 -6 -1 -7 -9 -4 -18 7 -21 14 -7 14 6 0 13 -4 16 -10z
m-528 -35 c0 -8 -4 -12 -9 -9 -5 3 -6 10 -3 15 9 13 12 11 12 -6z m117 -3 c3
-5 -1 -9 -9 -9 -8 0 -12 4 -9 9 3 4 7 8 9 8 2 0 6 -4 9 -8z m241 -10 c-3 -3
-11 0 -18 7 -9 10 -8 11 6 5 10 -3 15 -9 12 -12z m162 -7 c0 -8 -4 -12 -9 -9
-5 3 -6 10 -3 15 9 13 12 11 12 -6z m-217 -1 c0 -8 -19 -13 -24 -6 -3 5 1 9 9
9 8 0 15 -2 15 -3z m56 -40 c1 -9 0 -13 -4 -10 -3 4 -7 14 -8 22 -1 9 0 13 4
10 3 -4 7 -14 8 -22z m129 16 c-3 -5 -12 -10 -18 -10 -7 0 -6 4 3 10 19 12 23
12 15 0z m-472 -15 c-3 -9 -8 -14 -10 -11 -3 3 -2 9 2 15 9 16 15 13 8 -4z
m284 2 c0 -8 -6 -14 -14 -14 -9 0 -10 4 -2 14 6 7 12 13 14 13 1 0 2 -6 2 -13z
m-317 -3 c0 -8 -19 -13 -24 -6 -3 5 1 9 9 9 8 0 15 -2 15 -3z m351 -11 c13
-16 12 -17 -3 -4 -17 13 -22 21 -14 21 2 0 10 -8 17 -17z m225 -9 c1 -9 0 -13
-4 -10 -3 4 -7 14 -8 22 -1 9 0 13 4 10 3 -4 7 -14 8 -22z m41 -16 c2 -12 1
-19 -2 -16 -3 3 -8 16 -10 28 -2 12 -1 20 2 16 4 -4 8 -16 10 -28z m-624 -3
c-3 -9 -8 -14 -10 -11 -3 3 -2 9 2 15 9 16 15 13 8 -4z m192 -25 c-3 -5 -12
-10 -18 -10 -7 0 -6 4 3 10 19 12 23 12 15 0z m155 0 c0 -5 -5 -10 -11 -10 -5
0 -7 5 -4 10 3 6 8 10 11 10 2 0 4 -4 4 -10z m-429 -27 c13 -16 12 -17 -3 -4
-17 13 -22 21 -14 21 2 0 10 -8 17 -17z m323 9 c3 -5 -1 -9 -9 -9 -8 0 -12 4
-9 9 3 4 7 8 9 8 2 0 6 -4 9 -8z m206 -2 c0 -5 -2 -10 -4 -10 -3 0 -8 5 -11
10 -3 6 -1 10 4 10 6 0 11 -4 11 -10z"/>
<path d="M2252 4845 l0 -315 312 0 312 0 2 55 c1 42 -1 54 -11 49 -9 -6 -9 -5
0 7 14 18 14 139 -1 158 -8 11 -8 13 1 8 8 -5 10 38 8 170 -1 98 -3 180 -4
182 0 2 -8 -2 -16 -9 -8 -7 -12 -17 -8 -23 3 -6 1 -7 -6 -3 -8 6 -9 11 -2 20
9 10 -5 13 -64 12 -44 0 -75 -5 -75 -11 0 -5 -4 -4 -9 4 -5 7 -14 10 -20 7 -6
-4 -9 -12 -6 -17 4 -5 1 -9 -5 -9 -7 0 -10 6 -7 13 4 11 -14 14 -88 13 -60 -1
-91 -4 -87 -11 3 -5 -1 -4 -9 2 -12 10 -18 10 -29 0 -7 -6 -10 -7 -7 -1 4 7
-17 11 -68 10 -44 0 -75 -5 -75 -11 0 -7 -3 -7 -8 0 -28 38 -30 9 -30 -300z
m333 295 c3 -5 1 -10 -4 -10 -6 0 -11 5 -11 10 0 6 2 10 4 10 3 0 8 -4 11 -10z
m160 0 c3 -5 1 -10 -4 -10 -6 0 -11 5 -11 10 0 6 2 10 4 10 3 0 8 -4 11 -10z
m-191 -18 c3 -5 -1 -9 -9 -9 -8 0 -12 4 -9 9 3 4 7 8 9 8 2 0 6 -4 9 -8z m160
0 c3 -5 -1 -9 -9 -9 -8 0 -12 4 -9 9 3 4 7 8 9 8 2 0 6 -4 9 -8z m-303 -45
c-6 -8 -7 -18 -3 -22 4 -5 1 -5 -6 -1 -10 6 -10 11 -1 22 6 8 14 14 16 14 3 0
0 -6 -6 -13z m149 7 c0 -8 -19 -13 -24 -6 -3 5 1 9 9 9 8 0 15 -2 15 -3z
m-105 -24 c-3 -5 -12 -10 -18 -10 -7 0 -6 4 3 10 19 12 23 12 15 0z m35 0 c0
-5 -5 -10 -11 -10 -5 0 -7 5 -4 10 3 6 8 10 11 10 2 0 4 -4 4 -10z m195 0 c3
-5 1 -10 -4 -10 -6 0 -11 5 -11 10 0 6 2 10 4 10 3 0 8 -4 11 -10z m-282 -30
c10 -12 9 -12 -4 -2 -9 6 -18 9 -21 6 -3 -3 -9 -1 -12 4 -9 15 22 8 37 -8z
m181 4 c3 -8 2 -12 -4 -9 -6 3 -10 10 -10 16 0 14 7 11 14 -7z m62 0 c-1 -8
-6 -17 -12 -21 -5 -4 -6 -4 -2 1 4 5 3 14 -2 21 -7 8 -5 12 4 12 8 0 13 -6 12
-13z m114 10 c0 -8 -19 -13 -24 -6 -3 5 1 9 9 9 8 0 15 -2 15 -3z m30 -4 c0
-5 -5 -10 -11 -10 -5 0 -7 5 -4 10 3 6 8 10 11 10 2 0 4 -4 4 -10z m33 -35
c-3 -9 -8 -14 -10 -11 -3 3 -2 9 2 15 9 16 15 13 8 -4z m-499 -3 c3 -5 -1 -9
-9 -9 -8 0 -12 4 -9 9 3 4 7 8 9 8 2 0 6 -4 9 -8z m261 -2 c3 -5 1 -10 -4 -10
-6 0 -11 5 -11 10 0 6 2 10 4 10 3 0 8 -4 11 -10z m-220 -19 c3 -5 2 -12 -3
-15 -5 -3 -9 1 -9 9 0 17 3 19 12 6z m45 3 c0 -8 -19 -13 -24 -6 -3 5 1 9 9 9
8 0 15 -2 15 -3z m240 2 c0 -2 -7 -7 -16 -10 -8 -3 -12 -2 -9 4 6 10 25 14 25
6z m77 -3 c-4 -3 -1 -13 6 -22 11 -14 10 -14 -5 -2 -16 12 -16 31 -1 31 4 0 3
-3 0 -7z m115 -15 c-14 -14 -44 -20 -36 -7 3 5 9 7 14 4 5 -3 11 -1 15 5 3 5
9 10 13 10 3 0 1 -5 -6 -12z m-436 -23 c-1 -8 -5 -17 -8 -21 -5 -4 -4 16 1 34
3 9 9 -1 7 -13z m62 -30 c-3 -3 -9 2 -12 12 -6 14 -5 15 5 6 7 -7 10 -15 7
-18z m97 6 c-9 -8 -36 -10 -30 -2 2 4 11 8 20 8 8 0 13 -3 10 -6z m265 3 c0
-8 -19 -13 -24 -6 -3 5 1 9 9 9 8 0 15 -2 15 -3z m-105 -13 c3 -5 2 -12 -3
-15 -5 -3 -9 1 -9 9 0 17 3 19 12 6z m-40 -19 c-3 -3 -11 0 -18 7 -9 10 -8 11
6 5 10 -3 15 -9 12 -12z m-359 -7 c-1 -8 -5 -17 -8 -21 -5 -4 -4 16 1 34 3 9
9 -1 7 -13z m122 -10 c-3 -3 -9 2 -12 12 -6 14 -5 15 5 6 7 -7 10 -15 7 -18z
m283 2 c-6 -8 -7 -18 -3 -22 4 -5 1 -5 -6 -1 -10 6 -10 11 -1 22 6 8 14 14 16
14 3 0 0 -6 -6 -13z m-316 -17 c-3 -5 -12 -10 -18 -10 -7 0 -6 4 3 10 19 12
23 12 15 0z m232 3 c-4 -3 -1 -13 6 -22 11 -14 10 -14 -5 -2 -16 12 -16 31 -1
31 4 0 3 -3 0 -7z m147 -21 c3 -5 -1 -9 -9 -9 -8 0 -12 4 -9 9 3 4 7 8 9 8 2
0 6 -4 9 -8z m-388 -28 c1 -9 0 -13 -4 -10 -3 4 -7 14 -8 22 -1 9 0 13 4 10 3
-4 7 -14 8 -22z m-31 -34 c3 -6 -1 -7 -9 -4 -18 7 -21 14 -7 14 6 0 13 -4 16
-10z m288 -15 c-3 -9 -8 -14 -10 -11 -3 3 -2 9 2 15 9 16 15 13 8 -4z m-333 1
c0 -2 -7 -7 -16 -10 -8 -3 -12 -2 -9 4 6 10 25 14 25 6z m254 -4 c3 -5 -1 -9
-9 -9 -8 0 -12 4 -9 9 3 4 7 8 9 8 2 0 6 -4 9 -8z m197 -15 c-10 -9 -11 -8 -5
6 3 10 9 15 12 12 3 -3 0 -11 -7 -18z m-386 -26 c-9 -8 -36 -10 -30 -2 2 4 11
8 20 8 8 0 13 -3 10 -6z m146 -14 c-10 -9 -11 -8 -5 6 3 10 9 15 12 12 3 -3 0
-11 -7 -18z m294 14 c-9 -8 -36 -10 -30 -2 2 4 11 8 20 8 8 0 13 -3 10 -6z
m29 -7 c3 -8 2 -12 -4 -9 -6 3 -10 10 -10 16 0 14 7 11 14 -7z m-314 -34 c0
-5 -5 -10 -11 -10 -5 0 -7 5 -4 10 3 6 8 10 11 10 2 0 4 -4 4 -10z m34 -6 c3
-8 2 -12 -4 -9 -6 3 -10 10 -10 16 0 14 7 11 14 -7z m-89 -14 c3 -6 -1 -7 -9
-4 -18 7 -21 14 -7 14 6 0 13 -4 16 -10z m355 0 c0 -5 -5 -10 -11 -10 -5 0 -7
5 -4 10 3 6 8 10 11 10 2 0 4 -4 4 -10z m-530 -16 c0 -8 -19 -13 -24 -6 -3 5
1 9 9 9 8 0 15 -2 15 -3z m46 -20 c1 -9 0 -13 -4 -10 -3 4 -7 14 -8 22 -1 9 0
13 4 10 3 -4 7 -14 8 -22z m295 3 c-10 -9 -11 -8 -5 6 3 10 9 15 12 12 3 -3 0
-11 -7 -18z m66 -22 c0 -8 -4 -12 -9 -9 -5 3 -6 10 -3 15 9 13 12 11 12 -6z
m-272 -25 c-3 -5 -12 -10 -18 -10 -7 0 -6 4 3 10 19 12 23 12 15 0z m270 -8
c-3 -3 -11 0 -18 7 -9 10 -8 11 6 5 10 -3 15 -9 12 -12z"/>
<path d="M1303 4912 c-13 -8 -11 -41 3 -64 4 -6 3 -8 -4 -4 -7 4 -10 -1 -9
-14 1 -11 5 -21 9 -21 4 -1 12 -2 17 -3 21 -3 20 -13 -1 -12 -20 1 -22 -4 -23
-41 0 -24 3 -43 8 -43 4 0 5 -5 1 -11 -3 -6 -7 -35 -8 -63 -1 -50 0 -52 26
-54 16 -1 31 5 38 15 10 15 11 15 6 2 -7 -25 99 -26 114 -1 11 16 11 16 6 -1
-5 -16 -1 -18 32 -15 20 2 37 9 37 15 0 6 3 15 7 19 4 3 6 -3 3 -15 -5 -26 11
-27 39 -3 20 16 20 16 7 0 -12 -16 -11 -18 2 -18 14 0 16 21 16 168 l0 169
-36 1 c-29 1 -34 -1 -29 -16 6 -16 5 -16 -8 1 -8 10 -27 17 -46 17 -26 0 -31
-3 -26 -17 5 -16 5 -16 -6 -2 -14 16 -123 25 -113 9 3 -5 1 -12 -5 -15 -6 -4
-9 -1 -8 7 3 15 -31 22 -49 10z m101 -10 c3 -5 -1 -9 -9 -9 -8 0 -12 4 -9 9 3
4 7 8 9 8 2 0 6 -4 9 -8z m-20 -68 c3 -8 2 -12 -4 -9 -6 3 -10 10 -10 16 0 14
7 11 14 -7z m62 -9 c-1 -8 -5 -17 -8 -21 -5 -4 -4 16 1 34 3 9 9 -1 7 -13z
m41 -40 c0 -8 -4 -12 -9 -9 -5 3 -6 10 -3 15 9 13 12 11 12 -6z m-33 -3 c3 -5
-1 -9 -9 -9 -8 0 -12 4 -9 9 3 4 7 8 9 8 2 0 6 -4 9 -8z m156 0 c0 -5 -7 -9
-15 -9 -8 0 -12 4 -9 9 3 4 9 8 15 8 5 0 9 -4 9 -8z m1 -39 c13 -16 12 -17 -3
-4 -10 7 -18 15 -18 17 0 8 8 3 21 -13z m-108 -18 c-3 -9 -8 -14 -10 -11 -3 3
-2 9 2 15 9 16 15 13 8 -4z m-147 -7 c3 -4 -1 -5 -10 -4 -8 1 -18 5 -22 8 -3
4 1 5 10 4 8 -1 18 -5 22 -8z m105 -11 c-10 -9 -11 -8 -5 6 3 10 9 15 12 12 3
-3 0 -11 -7 -18z m-134 -102 c0 -8 -4 -12 -9 -9 -5 3 -6 10 -3 15 9 13 12 11
12 -6z"/>
<path d="M1714 4908 c-3 -5 0 -8 7 -8 8 0 7 -5 -2 -17 -16 -19 -16 -23 3 -34
11 -7 10 -11 -2 -19 -11 -7 -11 -10 -2 -10 7 0 11 -4 8 -8 -3 -5 1 -9 9 -9 9
0 13 8 10 21 -2 12 -4 21 -6 21 -1 0 -3 9 -4 21 -1 12 6 26 16 33 11 6 19 7
19 3 0 -5 7 -9 15 -9 8 0 15 5 15 11 0 6 5 4 10 -4 8 -12 10 -12 10 -1 0 8 8
4 19 -10 11 -13 23 -21 27 -16 4 4 -1 14 -12 22 -13 11 -14 14 -4 13 8 -2 18
-7 22 -13 5 -6 8 -6 8 2 0 6 14 -2 31 -18 17 -16 38 -29 46 -29 10 0 5 8 -13
22 -45 33 -51 40 -34 36 8 -2 18 -7 22 -13 5 -6 8 -4 8 5 0 8 11 -2 25 -23 14
-20 31 -37 37 -37 6 0 3 9 -7 20 -10 11 -14 20 -10 20 5 0 1 6 -9 13 -16 12
-16 14 -2 14 9 0 16 -5 16 -11 0 -6 5 -4 10 4 9 13 10 13 11 0 1 -8 1 -18 0
-22 -1 -11 35 -4 51 10 8 6 18 9 21 5 4 -3 7 -2 7 3 0 5 10 10 23 11 l22 1
-22 -10 c-29 -14 -29 -25 -2 -33 17 -6 18 -9 8 -16 -7 -4 -10 -12 -5 -16 5 -4
11 -2 13 5 3 6 10 9 16 6 9 -5 8 -3 0 6 -8 9 -9 19 -3 31 7 12 6 20 -2 26 -17
10 -418 11 -424 1z m336 -12 c-7 -7 -13 -7 -20 0 -6 6 -3 10 10 10 13 0 16 -4
10 -10z m83 -11 c-3 -9 -8 -14 -10 -11 -3 3 -2 9 2 15 9 16 15 13 8 -4z"/>
<path d="M1745 4872 c-3 -10 1 -22 10 -28 12 -9 13 -13 3 -16 -7 -3 1 -5 18
-5 19 0 31 5 31 14 0 8 -7 11 -14 9 -9 -4 -11 -1 -7 5 4 7 -1 9 -17 5 -13 -3
-18 -3 -11 0 6 3 10 9 8 13 -3 4 1 8 9 8 8 0 15 -4 15 -9 0 -5 5 -6 10 -3 6 3
10 1 10 -6 0 -7 2 -10 5 -7 3 3 3 11 0 19 -8 20 -62 21 -70 1z"/>
<path d="M1820 4884 c1 -27 56 -43 71 -21 4 5 10 -1 14 -13 6 -18 9 -20 16 -9
6 9 9 10 9 2 0 -6 -4 -15 -10 -18 -5 -3 -10 -14 -10 -23 1 -16 1 -16 11 0 5 9
15 15 23 12 7 -3 13 2 13 10 0 8 -4 13 -8 11 -4 -3 -10 2 -13 11 -4 9 -9 14
-13 10 -3 -3 -13 3 -21 15 -13 19 -15 19 -27 2 -13 -17 -14 -17 -34 1 -12 11
-21 15 -21 10z"/>
<path d="M1996 4881 c-3 -4 3 -16 14 -26 10 -9 17 -22 14 -29 -3 -7 2 -13 11
-13 9 0 14 6 11 12 -7 20 11 42 24 29 9 -9 9 -14 1 -18 -6 -4 -11 -12 -11 -18
0 -7 4 -7 13 1 10 8 18 7 32 -3 19 -13 30 -46 16 -46 -12 0 -9 -30 3 -30 6 0
-4 -8 -22 -17 -24 -12 -30 -18 -20 -24 18 -12 28 -11 26 2 -2 6 4 14 12 16 13
4 13 3 0 -6 -13 -10 -13 -11 0 -11 13 0 13 -1 0 -10 -13 -9 -13 -10 0 -10 13
0 13 -2 0 -9 -8 -6 -18 -7 -22 -5 -10 6 -11 -10 -1 -19 3 -4 13 -1 21 6 13 9
14 9 8 0 -4 -7 -2 -13 4 -13 6 0 8 11 6 25 -3 14 0 25 5 25 6 0 7 4 4 10 -11
18 -14 50 -4 50 7 0 7 6 0 17 -6 11 -6 24 0 35 5 10 6 19 2 19 -4 1 -12 2 -18
4 -5 1 -16 3 -24 3 -11 2 -11 5 -1 17 11 13 10 14 -4 9 -9 -4 -16 -3 -15 2 1
5 1 15 0 23 -1 12 -4 12 -18 -1 -22 -17 -59 -18 -55 0 2 14 -4 16 -12 3z"/>
<path d="M1814 4839 c-5 -9 3 -11 45 -11 22 -1 23 -2 8 -13 -9 -6 -14 -15 -10
-18 3 -4 12 -2 20 5 11 9 13 8 11 -2 -2 -7 3 -15 10 -17 11 -4 12 -1 3 15 -14
26 -14 35 -1 27 5 -3 7 0 4 8 -5 15 -34 19 -34 5 0 -5 -6 -6 -12 -1 -19 11
-37 12 -44 2z"/>
<path d="M1969 4842 c-2 -21 -4 -27 -12 -38 -4 -7 -1 -14 7 -17 9 -4 12 -17 9
-41 -2 -21 1 -36 7 -36 5 0 9 3 9 8 -1 4 0 9 1 12 1 3 3 19 5 35 4 49 5 51 14
36 7 -10 9 -7 8 11 -1 16 -7 24 -14 21 -7 -3 -11 -8 -9 -12 7 -11 -12 -36 -21
-28 -4 5 -3 11 3 15 5 4 10 12 9 19 0 16 -15 29 -16 15z"/>
<path d="M1761 4804 c-17 -12 -23 -14 -43 -14 -15 0 -1 -13 17 -16 8 -1 15 2
15 7 0 6 5 7 12 3 7 -5 8 -3 3 6 -5 8 -4 11 3 6 6 -4 8 -14 5 -22 -5 -14 -3
-14 15 -3 19 12 19 14 4 26 -15 13 -14 13 5 4 16 -8 23 -8 26 2 4 9 6 9 6 0 1
-6 -3 -15 -9 -18 -5 -3 -10 -14 -10 -23 0 -14 2 -13 13 3 8 10 19 15 25 11 7
-4 12 -3 12 3 0 5 -5 13 -10 16 -6 4 -8 10 -6 13 7 12 -65 8 -83 -4z"/>
<path d="M2070 4801 c-5 -11 -10 -22 -10 -25 0 -11 25 -1 38 14 11 13 11 12 2
-7 -5 -12 -15 -25 -21 -29 -8 -4 -7 -9 2 -16 10 -7 8 -8 -7 -4 -14 5 -21 2
-21 -9 0 -18 2 -18 28 -4 11 5 17 14 14 20 -4 5 -1 9 6 9 7 0 9 3 6 6 -3 4 -2
15 3 25 8 14 6 21 -9 29 -16 8 -22 6 -31 -9z"/>
<path d="M1919 4787 c-15 -19 -18 -20 -35 -7 -10 9 -15 10 -10 3 7 -13 -3 -17
-34 -14 -13 2 -13 1 0 -8 8 -5 18 -7 22 -5 4 3 5 -3 1 -13 -5 -14 -3 -16 7 -6
7 6 19 9 27 6 8 -3 13 0 11 7 -2 7 3 15 10 17 6 3 12 -1 12 -9 0 -10 3 -9 11
2 9 13 10 13 6 0 -2 -8 -9 -15 -14 -15 -17 0 -28 -15 -12 -16 8 -1 17 -1 22 0
4 0 6 -2 6 -6 -4 -23 4 -30 29 -29 28 1 48 16 32 26 -5 3 -1 11 9 17 14 9 18
8 18 -3 0 -7 -3 -11 -7 -9 -3 2 -7 -6 -7 -18 -2 -14 1 -17 6 -9 6 10 11 10 21
-3 11 -13 10 -15 -2 -10 -9 4 -15 0 -15 -9 0 -9 9 -13 26 -12 34 4 37 20 7 34
-28 13 -28 35 0 57 13 11 14 14 4 13 -11 -2 -14 4 -12 22 2 19 0 22 -8 10 -9
-13 -10 -13 -10 0 -1 12 -3 11 -11 -3 -6 -9 -14 -15 -18 -12 -5 2 -7 -7 -5
-20 1 -14 -2 -27 -7 -31 -5 -3 -7 -9 -4 -14 11 -18 -19 -22 -32 -5 -14 21 -18
39 -5 31 4 -2 8 4 8 14 0 11 -2 17 -5 14 -3 -2 -10 4 -15 15 -11 18 -11 18
-27 -2z m130 -30 c0 -8 -2 -8 -6 1 -4 10 -8 10 -21 0 -15 -12 -16 -11 -3 4 14
19 32 15 30 -5z"/>
<path d="M1722 4763 c-10 -4 -9 -8 4 -17 15 -12 15 -13 -1 -29 -9 -9 -12 -17
-7 -17 5 0 9 -7 9 -15 0 -8 -3 -15 -7 -15 -9 0 -7 -41 3 -57 4 -6 1 -14 -5
-17 -7 -3 -4 -5 7 -3 24 3 27 27 5 45 -11 9 -12 12 -1 10 7 -2 16 3 19 11 2 8
0 11 -5 8 -5 -3 -10 0 -10 8 0 8 3 15 7 15 4 0 7 7 8 15 1 8 3 22 4 30 1 16
18 21 18 6 0 -6 8 -8 18 -6 11 2 19 -3 19 -11 0 -8 -4 -14 -9 -14 -4 0 -8 6
-8 13 0 8 -4 7 -10 -3 -15 -23 -13 -25 31 -27 37 -2 39 0 23 12 -14 10 -16 17
-8 25 9 9 15 5 25 -16 8 -15 20 -29 27 -32 7 -2 2 12 -10 32 -13 19 -30 35
-38 35 -32 -2 -41 1 -34 14 6 9 5 9 -7 0 -12 -10 -18 -10 -27 -1 -9 9 -12 9
-12 0 0 -7 -5 -12 -11 -12 -5 0 -7 5 -4 10 7 11 6 11 -13 3z"/>
<path d="M1874 4729 c-3 -6 2 -19 11 -29 18 -20 3 -39 -18 -21 -8 6 -18 6 -27
1 -18 -12 -33 -13 -26 -2 2 4 -4 8 -14 8 -10 0 -16 -4 -14 -8 3 -4 1 -8 -4 -8
-5 0 -9 -7 -9 -15 0 -10 6 -14 14 -10 8 3 18 5 21 5 4 0 0 5 -8 11 -13 9 -13
10 0 6 8 -2 14 -10 13 -16 -4 -15 37 -8 48 10 6 10 9 10 9 1 0 -9 6 -9 23 3
13 8 27 12 30 8 4 -3 7 0 7 8 0 8 9 -1 20 -19 11 -18 25 -30 31 -27 6 4 4 12
-7 20 -16 11 -16 12 7 13 42 0 50 2 45 11 -7 10 -25 9 -43 -2 -8 -5 -13 -3
-13 3 0 6 -4 9 -9 5 -6 -3 -15 4 -21 15 -6 11 -15 18 -21 15 -5 -4 -9 -2 -9 3
0 14 -28 23 -36 11z m49 -22 c4 3 7 1 7 -5 0 -7 -3 -12 -7 -12 -12 1 -43 26
-43 35 0 5 8 1 18 -8 10 -10 22 -14 25 -10z m-68 -37 c-3 -5 -12 -10 -18 -10
-7 0 -6 4 3 10 19 12 23 12 15 0z"/>
<path d="M1756 4713 c-6 -14 -5 -15 5 -6 7 7 10 15 7 18 -3 3 -9 -2 -12 -12z"/>
<path d="M1750 4680 c0 -5 5 -10 10 -10 6 0 10 5 10 10 0 6 -4 10 -10 10 -5 0
-10 -4 -10 -10z"/>
<path d="M1890 4653 c-11 -8 -20 -11 -20 -7 0 3 -6 2 -12 -3 -7 -5 -31 -9 -53
-8 -30 0 -39 4 -37 15 3 12 1 13 -10 2 -11 -11 -10 -14 2 -22 12 -8 13 -10 1
-10 -8 0 -12 -3 -9 -6 4 -3 16 -1 27 6 16 8 27 8 42 -1 17 -9 23 -8 30 2 6 10
9 10 9 2 0 -7 7 -10 15 -7 8 4 12 11 8 17 -4 6 -1 7 7 2 9 -6 11 -4 6 6 -4 8
-1 6 7 -4 15 -18 19 -16 30 14 7 20 -16 21 -43 2z"/>
<path d="M1996 4649 c2 -4 0 -10 -6 -14 -5 -3 -10 -11 -10 -16 0 -6 5 -7 12
-3 6 4 17 -1 25 -11 11 -16 13 -17 13 -3 0 9 -4 20 -10 23 -5 3 -10 12 -9 18
0 9 2 9 6 0 3 -10 10 -10 26 -2 19 9 20 9 5 -4 -15 -12 -15 -14 4 -26 18 -11
20 -11 15 3 -3 8 -1 18 5 22 15 10 28 -17 18 -37 -9 -16 -4 -29 12 -29 4 0 7
3 7 8 -3 19 2 32 12 32 8 0 8 -5 -1 -15 -10 -12 -10 -15 1 -15 12 0 12 -2 0
-9 -9 -6 -10 -11 -2 -15 6 -4 9 -12 6 -17 -3 -5 1 -6 10 -2 9 3 13 9 8 12 -10
7 -9 43 1 59 4 6 -3 16 -14 22 -11 6 -20 8 -20 4 0 -3 -6 -1 -14 5 -16 13
-108 22 -100 10z"/>
<path d="M1934 4633 c-5 -9 -19 -18 -30 -19 -10 -1 -30 -5 -43 -8 -13 -3 -32
-1 -42 5 -14 7 -27 5 -49 -6 -16 -9 -30 -18 -30 -21 0 -3 5 -2 12 2 7 4 8 3 4
-5 -4 -6 -15 -10 -23 -9 -17 3 -27 -28 -12 -38 5 -3 5 -12 0 -23 -9 -16 2 -17
180 -17 104 1 189 5 189 9 0 5 -7 6 -16 3 -8 -3 -12 -2 -9 3 3 5 1 12 -5 16
-5 3 -10 2 -10 -3 0 -5 -7 -9 -15 -9 -8 0 -15 4 -15 9 0 5 -7 3 -15 -6 -15
-14 -58 -16 -72 -3 -3 4 -13 1 -21 -6 -11 -8 -14 -8 -9 0 4 6 3 14 -3 18 -5 3
-10 1 -10 -4 0 -13 -22 -10 -32 4 -5 6 -8 4 -8 -5 0 -13 -1 -13 -10 0 -8 13
-10 13 -10 -2 0 -12 -7 -16 -25 -14 -14 1 -28 6 -32 9 -9 10 -25 9 -19 -1 3
-5 -1 -9 -9 -9 -11 0 -12 4 -4 13 7 8 6 14 -3 17 -10 4 -10 6 -1 6 7 1 19 14
28 31 11 21 20 27 32 23 11 -4 14 -3 9 5 -16 26 4 10 25 -20 13 -17 17 -28 10
-23 -9 5 -12 3 -9 -5 2 -8 17 -15 34 -17 28 -4 28 -4 9 11 -11 8 -16 16 -11
16 6 0 2 6 -8 13 -13 10 -15 14 -5 14 24 1 44 8 51 18 4 6 8 2 8 -8 0 -10 5
-15 10 -12 6 4 8 10 5 15 -3 5 4 14 16 20 17 10 20 9 14 -1 -5 -8 -4 -10 4 -5
9 6 9 11 0 22 -14 17 -12 17 -25 -3z m-199 -72 c3 -5 2 -12 -3 -15 -5 -3 -9 1
-9 9 0 17 3 19 12 6z"/>
<path d="M1936 4599 c5 -8 -13 -22 -33 -25 -7 -1 -13 3 -13 9 0 15 -13 -1 -16
-19 -1 -9 0 -13 3 -10 3 3 12 -2 19 -12 7 -9 17 -18 23 -18 6 -1 12 -2 14 -4
9 -7 54 -6 65 3 23 18 63 14 88 -10 26 -24 54 -31 54 -13 0 5 -6 7 -14 4 -8
-3 -17 0 -22 7 -4 8 -3 10 4 5 7 -4 20 -2 29 4 17 10 16 10 -2 8 -11 -2 -20 3
-20 10 0 6 -3 12 -7 12 -5 0 -13 0 -19 0 -8 0 -8 -5 1 -17 7 -10 1 -5 -14 10
-18 20 -26 23 -26 13 0 -18 -15 -21 -25 -6 -3 5 -12 7 -20 4 -8 -4 -12 -10 -9
-15 3 -5 -3 -6 -12 -2 -13 5 -15 3 -9 -8 5 -8 -1 -6 -13 5 -12 10 -19 23 -16
27 3 5 -1 9 -8 9 -10 0 -9 3 2 10 9 6 20 5 29 -3 12 -10 14 -9 8 6 -4 10 -3
16 1 13 4 -2 14 -1 21 3 7 5 -5 8 -28 8 -22 0 -38 -4 -35 -8z m-17 -41 c3 6
11 0 17 -13 11 -23 11 -24 -12 -8 -13 8 -24 20 -23 27 0 6 3 5 6 -3 3 -8 8 -9
12 -3z"/>
<path d="M2044 4603 c7 -13 -3 -17 -35 -14 -9 1 -19 -6 -23 -15 -5 -13 -9 -14
-20 -5 -12 10 -14 9 -11 -6 2 -17 24 -20 35 -4 6 8 22 8 36 -2 7 -4 15 1 19
11 6 16 7 16 20 -1 8 -12 15 -14 20 -8 3 6 1 11 -5 11 -7 0 -9 7 -6 17 4 10 4
14 0 10 -4 -4 -14 -1 -22 6 -13 9 -14 9 -8 0z"/>
<path d="M1786 4577 c3 -9 1 -24 -6 -34 -9 -15 -10 -15 -4 7 6 24 6 24 -9 5
-14 -18 -14 -21 1 -29 26 -15 51 -14 57 1 3 11 -1 13 -18 9 -12 -3 -16 -3 -9
0 6 3 10 10 7 14 -3 5 0 12 6 16 8 5 9 3 4 -6 -5 -8 -4 -11 3 -6 6 4 8 14 5
23 -5 11 -8 13 -11 5 -3 -10 -7 -10 -18 -1 -12 10 -13 9 -8 -4z"/>
<path d="M2114 4360 c-1 -33 3 -47 10 -42 17 10 37 11 30 1 -3 -5 -9 -7 -14
-4 -23 14 -37 -70 -17 -102 4 -7 3 -14 -3 -18 -5 -3 -10 -11 -10 -16 0 -6 5
-7 12 -3 7 5 8 3 3 -6 -14 -22 -15 -111 -2 -103 7 3 9 3 5 -2 -4 -4 -2 -15 5
-24 10 -14 10 -14 -3 -4 -14 11 -16 1 -16 -87 0 -64 4 -96 11 -93 5 3 4 0 -2
-8 -15 -15 -18 -33 -5 -25 5 3 9 -1 9 -9 0 -8 -3 -12 -7 -10 -3 2 -6 -14 -6
-35 0 -24 4 -36 11 -33 5 3 4 0 -2 -8 -18 -18 -16 -32 3 -25 8 3 13 2 10 -2
-2 -4 15 -8 40 -8 24 -1 41 2 38 7 -3 5 0 9 5 9 6 0 11 -3 11 -8 0 -12 64 -11
72 2 5 8 8 7 8 -3 0 -11 3 -11 17 0 9 8 14 9 10 3 -7 -13 91 -13 112 0 8 6 12
5 8 0 -3 -5 14 -10 39 -10 24 -1 41 2 38 7 -3 5 0 9 5 9 6 0 11 -5 11 -11 0
-8 6 -7 17 2 11 10 14 10 9 2 -4 -7 -3 -13 3 -13 5 0 13 5 17 11 4 8 9 7 15
-2 8 -12 11 -11 19 1 5 8 10 10 10 4 0 -12 29 -12 49 1 9 5 12 4 7 -3 -7 -12
53 -10 74 3 9 5 11 4 6 -3 -4 -7 -2 -12 3 -12 6 0 11 6 11 13 0 7 3 8 8 2 28
-38 30 -9 31 345 l1 360 -47 0 c-32 0 -50 -5 -59 -17 -12 -16 -13 -16 -8 -1 5
15 -10 17 -166 17 -126 1 -177 -2 -188 -11 -12 -10 -14 -10 -8 -1 5 10 -13 13
-78 12 -48 0 -84 -4 -81 -8 2 -4 -2 -8 -10 -8 -8 0 -12 4 -9 9 3 4 -10 8 -29
8 l-33 0 0 -50z m133 23 c-4 -3 -1 -13 6 -22 11 -14 10 -14 -5 -2 -16 12 -16
31 -1 31 4 0 3 -3 0 -7z m48 -3 c3 -6 -1 -7 -9 -4 -18 7 -21 14 -7 14 6 0 13
-4 16 -10z m35 0 c0 -5 -2 -10 -4 -10 -3 0 -8 5 -11 10 -3 6 -1 10 4 10 6 0
11 -4 11 -10z m-176 -18 c3 -5 -1 -9 -9 -9 -8 0 -12 4 -9 9 3 4 7 8 9 8 2 0 6
-4 9 -8z m586 -18 c0 -8 -19 -13 -24 -6 -3 5 1 9 9 9 8 0 15 -2 15 -3z m27 -9
c0 -8 -4 -12 -9 -9 -5 3 -6 10 -3 15 9 13 12 11 12 -6z m-561 -31 c1 -9 0 -13
-4 -10 -3 4 -7 14 -8 22 -1 9 0 13 4 10 3 -4 7 -14 8 -22z m33 12 c9 -11 9
-16 -1 -22 -7 -4 -10 -4 -6 1 4 4 3 14 -3 22 -6 7 -9 13 -6 13 2 0 10 -6 16
-14z m487 -22 c1 -9 0 -13 -4 -10 -3 4 -7 14 -8 22 -1 9 0 13 4 10 3 -4 7 -14
8 -22z m-391 6 c-3 -5 -12 -10 -18 -10 -7 0 -6 4 3 10 19 12 23 12 15 0z m328
-15 c-3 -9 -8 -14 -10 -11 -3 3 -2 9 2 15 9 16 15 13 8 -4z m-522 -18 c-10 -9
-11 -8 -5 6 3 10 9 15 12 12 3 -3 0 -11 -7 -18z m259 17 c0 -8 -19 -13 -24 -6
-3 5 1 9 9 9 8 0 15 -2 15 -3z m186 -6 c4 -7 4 -10 -1 -6 -4 4 -15 2 -24 -5
-14 -11 -14 -10 -2 6 16 20 18 21 27 5z m-259 -30 c2 -17 0 -19 -7 -8 -5 8 -6
18 -4 22 8 12 10 10 11 -14z m356 -3 c-3 -9 -8 -14 -10 -11 -3 3 -2 9 2 15 9
16 15 13 8 -4z m-496 -10 c0 -8 -4 -12 -9 -9 -4 3 -8 9 -8 15 0 5 4 9 8 9 5 0
9 -7 9 -15z m259 3 c3 -4 -1 -5 -10 -4 -8 1 -18 5 -22 8 -3 4 1 5 10 4 8 -1
18 -5 22 -8z m120 -3 c-1 -8 -5 -17 -8 -21 -5 -4 -4 16 1 34 3 9 9 -1 7 -13z
m94 11 c0 -2 -8 -10 -17 -17 -16 -13 -17 -12 -4 4 13 16 21 21 21 13z m65 -34
c-3 -3 -11 0 -18 7 -9 10 -8 11 6 5 10 -3 15 -9 12 -12z m-60 -11 c-9 -8 -36
-10 -30 -2 2 4 11 8 20 8 8 0 13 -3 10 -6z m135 3 c0 -8 -19 -13 -24 -6 -3 5
1 9 9 9 8 0 15 -2 15 -3z m-639 -31 c13 -16 12 -17 -3 -4 -10 7 -18 15 -18 17
0 8 8 3 21 -13z m204 -1 c-3 -3 -11 0 -18 7 -9 10 -8 11 6 5 10 -3 15 -9 12
-12z m-160 -11 c3 -5 2 -12 -3 -15 -5 -3 -9 1 -9 9 0 17 3 19 12 6z m441 -19
c-3 -3 0 -12 6 -21 10 -13 10 -14 -2 -4 -16 15 -23 46 -8 37 5 -3 7 -9 4 -12z
m160 3 c-1 -8 -8 -21 -16 -28 -10 -10 -11 -9 -4 3 5 8 9 18 10 23 3 14 4 17 8
17 2 0 3 -7 2 -15z m-36 1 c0 -2 -7 -7 -16 -10 -8 -3 -12 -2 -9 4 6 10 25 14
25 6z m-620 -22 c0 -8 -19 -13 -24 -6 -3 5 1 9 9 9 8 0 15 -2 15 -3z m71 -17
c-10 -9 -11 -8 -5 6 3 10 9 15 12 12 3 -3 0 -11 -7 -18z m289 17 c0 -8 -19
-13 -24 -6 -3 5 1 9 9 9 8 0 15 -2 15 -3z m-280 -44 c0 -5 -5 -10 -11 -10 -5
0 -7 5 -4 10 3 6 8 10 11 10 2 0 4 -4 4 -10z m136 -5 c-1 -8 -5 -17 -8 -21 -5
-4 -4 16 1 34 3 9 9 -1 7 -13z m-79 -10 c0 -8 -4 -12 -9 -9 -5 3 -6 10 -3 15
9 13 12 11 12 -6z m296 -20 c-3 -9 -8 -14 -10 -11 -3 3 -2 9 2 15 9 16 15 13
8 -4z m-378 -24 c3 -5 2 -12 -3 -15 -5 -3 -9 1 -9 9 0 17 3 19 12 6z m570 -1
c-3 -5 -12 -10 -18 -10 -7 0 -6 4 3 10 19 12 23 12 15 0z m-472 -15 c-3 -9 -8
-14 -10 -11 -3 3 -2 9 2 15 9 16 15 13 8 -4z m-33 -1 c0 -8 -19 -13 -24 -6 -3
5 1 9 9 9 8 0 15 -2 15 -3z m130 0 c0 -8 -19 -13 -24 -6 -3 5 1 9 9 9 8 0 15
-2 15 -3z m166 -18 c0 -14 -3 -23 -7 -20 -6 3 -6 22 0 42 3 10 7 -2 7 -22z
m-178 -31 c-3 -3 -9 2 -12 12 -6 14 -5 15 5 6 7 -7 10 -15 7 -18z m115 10 c-3
-9 -8 -14 -10 -11 -3 3 -2 9 2 15 9 16 15 13 8 -4z m142 6 c3 -5 2 -12 -3 -15
-5 -3 -9 1 -9 9 0 17 3 19 12 6z m-480 -10 c-9 -8 -36 -10 -30 -2 2 4 11 8 20
8 8 0 13 -3 10 -6z m490 -21 c-3 -5 -12 -10 -18 -10 -7 0 -6 4 3 10 19 12 23
12 15 0z m35 0 c0 -5 -5 -10 -11 -10 -5 0 -7 5 -4 10 3 6 8 10 11 10 2 0 4 -4
4 -10z m75 1 c3 -5 2 -12 -3 -15 -5 -3 -9 1 -9 9 0 17 3 19 12 6z m-599 -16
c-1 -8 -5 -17 -8 -21 -5 -4 -4 16 1 34 3 9 9 -1 7 -13z m200 -11 c1 -9 0 -13
-4 -10 -3 4 -7 14 -8 22 -1 9 0 13 4 10 3 -4 7 -14 8 -22z m154 11 c-7 -9 -15
-13 -18 -10 -3 3 -12 -1 -21 -8 -14 -11 -14 -10 -2 5 7 10 17 16 21 13 5 -3
11 -1 15 5 3 5 9 10 12 10 3 0 0 -7 -7 -15z m210 1 c0 -3 -4 -8 -10 -11 -5 -3
-10 -1 -10 4 0 6 5 11 10 11 6 0 10 -2 10 -4z m-75 -26 c3 -6 -1 -7 -9 -4 -18
7 -21 14 -7 14 6 0 13 -4 16 -10z m35 0 c0 -5 -2 -10 -4 -10 -3 0 -8 5 -11 10
-3 6 -1 10 4 10 6 0 11 -4 11 -10z m-424 -12 c5 4 5 3 1 -2 -12 -15 -34 -15
-34 0 0 9 4 11 12 4 7 -5 16 -6 21 -2z m379 -7 c3 -5 2 -12 -3 -15 -5 -3 -9 1
-9 9 0 17 3 19 12 6z m95 3 c0 -8 -19 -13 -24 -6 -3 5 1 9 9 9 8 0 15 -2 15
-3z m35 -24 c-3 -5 -12 -10 -18 -10 -7 0 -6 4 3 10 19 12 23 12 15 0z m-328
-35 c0 -8 -4 -12 -9 -9 -5 3 -6 10 -3 15 9 13 12 11 12 -6z m-232 -5 c3 -6 -1
-7 -9 -4 -18 7 -21 14 -7 14 6 0 13 -4 16 -10z m320 0 c3 -6 -1 -7 -9 -4 -18
7 -21 14 -7 14 6 0 13 -4 16 -10z m-365 -14 c0 -2 -7 -7 -16 -10 -8 -3 -12 -2
-9 4 6 10 25 14 25 6z m161 -9 c-6 -8 -7 -18 -3 -22 4 -5 1 -5 -6 -1 -10 6
-10 11 -1 22 6 8 14 14 16 14 3 0 0 -6 -6 -13z m253 -3 c3 -8 2 -12 -4 -9 -6
3 -10 10 -10 16 0 14 7 11 14 -7z m179 -29 c-7 -21 -12 -19 -10 4 0 11 5 18 9
15 4 -3 5 -11 1 -19z m-355 -10 c-3 -3 -9 2 -12 12 -6 14 -5 15 5 6 7 -7 10
-15 7 -18z m323 8 c13 -16 12 -17 -3 -4 -10 7 -18 15 -18 17 0 8 8 3 21 -13z
m-292 -7 c9 -11 9 -16 -1 -22 -7 -4 -10 -4 -6 1 4 4 3 14 -3 22 -6 7 -9 13 -6
13 2 0 10 -6 16 -14z m246 -5 c3 -5 2 -12 -3 -15 -5 -3 -9 1 -9 9 0 17 3 19
12 6z m-161 -10 c3 -5 -2 -15 -12 -22 -15 -12 -16 -12 -5 2 7 9 10 19 6 22 -3
4 -4 7 0 7 3 0 8 -4 11 -9z"/>
<path d="M1360 4015 l0 -355 355 0 355 0 0 355 0 355 -355 0 -355 0 0 -355z"/>
<path d="M2958 4363 c-2 -5 -4 -136 -3 -293 l0 -285 298 -3 297 -2 0 295 0
295 -294 0 c-162 0 -296 -3 -298 -7z"/>
<path d="M651 4088 c0 -75 4 -108 12 -108 9 0 9 -2 0 -8 -6 -4 -11 -30 -11
-57 0 -27 5 -53 11 -57 9 -6 9 -8 0 -8 -9 0 -13 -19 -13 -61 0 -54 2 -60 15
-49 8 7 15 9 15 4 0 -15 257 -9 277 7 16 12 17 12 6 -1 -12 -16 -10 -16 135
-10 6 0 12 6 12 14 0 8 -6 17 -12 19 -10 4 -10 6 0 6 6 1 12 11 12 24 0 13 -6
29 -12 36 -10 11 -10 12 -1 7 9 -5 12 1 11 18 -1 15 -7 26 -13 26 -6 0 -6 3 1
8 14 10 14 113 0 105 -6 -4 -6 -1 1 8 16 20 12 125 -6 121 -7 -1 -10 2 -6 8 3
6 10 8 15 5 5 -3 8 7 8 22 l-1 28 -106 0 c-58 -1 -112 -4 -119 -8 -6 -5 -12
-5 -12 0 0 4 -50 8 -110 8 l-110 0 1 -107z m313 62 c-6 -6 -10 -3 -10 10 0 13
4 16 10 10 7 -7 7 -13 0 -20z m-124 16 c0 -2 -8 -10 -17 -17 -16 -13 -17 -12
-4 4 13 16 21 21 21 13z m47 -41 c0 -8 -4 -12 -9 -9 -5 3 -6 10 -3 15 9 13 12
11 12 -6z m-2 -33 c-3 -3 -11 0 -18 7 -9 10 -8 11 6 5 10 -3 15 -9 12 -12z
m200 0 c-3 -3 -11 0 -18 7 -9 10 -8 11 6 5 10 -3 15 -9 12 -12z m-235 -26 c0
-2 -7 -7 -16 -10 -8 -3 -12 -2 -9 4 6 10 25 14 25 6z m35 -5 c3 -5 2 -12 -3
-15 -5 -3 -9 1 -9 9 0 17 3 19 12 6z m162 2 c-4 -3 -1 -13 6 -22 11 -14 10
-14 -5 -2 -16 12 -16 31 -1 31 4 0 3 -3 0 -7z m48 -3 c3 -6 -1 -7 -9 -4 -18 7
-21 14 -7 14 6 0 13 -4 16 -10z m-154 -73 c-10 -9 -11 -8 -5 6 3 10 9 15 12
12 3 -3 0 -11 -7 -18z m-216 -26 c-9 -8 -36 -10 -30 -2 2 4 11 8 20 8 8 0 13
-3 10 -6z m225 -1 c0 -5 -5 -10 -11 -10 -5 0 -7 5 -4 10 3 6 8 10 11 10 2 0 4
-4 4 -10z m34 2 c3 -5 -1 -9 -9 -9 -8 0 -12 4 -9 9 3 4 7 8 9 8 2 0 6 -4 9 -8z
m-254 -26 c0 -2 -8 -10 -17 -17 -16 -13 -17 -12 -4 4 13 16 21 21 21 13z m85
-16 c-3 -5 -12 -10 -18 -10 -7 0 -6 4 3 10 19 12 23 12 15 0z m155 6 c0 -2 -7
-7 -16 -10 -8 -3 -12 -2 -9 4 6 10 25 14 25 6z m-180 -46 c0 -5 -2 -10 -4 -10
-3 0 -8 5 -11 10 -3 6 -1 10 4 10 6 0 11 -4 11 -10z m256 -2 c3 -4 -1 -5 -10
-4 -8 1 -18 5 -22 8 -3 4 1 5 10 4 8 -1 18 -5 22 -8z m39 -7 c3 -5 2 -12 -3
-15 -5 -3 -9 1 -9 9 0 17 3 19 12 6z m-297 -36 c-3 -3 -9 2 -12 12 -6 14 -5
15 5 6 7 -7 10 -15 7 -18z m35 10 c-3 -9 -8 -14 -10 -11 -3 3 -2 9 2 15 9 16
15 13 8 -4z m-59 -3 c3 -5 -1 -9 -9 -9 -8 0 -12 4 -9 9 3 4 7 8 9 8 2 0 6 -4
9 -8z m90 0 c3 -5 -1 -9 -9 -9 -8 0 -12 4 -9 9 3 4 7 8 9 8 2 0 6 -4 9 -8z
m112 -7 c-1 -8 -5 -17 -8 -21 -5 -4 -4 16 1 34 3 9 9 -1 7 -13z m-31 -55 c-3
-5 -12 -10 -18 -10 -7 0 -6 4 3 10 19 12 23 12 15 0z m-181 -22 c-3 -4 -9 -8
-15 -8 -5 0 -9 4 -9 8 0 5 7 9 15 9 8 0 12 -4 9 -9z m116 0 c0 -4 -4 -8 -9 -8
-6 0 -12 4 -15 8 -3 5 1 9 9 9 8 0 15 -4 15 -9z"/>
<path d="M2972 3654 c-15 -11 -24 -104 -10 -104 7 0 0 -51 -7 -59 -2 -2 0 -12
5 -22 7 -12 6 -19 -3 -23 -9 -5 -9 -7 0 -12 9 -4 10 -11 3 -24 -6 -11 -6 -21
-1 -24 8 -5 8 -33 1 -43 -1 -2 -2 -15 -3 -30 -1 -27 1 -28 49 -28 27 0 54 -4
60 -7 6 -4 14 -4 18 -1 10 11 136 9 140 -2 3 -7 5 -7 5 0 1 6 24 9 55 7 l53
-4 1 191 c0 156 -2 191 -13 191 -8 0 -19 -8 -25 -17 -10 -17 -10 -17 -8 1 2
15 -3 19 -28 19 -16 1 -38 -2 -47 -6 -9 -3 -17 -3 -17 1 0 4 -28 6 -62 4 -44
-2 -67 -8 -76 -20 -13 -16 -13 -16 -10 2 2 15 -3 19 -31 20 -19 1 -41 -4 -49
-10z m163 -34 c-3 -5 -12 -10 -18 -10 -7 0 -6 4 3 10 19 12 23 12 15 0z m35 0
c0 -5 -5 -10 -11 -10 -5 0 -7 5 -4 10 3 6 8 10 11 10 2 0 4 -4 4 -10z m-104
-20 c0 -12 -4 -16 -9 -11 -5 5 -6 14 -3 20 10 15 12 14 12 -9z m237 5 c-3 -9
-8 -14 -10 -11 -3 3 -2 9 2 15 9 16 15 13 8 -4z m-78 -4 c3 -5 2 -12 -3 -15
-5 -3 -9 1 -9 9 0 17 3 19 12 6z m51 -3 c3 -4 -1 -5 -10 -4 -8 1 -18 5 -22 8
-3 4 1 5 10 4 8 -1 18 -5 22 -8z m-31 -58 c3 -5 1 -10 -4 -10 -6 0 -11 5 -11
10 0 6 2 10 4 10 3 0 8 -4 11 -10z m-34 -17 c13 -16 12 -17 -3 -4 -17 13 -22
21 -14 21 2 0 10 -8 17 -17z m-86 -32 c3 -5 2 -12 -3 -15 -5 -3 -9 1 -9 9 0
17 3 19 12 6z m10 -31 c-3 -5 -12 -10 -18 -10 -7 0 -6 4 3 10 19 12 23 12 15
0z m105 -15 c0 -2 -6 -8 -13 -14 -10 -8 -14 -7 -14 2 0 8 6 14 14 14 7 0 13
-1 13 -2z m-105 -25 c3 -6 -1 -7 -9 -4 -18 7 -21 14 -7 14 6 0 13 -4 16 -10z
m35 0 c0 -5 -2 -10 -4 -10 -3 0 -8 5 -11 10 -3 6 -1 10 4 10 6 0 11 -4 11 -10z
m75 -40 c3 -5 1 -10 -4 -10 -6 0 -11 5 -11 10 0 6 2 10 4 10 3 0 8 -4 11 -10z
m-171 -18 c3 -5 -1 -9 -9 -9 -8 0 -12 4 -9 9 3 4 7 8 9 8 2 0 6 -4 9 -8z m-10
-48 c3 -8 2 -12 -4 -9 -6 3 -10 10 -10 16 0 14 7 11 14 -7z"/>
<path d="M1565 3561 c-40 -9 -14 -18 45 -16 30 1 49 -3 56 -13 10 -14 13 -13
23 6 10 18 9 22 -4 22 -10 0 -14 -5 -10 -12 4 -7 0 -5 -8 4 -10 13 -16 15 -25
6 -9 -9 -12 -9 -12 2 0 11 -3 11 -12 2 -15 -15 -32 -16 -23 -2 3 6 5 9 3 9 -2
-1 -16 -4 -33 -8z"/>
<path d="M1697 3539 c-16 -28 -19 -30 -35 -17 -10 9 -37 14 -67 14 l-50 -1 0
-358 c-1 -197 3 -361 7 -363 13 -8 27 6 22 21 -4 8 -11 12 -18 8 -6 -4 -5 1 2
10 8 9 23 19 34 23 16 5 18 8 7 15 -20 12 -31 11 -23 -3 4 -6 3 -8 -4 -4 -5 3
-13 0 -15 -6 -4 -9 -6 -10 -6 -1 -1 6 4 15 9 18 15 9 12 27 -2 19 -10 -6 -10
-4 0 7 15 16 16 33 0 23 -7 -4 -8 -3 -4 5 4 6 12 9 17 6 5 -4 9 -1 9 4 0 6 -8
11 -17 11 -10 0 -14 4 -8 8 12 9 20 46 8 39 -5 -3 -9 4 -10 16 0 12 1 16 4 9
3 -6 9 -10 13 -7 5 3 14 -4 20 -15 9 -17 14 -19 26 -9 8 6 14 19 14 27 0 13
-3 12 -16 -4 -8 -10 -13 -14 -10 -7 4 6 -2 14 -13 18 -11 3 -25 13 -33 22 -9
12 -9 15 0 9 6 -4 12 -3 12 3 0 5 -3 11 -7 14 -5 2 -2 2 5 1 14 -4 15 5 2 26
-8 12 -10 12 -10 1 0 -8 -3 -11 -6 -8 -4 4 -1 13 6 22 7 8 8 15 3 15 -5 0 -10
7 -10 15 0 8 5 11 10 8 6 -4 8 1 4 11 -4 10 -3 15 3 11 6 -3 10 -1 10 4 0 6
-8 11 -17 11 -10 0 -14 4 -8 8 15 11 19 46 4 36 -8 -4 -10 -3 -5 5 4 6 13 8
19 4 7 -3 4 3 -6 14 -13 15 -15 23 -7 28 9 6 9 10 -1 16 -12 7 -12 9 0 9 11 0
11 3 0 17 -10 11 -10 14 -1 9 6 -4 12 -2 12 3 0 6 -5 11 -12 11 -9 0 -9 3 0
12 7 7 12 17 12 23 0 5 -5 3 -10 -5 -7 -12 -9 -10 -7 8 0 12 5 22 9 22 4 0 8
5 8 11 0 5 -4 7 -10 4 -5 -3 -10 -1 -10 5 0 7 6 10 13 7 6 -2 11 -13 10 -24
-2 -15 4 -19 28 -19 16 0 28 4 26 10 -2 6 -12 10 -21 8 -14 -3 -16 1 -11 18 4
11 3 20 -2 19 -21 -4 -43 2 -43 11 0 11 22 9 31 -3 3 -5 13 7 22 25 9 18 17
27 17 19 0 -11 3 -11 17 0 16 13 16 13 0 -11 -21 -30 -21 -37 -2 -37 8 0 14 7
13 16 -2 11 7 16 35 17 21 1 44 7 50 14 10 10 7 12 -10 7 -29 -6 -29 -1 -2 13
15 9 24 8 35 -1 11 -9 14 -9 14 2 0 11 2 11 10 -1 5 -9 5 -19 -2 -27 -7 -9 -7
-13 0 -13 18 0 34 37 19 44 -6 3 -2 3 10 0 17 -4 21 -2 18 9 -6 13 -39 17 -51
5 -3 -4 -17 -3 -31 3 -13 5 -25 9 -26 9 -1 0 -10 -14 -20 -31z m-103 -30 c-3
-5 -10 -7 -15 -4 -5 4 -9 1 -9 -5 0 -6 -5 -8 -11 -5 -6 5 -4 12 8 20 19 14 37
10 27 -6z"/>
<path d="M1837 3563 c-4 -3 1 -12 11 -19 22 -17 35 -18 26 -1 -4 6 2 4 13 -6
20 -17 21 -17 21 7 0 17 -4 23 -12 18 -15 -9 -29 -10 -42 0 -6 4 -14 5 -17 1z"/>
<path d="M1925 3554 c-9 -7 -12 -15 -6 -18 5 -3 11 -1 13 6 3 8 7 6 11 -5 3
-9 1 -19 -5 -23 -7 -5 -8 -2 -3 5 6 10 3 11 -12 2 -14 -7 -24 -7 -33 2 -10 9
-11 9 -6 0 10 -18 -4 -16 -24 2 -18 16 -50 11 -50 -8 0 -7 4 -7 12 1 13 13 29
16 27 5 -4 -22 4 -29 31 -29 17 0 30 4 30 8 0 5 9 7 19 3 24 -7 50 29 28 39
-6 3 -2 3 10 0 17 -4 21 -2 18 8 -7 17 -38 18 -60 2z"/>
<path d="M1997 3563 c-4 -3 1 -12 11 -19 22 -17 35 -18 26 -1 -4 6 2 4 13 -6
20 -17 21 -17 21 7 0 17 -4 23 -12 18 -15 -9 -29 -10 -42 0 -6 4 -14 5 -17 1z"/>
<path d="M2081 3556 c-9 -10 -8 -15 4 -20 8 -3 15 0 15 7 0 7 3 8 8 2 10 -14
32 -17 32 -5 0 5 12 -3 27 -18 15 -15 27 -32 25 -38 -1 -6 5 -11 13 -11 23 0
18 16 -15 47 l-30 28 25 -3 c34 -3 42 11 10 18 -14 2 -28 0 -31 -5 -4 -6 -10
-5 -15 3 -6 9 -9 10 -9 2 0 -12 -17 -12 -36 0 -7 4 -17 1 -23 -7z"/>
<path d="M2230 3557 c0 -15 -11 -22 -33 -18 -4 1 2 -12 14 -28 16 -22 19 -33
11 -48 -8 -14 -8 -20 1 -20 7 0 12 17 13 44 0 26 -3 39 -7 31 -6 -9 -9 -9 -9
-1 0 20 18 24 28 7 9 -15 10 -15 17 5 3 11 11 19 16 16 5 -4 9 -1 9 5 0 7 -6
10 -14 7 -8 -3 -17 -3 -19 1 -2 4 -2 0 0 -8 2 -10 -2 -8 -12 4 -13 17 -15 18
-15 3z"/>
<path d="M1743 3533 c11 -17 -32 -43 -66 -39 -21 3 -25 0 -17 -9 12 -14 27
-14 49 -1 10 7 12 6 6 -4 -6 -10 -4 -12 9 -7 11 5 15 3 10 -5 -5 -8 -2 -9 10
-5 10 4 21 7 24 7 4 0 0 5 -8 10 -9 6 -10 10 -3 10 19 0 26 -20 9 -26 -9 -3
-13 -11 -9 -17 3 -5 1 -7 -4 -4 -6 4 -13 0 -17 -8 -3 -8 -1 -15 4 -15 14 0 50
42 50 58 0 8 6 12 14 9 8 -3 20 1 27 9 10 12 8 14 -12 10 -13 -3 -24 -5 -24
-6 0 -1 -15 -3 -32 -5 -18 -1 -30 1 -27 6 3 5 11 9 19 9 8 0 17 6 21 13 4 6 4
9 -1 5 -4 -4 -15 -2 -23 5 -12 9 -14 9 -9 0z"/>
<path d="M1983 3533 c-7 -2 -13 -10 -13 -16 0 -8 4 -7 12 1 13 13 29 16 27 5
-4 -23 4 -30 29 -29 15 0 30 5 33 10 6 8 24 9 75 4 15 -1 14 -3 -2 -15 -10 -7
-16 -13 -13 -14 2 0 12 -2 21 -4 9 -2 22 3 29 11 10 12 9 13 -6 8 -12 -5 -16
-4 -11 4 3 6 1 14 -6 19 -18 10 -78 11 -84 1 -3 -5 -13 -3 -22 4 -12 10 -14
10 -8 1 10 -18 -9 -16 -24 2 -13 16 -17 17 -37 8z"/>
<path d="M2266 3514 c-3 -8 -10 -13 -15 -10 -7 5 -8 -21 -2 -69 1 -5 6 -3 11
5 13 20 13 33 0 25 -6 -4 -5 4 1 19 7 14 16 23 20 20 5 -3 9 2 9 10 0 21 -16
21 -24 0z"/>
<path d="M1013 3495 c0 -8 5 -15 11 -15 6 0 4 -5 -4 -10 -12 -8 -13 -11 -1
-19 11 -7 11 -9 0 -14 -12 -5 -12 -6 0 -6 10 -1 11 -4 2 -15 -8 -10 -9 -16 -1
-21 5 -3 10 -12 10 -18 0 -7 -4 -6 -10 3 -8 12 -10 10 -10 -8 0 -16 4 -21 13
-16 10 6 10 4 0 -7 -15 -16 -17 -33 -3 -24 6 3 10 2 10 -4 0 -5 -6 -12 -12
-14 -10 -4 -9 -8 2 -16 13 -9 13 -11 1 -11 -11 0 -9 -4 5 -15 16 -13 16 -14 2
-9 -12 4 -18 1 -18 -10 0 -9 5 -16 11 -16 8 0 8 -4 0 -14 -8 -10 -8 -16 2 -25
8 -6 18 -7 22 -3 5 4 5 1 1 -6 -6 -10 -11 -10 -21 -2 -11 9 -13 2 -12 -38 1
-28 6 -48 10 -45 5 3 4 -4 -2 -15 -6 -11 -11 -23 -11 -26 0 -2 104 -5 230 -5
l231 1 -2 64 c-1 35 -6 64 -11 64 -5 0 -2 7 7 16 12 12 13 19 5 24 -9 6 -9 9
-1 14 6 4 8 12 5 18 -4 5 -6 65 -5 133 l1 122 -45 0 c-25 0 -48 -4 -51 -8 -3
-5 -11 -9 -17 -9 -7 0 -6 4 3 10 12 8 11 10 -7 10 -13 0 -23 -6 -23 -12 0 -9
-3 -9 -8 -3 -8 12 -96 14 -108 3 -4 -5 -12 -8 -18 -8 -6 0 -4 5 4 10 12 8 11
10 -7 10 -13 0 -23 -6 -23 -12 0 -8 -3 -9 -8 -3 -11 15 -106 19 -96 4 5 -8 3
-9 -7 -3 -24 15 -46 14 -46 -1z m257 -15 c0 -5 -5 -10 -11 -10 -5 0 -7 5 -4
10 3 6 8 10 11 10 2 0 4 -4 4 -10z m160 0 c0 -5 -5 -10 -11 -10 -5 0 -7 5 -4
10 3 6 8 10 11 10 2 0 4 -4 4 -10z m-264 -35 c-1 -8 -5 -17 -8 -21 -5 -4 -4
16 1 34 3 9 9 -1 7 -13z m289 -5 c3 -6 -1 -7 -9 -4 -18 7 -21 14 -7 14 6 0 13
-4 16 -10z m-165 -24 c0 -2 -6 -9 -14 -15 -11 -9 -16 -9 -22 0 -4 7 -3 9 4 5
6 -3 13 -2 17 4 6 10 15 14 15 6z m-109 -29 c-10 -9 -11 -8 -5 6 3 10 9 15 12
12 3 -3 0 -11 -7 -18z m185 11 c3 -4 -1 -5 -10 -4 -8 1 -18 5 -22 8 -3 4 1 5
10 4 8 -1 18 -5 22 -8z m0 -53 c-1 -8 -8 -21 -16 -28 -10 -10 -11 -9 -4 3 5 8
9 18 10 23 3 14 4 17 8 17 2 0 3 -7 2 -15z m-241 -13 c-3 -3 -11 0 -18 7 -9
10 -8 11 6 5 10 -3 15 -9 12 -12z m205 14 c0 -2 -7 -7 -16 -10 -8 -3 -12 -2
-9 4 6 10 25 14 25 6z m-260 -22 c0 -8 -19 -13 -24 -6 -3 5 1 9 9 9 8 0 15 -2
15 -3z m129 -8 c9 -11 9 -16 -1 -22 -7 -4 -10 -4 -6 1 4 4 3 14 -3 22 -6 7 -9
13 -6 13 2 0 10 -6 16 -14z m-74 -46 c1 -16 -1 -27 -4 -24 -3 3 -6 19 -7 35
-1 16 1 27 4 24 3 -3 6 -19 7 -35z m302 5 c0 -8 -4 -12 -9 -9 -4 3 -8 9 -8 15
0 5 4 9 8 9 5 0 9 -7 9 -15z m-252 -15 c3 -6 -1 -7 -9 -4 -18 7 -21 14 -7 14
6 0 13 -4 16 -10z m35 0 c0 -5 -2 -10 -4 -10 -3 0 -8 5 -11 10 -3 6 -1 10 4
10 6 0 11 -4 11 -10z m237 -25 c0 -8 -4 -12 -9 -9 -5 3 -6 10 -3 15 9 13 12
11 12 -6z m-41 -20 c-1 -8 -5 -17 -8 -21 -5 -4 -4 16 1 34 3 9 9 -1 7 -13z
m-64 -10 c3 0 9 -3 13 -7 4 -3 0 -5 -9 -4 -9 1 -22 8 -29 16 -10 10 -9 11 3 4
8 -5 18 -9 22 -9z m-252 -19 c0 -2 -7 -7 -16 -10 -8 -3 -12 -2 -9 4 6 10 25
14 25 6z m125 -6 c-3 -5 -12 -10 -18 -10 -7 0 -6 4 3 10 19 12 23 12 15 0z
m72 -14 c0 -15 -21 -16 -34 -1 -4 4 -3 5 4 1 6 -3 14 -2 18 4 8 14 12 13 12
-4z m-80 -23 c-4 -3 -2 -11 3 -18 7 -8 5 -12 -4 -12 -8 0 -12 7 -11 16 5 22 4
21 12 21 3 0 3 -3 0 -7z m61 -28 c-3 -3 -9 2 -12 12 -6 14 -5 15 5 6 7 -7 10
-15 7 -18z m-198 9 c0 -8 -19 -13 -24 -6 -3 5 1 9 9 9 8 0 15 -2 15 -3z m97
-19 c0 -8 -4 -12 -9 -9 -5 3 -6 10 -3 15 9 13 12 11 12 -6z m163 1 c0 -2 -7
-7 -16 -10 -8 -3 -12 -2 -9 4 6 10 25 14 25 6z m-249 -39 c-10 -9 -11 -8 -5 6
3 10 9 15 12 12 3 -3 0 -11 -7 -18z m160 0 c-10 -9 -11 -8 -5 6 3 10 9 15 12
12 3 -3 0 -11 -7 -18z m93 15 c3 -5 -1 -9 -9 -9 -8 0 -12 4 -9 9 3 4 7 8 9 8
2 0 6 -4 9 -8z m67 -15 c-10 -9 -11 -8 -5 6 3 10 9 15 12 12 3 -3 0 -11 -7
-18z"/>
<path d="M1953 3498 c-2 -5 -12 -7 -20 -6 -9 2 -18 -3 -20 -9 -3 -7 0 -13 7
-13 6 0 8 5 4 12 -5 7 -3 8 5 3 18 -10 -2 -27 -22 -19 -9 3 -15 9 -13 13 3 4
-4 7 -14 7 -11 0 -17 -2 -14 -5 2 -3 -4 -10 -15 -16 l-21 -10 21 -13 c17 -11
20 -11 17 5 -2 11 3 18 12 18 8 0 15 -5 15 -12 0 -6 3 -15 8 -19 4 -4 7 -2 7
4 0 7 5 11 12 10 7 -2 17 7 23 20 5 12 15 20 22 18 6 -3 17 1 23 9 9 11 7 14
-10 12 -12 -1 -24 -5 -27 -9z"/>
<path d="M2105 3493 c4 -10 8 -23 8 -30 0 -7 5 -9 10 -6 6 3 7 2 4 -3 -3 -6 3
-10 13 -11 11 -1 22 2 25 8 4 5 12 9 18 9 8 0 8 -3 -1 -9 -8 -4 -13 -11 -13
-15 1 -3 1 -7 0 -8 0 -2 -2 -21 -4 -42 -2 -26 0 -35 6 -25 8 12 10 12 18 0 5
-8 11 -9 15 -3 3 5 0 12 -7 15 -8 3 -13 16 -11 29 1 12 3 28 3 33 1 6 7 3 14
-5 7 -8 19 -16 27 -18 8 -2 18 -8 21 -14 4 -6 10 -1 14 11 3 12 11 19 16 16 5
-4 9 1 9 9 0 21 -16 21 -24 1 -4 -12 -10 -13 -23 -6 -10 5 -22 11 -28 13 -5 1
-9 8 -7 14 1 6 -11 10 -28 10 -16 0 -30 -4 -30 -10 0 -6 -7 -2 -15 8 -8 10
-12 22 -10 26 3 5 -2 11 -11 14 -12 5 -15 2 -9 -11z"/>
<path d="M2411 3280 l-1 -230 232 0 233 0 -1 223 c-1 122 -2 225 -3 230 0 4
-104 7 -230 7 l-229 0 -1 -230z"/>
<path d="M1609 3498 c-6 -11 -3 -56 2 -52 4 2 11 -1 14 -6 5 -7 12 -5 20 7 10
14 16 15 28 5 8 -7 20 -11 27 -10 7 2 14 -5 15 -16 3 -14 1 -16 -8 -7 -20 20
-31 12 -12 -9 14 -16 20 -17 27 -8 6 10 8 10 8 -1 0 -10 3 -11 14 -2 10 8 16
9 21 1 3 -6 11 -7 17 -4 6 4 5 10 -3 15 -11 7 -9 10 7 15 12 3 27 16 34 30 7
13 17 21 22 18 4 -3 8 0 8 5 0 14 -17 14 -25 1 -4 -6 -12 -7 -18 -4 -7 4 -9 4
-5 0 9 -11 -51 -68 -65 -63 -7 2 -11 14 -9 27 2 14 0 20 -7 16 -6 -4 -11 -1
-11 6 0 9 -3 9 -10 -2 -5 -8 -10 -10 -10 -4 0 6 -13 10 -30 10 -16 0 -30 -4
-30 -10 0 -6 -5 -3 -11 7 -5 9 -7 22 -4 27 3 6 4 10 1 10 -3 0 -7 -1 -7 -2z"/>
<path d="M2074 3489 c-3 -6 0 -15 7 -20 23 -14 30 -10 19 11 -12 23 -16 24
-26 9z"/>
<path d="M1985 3480 c-4 -6 -11 -7 -17 -4 -6 4 -8 3 -5 -2 3 -6 -8 -19 -24
-29 -29 -20 -37 -35 -19 -35 6 0 10 6 10 13 0 7 3 8 8 2 11 -15 35 -17 29 -3
-2 7 -10 12 -16 10 -7 -1 -10 2 -6 8 3 6 10 8 15 5 5 -3 15 4 23 15 7 11 17
17 20 13 4 -3 7 -1 7 5 0 15 -17 16 -25 2z"/>
<path d="M2025 3481 c3 -2 -7 -11 -21 -20 -26 -16 -44 -71 -23 -71 6 0 7 5 3
12 -4 6 -3 8 4 4 6 -3 13 -2 17 4 3 5 0 10 -7 11 -7 0 -3 4 10 10 13 5 21 13
17 18 -7 13 12 24 27 15 7 -5 5 -11 -7 -21 -16 -11 -17 -13 -3 -13 9 0 20 5
23 10 3 6 12 10 18 10 8 0 8 -3 -1 -9 -18 -11 8 -22 39 -16 17 4 20 2 11 -7
-19 -19 -14 -32 6 -17 15 13 16 12 3 -3 -7 -10 -18 -15 -24 -11 -7 4 -8 0 -4
-11 4 -10 7 -20 7 -24 0 -3 7 3 16 14 8 10 13 14 10 7 -9 -18 5 -45 20 -39 8
3 13 2 13 -2 -3 -21 3 -24 15 -6 14 18 15 18 22 1 5 -15 9 -16 15 -5 8 11 10
11 18 0 6 -11 10 -10 15 3 9 23 9 24 -17 21 -16 -2 -23 2 -23 16 0 22 1 22 20
3 13 -13 15 -13 21 5 4 11 11 18 16 15 5 -4 9 1 9 9 0 20 -10 20 -25 0 -10
-15 -13 -15 -28 1 -12 11 -17 12 -17 4 0 -8 -5 -6 -13 5 -12 16 -13 16 -13 -3
0 -11 3 -18 7 -15 4 2 10 -4 13 -13 8 -20 -6 -30 -37 -28 -18 1 -22 8 -23 36
0 19 3 39 7 45 5 6 0 10 -14 10 -25 0 -98 34 -92 44 2 3 -5 6 -15 6 -11 0 -17
-2 -15 -5z m-15 -35 c0 -2 -7 -7 -16 -10 -8 -3 -12 -2 -9 4 6 10 25 14 25 6z"/>
<path d="M2270 3481 c0 -6 5 -13 10 -16 6 -3 10 1 10 9 0 9 -4 16 -10 16 -5 0
-10 -4 -10 -9z"/>
<path d="M1641 3419 c-10 -23 -16 -28 -22 -18 -5 9 -9 10 -9 3 0 -7 -7 -14
-14 -17 -11 -4 -13 -1 -9 11 3 9 2 14 -2 10 -13 -12 -14 -69 -1 -65 6 3 10 10
9 16 -3 10 10 15 30 12 4 0 7 3 7 7 0 5 6 16 13 27 13 17 14 16 12 -5 -1 -13
-7 -26 -13 -28 -7 -2 -10 -8 -6 -13 3 -5 12 -2 20 6 9 8 20 13 25 10 5 -4 9 0
9 7 1 7 7 2 15 -12 8 -14 14 -22 15 -18 0 3 3 14 7 24 4 11 2 15 -4 11 -11 -7
-60 40 -55 51 2 4 0 8 -5 9 -4 2 -14 -11 -22 -28z m44 -19 c3 -5 1 -10 -4 -10
-6 0 -11 5 -11 10 0 6 2 10 4 10 3 0 8 -4 11 -10z"/>
<path d="M1808 3428 c-10 -10 -15 -18 -12 -18 4 0 1 -7 -6 -15 -7 -9 -10 -18
-6 -22 3 -3 6 -2 6 4 0 6 7 14 16 17 8 3 12 2 9 -4 -3 -6 -2 -10 4 -10 18 0
23 20 7 26 -20 8 -11 24 12 23 11 0 12 -2 4 -6 -6 -2 -10 -9 -6 -14 6 -11 24
-2 24 11 0 5 -8 13 -17 18 -13 6 -23 3 -35 -10z"/>
<path d="M1852 3400 c-22 -26 -28 -41 -21 -46 8 -5 9 -3 4 6 -5 8 -4 11 3 6 6
-4 9 -12 6 -19 -3 -8 6 -13 23 -15 25 -2 26 -1 8 11 -10 8 -15 19 -11 25 3 5
2 12 -2 14 -5 1 -1 11 8 21 14 14 20 15 26 6 5 -8 3 -10 -6 -4 -8 5 -11 3 -8
-5 8 -26 36 -36 59 -22 15 10 19 10 14 1 -5 -7 -4 -10 3 -5 19 12 26 -17 7
-31 -18 -12 -17 -13 7 -11 22 2 26 7 25 28 -2 19 2 24 17 22 10 -2 15 1 11 7
-3 6 0 9 8 5 8 -3 14 1 14 10 0 8 -7 18 -16 21 -8 3 -12 3 -9 -1 4 -4 -4 -16
-19 -27 -23 -18 -27 -19 -37 -5 -6 8 -20 14 -31 12 -11 -2 -27 5 -35 16 -14
19 -16 18 -48 -20z m78 -14 c-7 -7 -13 -7 -20 0 -6 6 -3 10 10 10 13 0 16 -4
10 -10z"/>
<path d="M2064 3421 c4 -6 3 -11 -1 -11 -5 0 -9 -10 -10 -21 l-2 -22 15 22
c14 20 41 21 28 0 -3 -5 -9 -7 -13 -5 -4 3 -12 -4 -19 -14 -10 -16 -8 -18 8
-17 11 1 20 6 20 12 1 5 7 -1 14 -14 8 -14 12 -30 9 -37 -3 -8 4 -11 22 -10
17 2 31 -4 40 -18 13 -17 15 -18 15 -3 0 21 19 23 26 2 4 -8 10 -12 15 -9 5 3
6 11 3 17 -4 7 -3 8 2 4 5 -5 9 -14 9 -19 0 -6 6 -13 14 -16 8 -3 11 0 7 6 -8
14 4 43 15 36 5 -3 9 2 9 10 0 19 -17 21 -22 4 -7 -21 -88 -15 -114 8 -12 12
-25 20 -28 17 -2 -3 -9 5 -16 16 -8 16 -8 27 1 42 7 15 8 19 0 15 -6 -4 -20
-2 -32 5 -15 8 -19 8 -15 0z"/>
<path d="M1734 3368 c-16 -30 -17 -31 -30 -13 -16 21 -19 8 -4 -15 5 -9 5 -19
-1 -27 -8 -9 -5 -11 10 -10 12 1 20 6 17 12 -2 5 3 22 11 38 14 27 27 38 17
14 -2 -7 4 -13 16 -14 19 -2 19 0 4 23 -9 13 -18 24 -20 24 -2 0 -11 -14 -20
-32z"/>
<path d="M1873 3369 c-2 -19 0 -20 7 -9 8 13 10 13 10 -1 0 -27 27 -44 45 -29
8 7 15 20 15 28 0 13 -3 12 -15 -4 -14 -18 -15 -18 -37 9 -23 29 -24 29 -25 6z"/>
<path d="M1799 3378 c-1 -5 -2 -14 -3 -20 -1 -7 -13 -13 -29 -12 -15 1 -27 -3
-27 -7 0 -5 -1 -12 -2 -16 -2 -3 7 -8 20 -10 14 -2 21 1 17 7 -6 9 8 14 28 11
4 0 7 5 7 12 1 6 7 1 15 -13 8 -14 14 -20 15 -15 0 12 -39 73 -41 63z"/>
<path d="M2004 3344 c0 -19 1 -32 4 -29 8 7 11 55 4 59 -4 2 -7 -11 -8 -30z"/>
<path d="M2029 3369 c-1 -8 -1 -18 0 -22 1 -4 -4 -17 -10 -29 -11 -21 -12 -21
-25 -3 -8 10 -14 14 -14 9 0 -6 -7 -11 -15 -11 -8 0 -15 5 -15 10 0 5 -7 4
-15 -3 -12 -10 -18 -10 -30 0 -8 7 -15 8 -15 3 0 -5 -7 -10 -15 -10 -8 0 -15
5 -15 11 0 5 -6 1 -14 -10 -13 -16 -15 -17 -21 -3 -7 19 -32 21 -39 2 -4 -9
-1 -12 7 -7 9 5 9 4 0 -6 -9 -10 -15 -10 -26 -2 -8 7 -16 9 -19 6 -3 -2 -17
-7 -31 -10 -26 -4 -45 10 -28 21 7 4 6 14 -1 30 -9 20 -13 22 -25 10 -14 -14
-43 -10 -43 6 0 4 -10 -2 -23 -14 -13 -12 -22 -25 -20 -29 2 -4 -1 -9 -7 -13
-6 -4 -5 -12 5 -21 17 -18 19 -30 5 -39 -7 -4 -7 -13 0 -26 7 -13 7 -25 0 -38
-13 -25 -13 -31 1 -31 5 0 7 5 3 12 -4 7 -3 8 4 4 6 -3 16 3 22 14 6 11 15 18
19 15 5 -3 12 2 15 11 9 25 8 25 -17 9 -29 -19 -43 -8 -20 17 12 13 13 18 3
18 -7 0 -10 3 -7 7 4 3 0 14 -9 24 -10 11 -12 19 -4 24 5 3 8 11 5 16 -4 5 -1
9 4 9 6 0 11 -5 11 -12 0 -6 6 -3 14 8 14 18 15 18 21 2 4 -10 11 -15 16 -12
5 3 7 9 4 14 -3 5 0 12 6 16 8 4 9 3 5 -4 -4 -7 -2 -12 6 -12 7 0 2 -7 -10
-16 -12 -8 -22 -23 -22 -32 1 -15 2 -15 11 1 13 21 32 12 24 -12 -3 -12 0 -18
10 -18 9 0 14 6 11 13 -3 8 0 16 6 20 7 4 8 3 4 -4 -4 -7 -2 -12 3 -12 6 0 11
5 11 11 0 8 5 8 15 -1 12 -10 15 -10 15 0 0 10 3 10 14 1 11 -10 17 -7 30 10
l15 23 9 -24 c7 -20 10 -21 15 -6 4 10 11 14 17 11 5 -3 10 -1 10 6 0 10 3 10
12 1 13 -13 32 -16 24 -4 -2 4 4 8 14 8 10 0 16 -4 14 -8 -8 -12 11 -9 24 4 9
9 12 9 12 -1 0 -7 4 -10 9 -6 6 3 14 -3 20 -12 9 -16 10 -16 11 -1 0 9 5 20
10 23 18 11 11 -14 -9 -34 -19 -19 -19 -20 19 -18 30 1 38 5 37 19 -1 10 -7
20 -14 22 -7 3 -10 12 -6 22 5 13 3 15 -7 9 -8 -5 -11 -4 -6 3 4 6 13 9 21 6
8 -4 12 -10 9 -15 -3 -5 3 -8 13 -6 35 5 31 34 -4 33 -15 -1 -28 4 -28 11 0
17 -15 29 -16 12z m16 -89 c3 -5 1 -10 -4 -10 -6 0 -11 5 -11 10 0 6 2 10 4
10 3 0 8 -4 11 -10z"/>
<path d="M2270 3361 c0 -6 5 -13 10 -16 6 -3 10 1 10 9 0 9 -4 16 -10 16 -5 0
-10 -4 -10 -9z"/>
<path d="M1594 3299 c-2 -4 8 -17 23 -29 16 -12 22 -18 14 -14 -10 5 -12 3 -7
-5 5 -7 0 -19 -10 -28 -16 -13 -14 -12 8 1 16 9 29 12 33 6 9 -14 -14 -52 -26
-44 -8 4 -8 0 0 -13 6 -11 8 -23 5 -25 -3 -3 2 -8 11 -11 17 -7 19 1 5 23 -7
11 -4 20 13 33 12 10 16 15 8 11 -10 -5 -12 -3 -6 6 4 7 9 29 11 48 2 25 0 31
-6 22 -5 -8 -7 -24 -4 -35 2 -11 -4 -5 -14 13 -10 18 -20 31 -23 30 -2 -2 2 3
10 10 13 10 10 12 -13 10 -15 -1 -30 -6 -32 -9z"/>
<path d="M2079 3308 c-6 -27 -5 -38 8 -42 8 -3 12 -10 8 -15 -3 -5 -1 -12 4
-15 5 -3 12 1 15 9 3 9 -1 18 -9 21 -8 4 -12 11 -9 16 4 6 10 5 15 -3 7 -12 9
-12 9 0 0 10 3 11 14 2 10 -8 16 -9 19 -1 3 6 4 5 3 -2 -2 -7 -11 -12 -20 -10
-15 3 -15 0 -4 -17 11 -17 14 -18 21 -6 4 9 12 13 17 10 6 -4 6 3 1 16 -5 16
-17 23 -37 24 -17 1 -35 5 -42 9 -7 4 -12 6 -13 4z"/>
<path d="M1802 3277 c-7 -8 -24 -13 -40 -11 -20 3 -33 -4 -50 -24 -18 -21 -21
-23 -17 -7 6 18 5 18 -5 2 -6 -9 -9 -21 -5 -26 3 -5 -4 -16 -15 -24 -17 -12
-18 -16 -6 -32 13 -18 14 -18 12 5 -1 19 3 24 18 22 10 -2 15 1 12 7 -6 9 19
71 28 71 2 0 2 -12 0 -26 -1 -16 2 -24 9 -21 7 2 11 11 9 20 -3 18 14 32 23
18 3 -6 12 -8 20 -5 8 4 12 11 9 16 -4 6 4 5 16 -2 18 -10 24 -9 31 1 14 23
10 34 -5 14 -12 -17 -14 -17 -23 -1 -8 15 -11 15 -21 3z"/>
<path d="M1861 3263 c-8 -18 -16 -23 -31 -18 -13 4 -20 2 -20 -7 1 -13 30 -58
30 -45 0 4 9 3 20 -3 10 -6 17 -16 14 -23 -3 -8 2 -14 11 -14 8 0 15 4 15 9 0
10 -37 47 -66 66 -17 11 -16 11 5 1 13 -6 21 -7 17 -1 -3 5 5 8 19 7 13 -2 26
3 29 11 6 17 2 17 -27 3 -20 -9 -20 -9 -5 4 10 8 14 18 10 22 -4 4 3 2 16 -4
12 -7 28 -9 35 -6 6 4 4 0 -5 -8 -20 -16 -24 -37 -7 -37 5 0 7 4 4 10 -4 6 1
7 12 3 10 -3 15 -3 11 2 -4 4 -3 14 2 20 12 15 -9 27 -51 30 -20 2 -30 -4 -38
-22z"/>
<path d="M1955 3280 c3 -5 8 -10 11 -10 2 0 4 5 4 10 0 6 -5 10 -11 10 -5 0
-7 -4 -4 -10z"/>
<path d="M1966 3263 c-18 -24 -18 -26 -2 -20 11 5 15 3 10 -5 -4 -6 -3 -8 3
-5 6 4 10 0 9 -9 0 -10 8 -18 21 -20 13 -2 22 1 20 7 -1 6 5 14 13 16 12 4 12
3 2 -5 -11 -7 -10 -10 3 -16 22 -8 22 -8 22 9 0 8 -4 15 -9 15 -5 0 -7 4 -4 8
2 4 -4 8 -14 8 -10 0 -16 -4 -14 -8 7 -11 -4 -10 -26 2 -12 6 -16 17 -13 30 7
26 2 25 -21 -7z"/>
<path d="M2192 3265 c-15 -32 -15 -32 3 -32 9 0 14 6 11 14 -3 8 -1 11 4 8 12
-7 13 5 2 23 -6 9 -12 5 -20 -13z"/>
<path d="M2273 3275 c9 -21 -11 -29 -30 -13 -12 9 -15 9 -9 1 4 -8 2 -13 -4
-13 -6 0 -8 -4 -5 -10 5 -9 -1 -12 -21 -9 -11 1 -22 -24 -17 -38 3 -7 9 -10
14 -7 5 3 7 9 4 14 -9 15 30 31 43 18 16 -16 15 4 0 22 -11 12 -10 12 4 2 13
-10 17 -10 20 0 3 7 5 -2 5 -20 0 -21 -3 -28 -9 -20 -4 7 -8 11 -9 8 0 -3 -2
-13 -4 -22 -3 -19 3 -22 21 -10 14 8 15 112 1 112 -5 0 -7 -7 -4 -15z"/>
<path d="M2078 3253 c0 -5 -1 -19 -2 -33 -1 -22 -5 -25 -44 -26 -32 0 -47 5
-57 19 -11 15 -17 17 -34 8 -14 -8 -27 -9 -40 -2 -28 15 -32 2 -9 -29 17 -23
18 -32 8 -51 -10 -21 -10 -22 3 -7 8 10 17 15 20 11 4 -3 7 -1 7 6 0 7 -7 19
-15 27 -8 9 -15 21 -15 27 0 7 5 4 11 -6 10 -16 12 -16 30 5 11 13 17 17 13 9
-5 -10 -3 -12 7 -6 12 7 12 6 1 -7 -10 -13 -10 -17 3 -22 8 -3 15 0 15 7 0 8
3 8 9 -2 7 -10 13 -11 30 -2 16 9 26 9 42 0 17 -9 20 -8 14 2 -5 7 -4 10 3 5
7 -4 10 1 7 14 -2 11 0 18 6 15 5 -4 7 -11 4 -16 -4 -5 -1 -9 4 -9 6 0 11 7
11 16 0 9 6 14 13 11 6 -2 11 -12 11 -21 -2 -19 7 -21 26 -3 12 10 12 9 2 -5
-11 -14 -9 -19 10 -32 24 -17 42 -21 34 -7 -3 5 5 20 19 35 13 14 20 28 16 30
-8 5 -33 -8 -32 -18 3 -21 -1 -27 -15 -22 -10 4 -13 2 -8 -7 4 -7 3 -8 -2 -4
-5 5 -10 18 -10 30 -4 62 -4 63 -14 47 -6 -9 -5 -17 3 -22 9 -6 9 -8 0 -8 -6
0 -15 5 -19 11 -3 6 -15 9 -25 6 -19 -5 -44 15 -32 26 3 4 3 7 0 7 -4 0 -8 -3
-9 -7z"/>
<path d="M1765 3237 c4 -8 1 -18 -4 -22 -6 -3 -9 -10 -6 -15 3 -4 -2 -10 -10
-14 -8 -3 -17 0 -21 6 -5 7 -2 8 6 3 9 -5 11 -4 6 3 -11 18 -27 14 -24 -5 2
-12 -3 -18 -14 -17 -11 1 -15 -5 -13 -17 5 -23 -23 -39 -50 -29 -11 4 -27 5
-35 3 -8 -2 -4 2 9 10 13 8 20 17 15 20 -5 3 -19 -3 -31 -13 -23 -18 -23 -18
-3 -42 11 -12 19 -18 20 -11 0 6 -3 13 -7 16 -5 2 -2 2 5 0 8 -1 10 2 6 9 -4
7 -3 8 4 4 6 -4 9 -12 6 -20 -3 -7 2 -13 11 -13 9 0 14 6 11 13 -3 8 4 11 24
8 25 -4 28 -2 26 20 -2 14 1 23 5 20 5 -3 9 0 9 6 0 7 6 10 13 7 18 -7 60 30
52 45 -4 7 -1 6 7 -3 7 -8 22 -19 33 -23 16 -6 17 -9 5 -16 -8 -6 -13 -10 -10
-11 3 0 13 -2 22 -4 9 -2 22 3 29 11 10 12 9 13 -6 8 -13 -5 -16 -4 -11 5 4 6
4 10 -1 9 -12 -4 -52 39 -45 49 4 4 3 5 -2 1 -5 -4 -15 -3 -23 4 -11 8 -12 7
-8 -5z"/>
<path d="M470 3050 l0 -180 179 0 178 0 -2 173 c-1 94 -3 175 -4 180 0 4 -80
7 -176 7 l-175 0 0 -180z"/>
<path d="M2101 3184 c-18 -18 -28 -21 -42 -13 -13 6 -25 6 -38 0 -18 -10 -40
-9 -74 4 -12 5 -16 3 -12 -7 3 -8 12 -15 20 -16 8 -1 22 -3 31 -4 15 -1 15 -2
0 -13 -19 -14 -21 -26 -4 -22 7 1 21 14 30 30 10 15 20 27 23 27 4 0 3 -5 -1
-12 -5 -8 -2 -9 10 -5 10 4 19 1 22 -8 8 -19 26 -20 22 -1 -2 8 2 15 7 15 6 0
9 -6 7 -13 -1 -7 4 -13 11 -13 9 0 14 13 14 39 0 21 -1 38 -1 37 -1 -1 -12
-12 -25 -25z"/>
<path d="M1785 3173 c4 -10 8 -23 8 -30 0 -7 5 -9 10 -6 6 3 7 2 4 -3 -3 -6 3
-10 13 -11 11 -1 22 2 25 8 4 5 12 9 18 9 8 0 8 -3 -1 -9 -8 -4 -13 -11 -13
-15 1 -3 1 -7 0 -8 0 -2 -2 -21 -4 -42 -2 -26 0 -35 6 -25 8 12 10 12 18 0 5
-8 11 -9 15 -3 3 5 0 12 -7 15 -8 3 -13 16 -11 29 1 12 3 28 3 33 1 6 7 3 14
-5 7 -8 21 -17 31 -18 18 -3 18 -2 6 15 -14 17 -14 17 6 1 37 -32 45 -22 35
42 -1 3 -5 -2 -11 -10 -6 -9 -5 -20 3 -30 11 -13 10 -13 -5 -1 -10 7 -15 18
-11 25 4 6 -4 3 -19 -6 -27 -18 -40 -15 -32 6 3 8 -6 12 -26 12 -16 0 -30 -4
-30 -10 0 -6 -7 -2 -15 8 -8 10 -12 22 -10 26 3 5 -2 11 -11 14 -12 5 -15 2
-9 -11z"/>
<path d="M2234 3174 c3 -8 2 -12 -3 -9 -5 3 -12 1 -16 -5 -6 -9 7 -14 28 -11
4 0 7 -4 7 -10 0 -5 4 -8 9 -4 5 3 13 0 17 -6 5 -8 3 -9 -6 -4 -9 5 -11 4 -6
-3 4 -7 2 -12 -5 -12 -7 0 -9 -3 -6 -6 3 -4 2 -15 -3 -25 -8 -14 -6 -21 10
-29 11 -6 18 -15 15 -21 -4 -5 -11 -6 -17 -3 -6 4 -8 1 -6 -7 3 -8 10 -13 15
-12 5 1 10 -5 10 -12 0 -12 -3 -12 -16 -2 -12 10 -14 9 -8 -5 4 -11 0 -21 -11
-27 -14 -9 -14 -10 -1 -11 8 0 20 5 25 10 7 7 11 6 11 -4 0 -8 -5 -12 -10 -9
-7 4 -7 -1 -2 -13 4 -10 8 -32 9 -49 0 -16 4 -33 9 -36 5 -4 4 -10 -2 -13 -6
-4 -11 -2 -11 4 0 6 -5 8 -10 5 -6 -4 -8 -10 -6 -14 3 -4 -1 -8 -9 -8 -17 0
-28 24 -15 32 6 4 15 3 21 -1 7 -4 10 -1 7 7 -3 8 -12 12 -19 10 -17 -4 -28
-4 -56 3 -16 3 -20 1 -16 -9 2 -8 8 -14 11 -13 19 2 32 -3 32 -14 0 -6 -3 -8
-6 -5 -4 3 -16 1 -27 -4 -24 -13 -42 8 -25 28 8 10 6 13 -10 10 -24 -3 -42
-17 -24 -17 7 0 12 -4 12 -8 0 -9 -8 -11 -55 -14 -14 -1 -25 -5 -25 -8 0 -3
49 -5 109 -5 108 0 150 12 134 38 -9 15 -10 157 -1 184 5 16 4 21 -6 17 -19
-7 -27 9 -14 26 8 12 9 12 4 -2 -8 -25 1 -22 15 3 7 13 7 19 1 15 -6 -3 -13
-2 -17 4 -3 5 -2 10 3 10 5 0 9 14 10 30 1 32 -7 37 -26 18 -9 -9 -12 -9 -13
3 -1 7 -1 17 0 22 0 4 -4 7 -10 7 -6 0 -8 -7 -5 -16z"/>
<path d="M1751 3166 c-7 -9 -17 -13 -22 -11 -11 7 -27 -25 -24 -47 4 -20 -3
-22 -25 -8 -9 6 -17 5 -22 -3 -11 -17 -10 -27 3 -27 5 0 8 4 5 8 -3 5 1 9 9 9
8 0 13 -5 12 -10 -1 -5 4 -12 12 -15 8 -3 11 0 7 7 -5 7 -1 9 9 5 17 -7 17 16
0 28 -6 4 -2 8 8 8 10 0 16 3 13 8 -2 4 2 15 9 25 8 12 15 14 20 8 3 -6 1 -11
-6 -11 -7 0 -10 -3 -6 -6 3 -3 13 -2 21 3 14 8 14 12 3 27 -12 16 -14 16 -26
2z"/>
<path d="M2139 3164 c-1 -5 -2 -16 -3 -24 0 -8 -7 -14 -13 -12 -7 1 -13 -2
-13 -8 0 -5 -5 -10 -11 -10 -5 0 -8 4 -5 8 2 4 -4 8 -15 8 -22 0 -21 1 -13
-20 3 -9 10 -16 16 -16 5 0 7 4 4 9 -3 4 11 7 31 5 22 -1 32 1 24 5 -10 7 -8
12 8 23 19 13 20 17 6 28 -8 7 -16 9 -16 4z"/>
<path d="M2012 3125 c-9 -19 -8 -23 1 -19 7 2 13 13 14 24 2 26 -1 25 -15 -5z"/>
<path d="M2040 3135 c-7 -8 -9 -15 -4 -15 5 0 0 -7 -10 -15 -13 -10 -23 -11
-31 -5 -8 7 -15 3 -23 -14 -9 -19 -8 -27 4 -37 13 -10 14 -8 10 15 -4 22 -2
25 12 17 11 -6 20 -4 30 7 11 15 12 14 3 -5 -14 -28 -14 -33 2 -27 8 3 14 10
15 17 1 7 3 27 5 45 4 37 4 37 -13 17z"/>
<path d="M2168 3132 c-29 -6 -21 -19 12 -20 17 0 30 4 30 9 0 5 5 9 11 9 5 0
7 -5 3 -12 -5 -7 -3 -8 5 -3 9 5 8 -1 -2 -21 -13 -26 -13 -30 2 -41 15 -12 15
-13 -1 -7 -10 3 -18 2 -18 -3 0 -5 9 -9 20 -10 20 -2 26 8 13 21 -10 9 -13 36
-4 36 9 0 12 40 3 41 -19 4 -59 4 -74 1z"/>
<path d="M1745 3108 c2 -10 1 -18 -3 -18 -4 0 -8 -9 -9 -20 -2 -20 -1 -20 17
2 10 13 14 25 9 29 -6 3 6 5 25 5 22 -1 32 -4 26 -10 -17 -17 -11 -29 8 -15
15 13 16 12 3 -3 -7 -10 -18 -15 -24 -11 -7 4 -8 0 -4 -11 4 -10 7 -20 7 -24
0 -3 7 3 16 14 8 10 13 14 10 7 -9 -18 5 -45 20 -39 8 3 13 2 13 -2 -3 -21 3
-24 15 -6 13 18 15 18 21 2 6 -15 9 -16 22 -3 8 9 19 13 24 10 12 -8 11 6 -1
25 -5 8 -10 10 -10 4 0 -7 -6 -14 -13 -17 -7 -3 -13 3 -13 13 0 11 6 16 14 12
12 -4 12 -2 1 17 -8 12 -16 16 -17 11 -3 -7 -9 -4 -16 5 -10 15 -12 14 -12 -4
0 -11 3 -18 7 -15 4 2 10 -4 13 -13 8 -20 -6 -30 -37 -28 -18 1 -22 8 -23 36
0 19 3 39 8 45 5 7 0 10 -15 9 -12 -1 -26 0 -32 4 -5 3 -20 6 -32 6 -15 1 -20
-4 -18 -17z"/>
<path d="M2167 3103 c-4 -3 -19 -8 -34 -9 -70 -9 -73 -10 -73 -32 0 -14 29
-10 34 4 3 8 12 11 22 7 13 -5 15 -3 9 8 -6 11 -4 11 8 -1 9 -8 17 -22 19 -30
3 -17 28 -39 44 -40 6 0 11 15 11 33 0 17 3 40 8 50 5 13 4 16 -9 11 -9 -3
-14 -9 -12 -13 3 -4 1 -13 -4 -21 -5 -8 -5 -22 1 -32 18 -34 1 -18 -21 19 -12
21 -15 32 -7 24 10 -8 17 -9 22 -1 3 5 1 10 -5 10 -6 0 -8 5 -5 10 7 11 2 13
-8 3z"/>
<path d="M1779 3090 c-9 -5 -24 -21 -33 -34 -15 -23 -15 -25 4 -23 11 1 20 6
20 12 1 5 7 -1 14 -14 8 -14 12 -30 9 -37 -3 -8 4 -11 22 -10 17 2 31 -4 40
-18 13 -17 15 -18 15 -3 0 21 13 22 30 2 7 -8 17 -15 23 -15 5 0 2 9 -9 21
-10 11 -26 18 -36 16 -9 -3 -28 5 -42 18 -14 13 -27 21 -30 18 -2 -3 -9 5 -16
16 -8 15 -8 27 0 41 12 23 11 23 -11 10z"/>
<path d="M1576 3074 c-4 -10 1 -11 22 -4 26 10 26 10 7 -6 -20 -16 -20 -16 3
-11 15 4 25 0 29 -10 5 -12 7 -12 14 -1 5 8 9 9 9 2 0 -7 -10 -19 -23 -27 -23
-15 -34 -51 -13 -44 6 2 10 11 8 21 -3 14 15 22 42 17 5 -1 6 5 3 13 -4 9 -1
18 5 22 7 5 8 2 3 -6 -5 -9 -4 -11 4 -6 17 11 -5 37 -25 29 -7 -3 -16 1 -19 9
-7 17 -62 20 -69 2z"/>
<path d="M1927 3083 c-4 -7 3 -19 15 -27 12 -9 18 -16 13 -16 -6 0 -3 -5 6
-10 10 -6 15 -20 13 -35 -1 -17 2 -25 9 -22 7 2 11 16 11 30 -1 15 2 24 7 22
4 -3 10 -1 13 4 8 13 -4 41 -17 41 -7 0 -7 -4 1 -12 17 -17 15 -25 -5 -25 -21
0 -44 27 -36 41 4 5 1 6 -5 2 -5 -3 -12 -1 -14 6 -3 9 -6 9 -11 1z"/>
<path d="M2106 3057 c4 -11 0 -15 -13 -13 -19 3 -42 -20 -43 -41 0 -7 5 -13
11 -13 5 0 8 4 4 10 -3 5 8 16 26 25 17 9 28 12 24 6 -3 -7 -3 -11 2 -10 19 3
33 -2 33 -12 0 -11 29 -38 41 -39 3 0 6 7 6 15 0 8 -2 13 -4 11 -7 -7 -47 37
-49 52 -3 19 -14 29 -14 12 0 -10 -3 -10 -15 0 -13 11 -14 10 -9 -3z"/>
<path d="M1697 3031 c-9 -16 -17 -33 -17 -38 1 -4 7 3 15 17 8 14 14 19 15 13
0 -7 3 -12 8 -12 19 3 33 -2 27 -11 -3 -6 2 -9 12 -7 35 5 31 34 -4 33 -15 -1
-28 4 -28 11 0 24 -12 21 -28 -6z"/>
<path d="M2017 3020 c-10 -16 -15 -30 -11 -30 3 0 1 -7 -6 -15 -7 -9 -20 -13
-28 -10 -8 3 -23 -2 -33 -11 -18 -16 -20 -16 -38 0 -16 15 -19 15 -24 2 -4 -9
-1 -18 5 -22 7 -5 8 -2 3 5 -6 10 -3 11 14 1 12 -6 19 -15 16 -21 -4 -5 -2 -9
3 -9 5 0 12 10 16 23 5 18 8 20 16 7 9 -14 14 -7 11 13 -1 4 8 3 19 -3 11 -6
18 -15 15 -19 -3 -5 2 -12 11 -15 25 -9 26 -8 8 19 -19 29 -17 34 16 40 17 3
19 1 11 -9 -6 -7 -8 -16 -4 -19 3 -4 13 2 20 13 8 11 19 18 24 15 5 -4 9 -2 9
3 0 6 -10 10 -22 11 -43 1 -57 4 -52 13 3 5 10 5 16 2 6 -4 8 -2 5 3 -4 6 0
13 8 17 18 7 20 26 2 26 -7 0 -21 -13 -30 -30z"/>
<path d="M2216 3013 c-3 -10 -6 -22 -7 -28 0 -5 -5 -15 -10 -21 -6 -8 -5 -13
4 -17 16 -6 15 -49 -1 -55 -7 -2 -12 1 -12 6 0 6 -6 9 -12 8 -26 -6 -48 -18
-48 -28 0 -7 5 -6 13 1 14 11 47 8 69 -5 7 -4 8 -3 4 4 -8 13 20 12 42 -1 7
-5 12 -4 12 2 0 10 -12 15 -30 13 -3 0 -7 8 -7 19 -1 10 2 19 8 19 5 0 8 -5 7
-11 -2 -6 3 -14 10 -16 11 -4 12 -1 3 15 -6 11 -20 24 -31 27 -11 3 -20 11
-20 16 0 6 5 7 10 4 6 -3 10 -1 10 5 0 6 5 8 12 4 7 -4 8 -3 4 5 -4 6 -11 9
-15 7 -4 -3 -8 1 -8 8 0 9 7 12 16 8 14 -5 14 -3 2 11 -17 21 -18 21 -25 0z"/>
<path d="M1946 2998 c-13 -19 -15 -20 -9 -3 6 17 5 18 -9 5 -12 -11 -13 -18
-5 -28 9 -11 13 -11 22 2 7 9 14 14 16 11 3 -2 5 5 5 15 0 25 0 25 -20 -2z"/>
<path d="M2080 3010 c-8 -5 -6 -9 5 -14 19 -7 15 -31 -6 -31 -8 0 -13 -8 -11
-17 1 -9 -3 -20 -9 -24 -8 -4 -9 -3 -5 4 5 8 2 10 -8 6 -15 -6 -21 6 -17 29 1
5 -3 5 -9 2 -8 -5 -6 -14 4 -30 10 -15 12 -26 6 -30 -14 -9 -52 14 -44 26 4 7
-1 7 -15 0 -11 -7 -21 -8 -21 -4 0 4 -6 -1 -13 -12 -14 -18 -43 -13 -31 6 3 6
0 10 -7 8 -27 -3 -36 1 -46 24 -8 16 -19 23 -35 22 -12 -1 -31 2 -40 6 -11 6
-19 5 -24 -3 -5 -7 -3 -8 6 -3 8 5 11 4 6 -3 -3 -6 -2 -13 4 -17 5 -3 10 -1
10 6 0 7 7 4 15 -7 9 -12 14 -14 15 -6 0 7 5 10 10 7 6 -3 10 -1 10 6 0 7 3
10 6 7 10 -11 -16 -47 -29 -42 -8 3 -14 -2 -14 -11 0 -18 0 -18 31 -4 14 7 22
17 19 23 -4 6 1 5 9 -2 10 -8 14 -20 11 -30 -6 -14 -4 -15 8 -5 13 10 19 10
35 -2 19 -15 19 -15 0 -8 -13 4 -17 3 -12 -5 3 -6 -2 -15 -11 -21 -16 -9 -16
-10 -1 -11 9 0 20 5 23 10 4 6 16 8 28 4 18 -5 20 -4 10 7 -18 19 -16 24 12
37 21 10 27 9 31 -2 3 -8 15 -13 27 -11 33 4 77 27 71 37 -3 4 2 11 10 14 9 3
13 10 10 15 -3 5 -2 9 3 8 22 -4 25 2 7 16 -18 14 -17 14 9 3 23 -10 25 -13
12 -20 -16 -9 -12 -28 6 -28 6 0 8 4 4 9 -3 5 0 13 6 16 18 12 20 -1 4 -31 -8
-16 -15 -24 -15 -19 0 6 -10 11 -22 12 -23 2 -23 2 -3 -14 18 -14 18 -15 1 -9
-13 4 -17 2 -13 -8 3 -7 0 -19 -6 -25 -6 -6 -7 -11 -1 -11 5 0 25 18 44 40 34
39 35 39 50 19 15 -19 16 -19 16 0 0 11 -4 17 -8 15 -4 -3 -8 -1 -8 5 0 6 -14
25 -32 43 -31 32 -57 41 -78 28z"/>
<path d="M1577 3004 c-3 -4 -2 -15 4 -25 6 -13 6 -25 -1 -39 -9 -16 -6 -22 15
-36 29 -19 32 -34 8 -34 -15 0 -15 -2 -4 -9 20 -13 23 -41 4 -34 -10 4 -11 8
-3 13 8 5 5 9 -8 12 -18 5 -19 3 -11 -16 9 -20 18 -22 97 -22 65 1 90 4 100
16 8 8 11 10 8 3 -4 -6 -1 -15 5 -19 8 -4 9 -3 5 4 -4 7 -3 12 2 12 5 0 9 7 9
15 0 19 -1 19 -40 -2 -18 -9 -42 -17 -54 -19 -20 -2 -21 0 -12 18 9 16 8 19
-3 15 -7 -2 -12 -9 -11 -14 1 -5 -3 -10 -10 -10 -7 0 -21 -4 -31 -9 -16 -6
-18 -4 -13 9 3 9 2 19 -2 22 -13 7 -1 47 13 42 6 -2 10 -12 10 -21 -1 -9 3
-15 10 -13 6 3 10 10 8 17 -2 10 1 10 14 -1 16 -13 16 -12 6 8 -9 15 -20 20
-42 19 -17 -1 -33 1 -36 6 -3 5 -9 6 -14 3 -5 -3 -12 0 -16 6 -4 7 -3 9 4 5 6
-3 13 -2 17 4 3 5 0 10 -7 10 -9 0 -9 3 2 10 12 8 13 11 1 19 -10 6 -10 10 -1
13 9 3 8 7 -2 16 -8 6 -18 9 -21 6z"/>
<path d="M1660 3001 c0 -7 -4 -9 -10 -6 -6 3 -7 -1 -4 -9 3 -9 10 -13 15 -10
5 3 12 -2 16 -12 6 -15 7 -15 14 4 8 20 9 20 40 -9 17 -16 35 -27 38 -23 3 3
-7 17 -24 31 -16 14 -24 22 -18 19 8 -5 11 -2 7 7 -7 19 -32 17 -39 -2 -6 -14
-8 -13 -21 3 -8 11 -14 14 -14 7z"/>
<path d="M1625 2957 c-12 -14 -13 -32 -2 -43 4 -4 7 -3 7 3 0 5 7 10 15 10 8
0 15 -5 15 -11 0 -6 4 -5 9 2 7 11 9 10 15 -3 3 -9 10 -14 15 -10 6 3 10 -4
10 -15 1 -11 1 -29 2 -40 0 -23 6 -24 39 -5 28 16 19 21 -10 5 -20 -11 -21 1
-4 44 5 13 4 17 -4 12 -8 -5 -10 -2 -6 9 7 17 -16 17 -28 0 -5 -6 -8 -3 -8 7
0 9 5 20 10 23 6 3 10 1 10 -4 0 -6 3 -10 8 -10 19 3 33 -2 28 -10 -7 -11 18
-21 30 -13 5 4 10 16 12 27 2 19 2 19 -9 2 -10 -17 -13 -17 -44 7 -30 23 -34
24 -40 8 -6 -16 -8 -15 -22 3 -13 17 -15 17 -9 2 3 -10 2 -16 -3 -12 -5 3 -11
0 -13 -7 -3 -9 -6 -9 -12 0 -4 7 -2 12 3 12 6 0 11 5 11 10 0 13 -13 12 -25
-3z"/>
<path d="M1842 2913 c-6 -2 -10 -9 -7 -13 3 -5 -15 -7 -40 -5 -34 2 -48 -1
-54 -14 -8 -14 -2 -16 41 -16 27 0 45 1 39 3 -6 2 -11 8 -11 14 0 6 6 6 15 -2
8 -6 20 -9 27 -5 7 4 4 -1 -6 -9 -11 -9 -23 -16 -26 -16 -3 0 -6 -8 -7 -19 -1
-14 5 -18 25 -17 15 1 33 5 40 9 6 5 12 5 12 0 0 -14 78 -9 92 6 11 12 11 13
-1 6 -9 -5 -12 -4 -7 3 5 8 1 10 -9 5 -13 -5 -14 -7 -3 -14 9 -6 9 -9 1 -9
-19 0 -26 20 -8 26 8 4 14 12 13 18 -2 6 1 11 7 11 5 0 8 -7 7 -14 -3 -12 -1
-13 12 -2 8 7 19 10 25 7 5 -4 17 1 26 10 9 9 19 13 23 10 3 -4 0 -11 -8 -16
-8 -6 -10 -10 -5 -10 19 0 39 19 40 38 1 19 0 19 -32 4 -18 -9 -33 -20 -33
-25 0 -5 -6 -4 -13 2 -8 6 -17 8 -20 4 -4 -3 -9 1 -13 10 -5 13 -10 14 -26 6
-15 -8 -17 -14 -8 -24 13 -16 -1 -28 -24 -19 -9 4 -18 0 -22 -10 -5 -12 -10
-13 -25 -5 -14 7 -19 7 -17 -2 2 -6 -7 -12 -19 -14 -21 -1 -21 0 5 25 15 14
30 25 33 23 3 -1 6 4 6 12 0 11 -4 12 -13 4 -14 -12 -29 5 -19 21 7 11 6 11
-13 3z m-52 -33 c0 -5 -2 -10 -4 -10 -3 0 -8 5 -11 10 -3 6 -1 10 4 10 6 0 11
-4 11 -10z m137 -45 c0 -8 -4 -12 -9 -9 -4 3 -8 9 -8 15 0 5 4 9 8 9 5 0 9 -7
9 -15z"/>
<path d="M1637 2875 c-4 -8 -2 -17 4 -20 5 -4 6 -11 3 -17 -4 -6 1 -6 14 1 12
6 24 17 28 24 6 8 3 8 -9 -1 -19 -16 -39 -8 -30 13 3 8 3 15 0 15 -3 0 -7 -7
-10 -15z"/>
<path d="M2455 2872 c-11 -2 -23 -9 -27 -16 -6 -8 -8 -8 -8 0 0 6 -10 12 -23
12 -19 0 -23 -6 -25 -32 -2 -25 0 -28 9 -16 9 13 10 12 5 -2 -3 -10 -9 -25
-13 -35 -4 -11 -3 -14 6 -8 10 6 11 3 2 -13 -6 -11 -11 -23 -11 -27 0 -3 5 -3
11 1 8 5 8 1 0 -14 -6 -11 -11 -23 -11 -27 0 -3 5 -3 11 1 8 5 8 1 0 -14 -14
-27 -14 -35 2 -26 9 6 9 5 0 -8 -15 -18 -7 -29 15 -21 14 4 15 3 2 -5 -8 -6
-18 -8 -22 -6 -4 3 -8 -2 -8 -11 0 -10 5 -14 13 -9 10 6 10 4 0 -7 -15 -16
-17 -33 -3 -24 6 3 10 1 10 -4 0 -6 -5 -11 -12 -11 -6 0 -8 -3 -5 -6 12 -12
97 -12 97 0 0 7 3 7 8 1 10 -14 65 -14 75 -1 4 7 10 8 15 1 11 -16 34 -17 44
-3 5 8 11 9 16 3 11 -16 34 -17 44 -3 8 10 11 10 15 0 15 -38 23 17 23 164 0
142 -2 164 -16 164 -9 0 -12 -5 -8 -12 6 -10 4 -10 -8 0 -10 8 -38 12 -77 10
-34 -2 -61 0 -61 4 0 4 -11 3 -24 -2 -13 -4 -27 -5 -32 -1 -5 4 -18 6 -29 3z
m152 -37 c0 -8 -4 -12 -9 -9 -5 3 -6 10 -3 15 9 13 12 11 12 -6z m-37 -17 c0
-4 -4 -8 -9 -8 -6 0 -12 4 -15 8 -3 5 1 9 9 9 8 0 15 -4 15 -9z m40 -32 c0 -2
-7 -7 -16 -10 -8 -3 -12 -2 -9 4 6 10 25 14 25 6z m-164 -71 c-1 -8 -5 -17 -8
-21 -5 -4 -4 16 1 34 3 9 9 -1 7 -13z m240 -13 c-3 -3 0 -12 6 -21 10 -13 10
-14 -2 -4 -16 15 -23 46 -8 37 5 -3 7 -9 4 -12z m-45 -69 c12 -16 12 -17 -2
-6 -9 7 -20 9 -24 5 -5 -4 -5 -1 -1 6 9 16 11 15 27 -5z m-191 -7 c0 -2 -7 -7
-16 -10 -8 -3 -12 -2 -9 4 6 10 25 14 25 6z m45 -25 c-9 -8 -36 -10 -30 -2 2
4 11 8 20 8 8 0 13 -3 10 -6z m151 -3 c3 -4 -1 -5 -10 -4 -8 1 -18 5 -22 8 -3
4 1 5 10 4 8 -1 18 -5 22 -8z m-111 -18 c-3 -5 -12 -10 -18 -10 -7 0 -6 4 3
10 19 12 23 12 15 0z m32 -5 c0 -8 -4 -12 -9 -9 -5 3 -6 10 -3 15 9 13 12 11
12 -6z m120 0 c0 -8 -4 -12 -9 -9 -5 3 -6 10 -3 15 9 13 12 11 12 -6z"/>
<path d="M1999 2856 c0 -1 -2 -11 -5 -23 -5 -27 4 -29 23 -5 8 9 12 12 9 5 -4
-6 -1 -15 5 -19 8 -4 9 -3 5 4 -4 7 -2 13 3 13 6 1 20 3 31 4 11 1 25 3 32 4
6 0 8 4 4 8 -5 5 -101 13 -107 9z"/>
<path d="M2155 2840 c3 -5 8 -10 11 -10 2 0 4 5 4 10 0 6 -5 10 -11 10 -5 0
-7 -4 -4 -10z"/>
<path d="M1020 2795 c0 -8 6 -12 14 -9 8 3 17 1 20 -4 3 -5 -2 -9 -11 -8 -24
2 -29 -54 -6 -73 16 -12 16 -13 1 -8 -14 5 -18 1 -18 -18 0 -14 6 -25 13 -25
7 0 8 -3 2 -8 -15 -10 -18 -105 -3 -96 7 5 8 3 2 -7 -5 -8 -10 -24 -12 -36 -2
-18 1 -21 15 -17 14 5 15 4 4 -4 -8 -6 -16 -23 -18 -38 -3 -22 -2 -25 10 -16
11 9 14 8 14 -3 0 -7 -5 -13 -11 -12 -5 1 -11 -8 -12 -21 l-1 -22 218 0 c162
1 219 4 220 13 4 98 2 157 -4 157 -5 0 -5 6 0 12 14 23 8 53 -12 66 -16 10
-16 12 -2 8 18 -6 18 -3 18 109 0 25 0 52 0 60 -1 22 -441 22 -441 0z m70 -15
c0 -5 -2 -10 -4 -10 -3 0 -8 5 -11 10 -3 6 -1 10 4 10 6 0 11 -4 11 -10z m320
6 c0 -2 -7 -7 -16 -10 -8 -3 -12 -2 -9 4 6 10 25 14 25 6z m-245 -46 c3 -5 1
-10 -4 -10 -6 0 -11 5 -11 10 0 6 2 10 4 10 3 0 8 -4 11 -10z m200 -48 c-3 -3
-11 0 -18 7 -9 10 -8 11 6 5 10 -3 15 -9 12 -12z m-62 -47 c-3 -9 -8 -14 -10
-11 -3 3 -2 9 2 15 9 16 15 13 8 -4z m-148 -4 c-9 -8 -36 -10 -30 -2 2 4 11 8
20 8 8 0 13 -3 10 -6z m33 -46 c-3 -3 -9 2 -12 12 -6 14 -5 15 5 6 7 -7 10
-15 7 -18z m96 -33 c3 -5 -1 -9 -9 -9 -8 0 -12 4 -9 9 3 4 7 8 9 8 2 0 6 -4 9
-8z m-149 -22 c-3 -5 -12 -10 -18 -10 -7 0 -6 4 3 10 19 12 23 12 15 0z m-70
-20 c3 -5 1 -10 -4 -10 -6 0 -11 5 -11 10 0 6 2 10 4 10 3 0 8 -4 11 -10z
m135 4 c0 -8 -19 -13 -24 -6 -3 5 1 9 9 9 8 0 15 -2 15 -3z m-70 -18 c0 -2 -7
-7 -16 -10 -8 -3 -12 -2 -9 4 6 10 25 14 25 6z m178 -31 c-3 -3 -9 2 -12 12
-6 14 -5 15 5 6 7 -7 10 -15 7 -18z m-174 7 c3 -5 -1 -9 -9 -9 -8 0 -12 4 -9
9 3 4 7 8 9 8 2 0 6 -4 9 -8z m221 -1 c-9 -8 -36 -10 -30 -2 2 4 11 8 20 8 8
0 13 -3 10 -6z m28 -36 c-3 -9 -8 -14 -10 -11 -3 3 -2 9 2 15 9 16 15 13 8 -4z
m-97 -31 c1 -9 -1 -13 -4 -9 -4 4 -7 10 -7 13 0 4 -4 14 -9 22 -7 12 -6 13 4
3 8 -7 15 -20 16 -29z m-41 -2 c-3 -3 -11 0 -18 7 -9 10 -8 11 6 5 10 -3 15
-9 12 -12z m-78 -7 c0 -8 -4 -15 -9 -15 -10 0 -11 14 -1 23 9 10 10 9 10 -8z"/>
<path d="M1740 2429 l0 -188 184 0 c165 0 184 2 188 17 3 14 2 274 -1 338 -1
20 -6 20 -186 20 l-185 0 0 -187z"/>
</g>
</svg>
