<?xml version="1.0" encoding="UTF-8" standalone="no"?>
<!-- Generator: Adobe Illustrator 16.0.0, SVG Export Plug-In . SVG Version: 6.00 Build 0)  -->

<svg
   xmlns:dc="http://purl.org/dc/elements/1.1/"
   xmlns:cc="http://creativecommons.org/ns#"
   xmlns:rdf="http://www.w3.org/1999/02/22-rdf-syntax-ns#"
   xmlns:svg="http://www.w3.org/2000/svg"
   xmlns="http://www.w3.org/2000/svg"
   xmlns:sodipodi="http://sodipodi.sourceforge.net/DTD/sodipodi-0.dtd"
   xmlns:inkscape="http://www.inkscape.org/namespaces/inkscape"
   version="1.1"
   id="Layer_1"
   x="0px"
   y="0px"
   width="500"
   height="500"
   viewBox="0 0 500 500"
   enable-background="new 0 0 720 720"
   xml:space="preserve"
   sodipodi:docname="fuerth-io-nur-logo.svg"
   inkscape:version="0.92.3 (2405546, 2018-03-11)"><metadata
   id="metadata1315"><rdf:RDF><cc:Work
       rdf:about=""><dc:format>image/svg+xml</dc:format><dc:type
         rdf:resource="http://purl.org/dc/dcmitype/StillImage" /><dc:title></dc:title></cc:Work></rdf:RDF></metadata><defs
   id="defs1313" /><sodipodi:namedview
   pagecolor="#ffffff"
   bordercolor="#666666"
   borderopacity="1"
   objecttolerance="10"
   gridtolerance="10"
   guidetolerance="10"
   inkscape:pageopacity="0"
   inkscape:pageshadow="2"
   inkscape:window-width="2495"
   inkscape:window-height="1416"
   id="namedview1311"
   showgrid="false"
   inkscape:zoom="0.92709556"
   inkscape:cx="423.05173"
   inkscape:cy="304.65337"
   inkscape:window-x="1985"
   inkscape:window-y="24"
   inkscape:window-maximized="1"
   inkscape:current-layer="Layer_1" />
<g
   id="g1308"
   transform="translate(-113.25694,-103.50716)">
	<path
   d="m 544.807,336.967 c 2.695,-3.637 5.09,-7.512 7.063,-11.59 3.348,-6.934 5.496,-14.592 5.316,-22.336 -0.313,-13.336 -7.854,-23.707 -19.27,-30.012 -25.965,-14.328 -61.768,-11.238 -87.742,1.273 4.969,-3.406 9.719,-7.133 14.203,-11.152 20.553,-18.443 42.246,-50.207 31.621,-79.176 -12.963,-35.355 -60.281,-30.195 -87.855,-18.455 -5.246,89.029 -20.965,153.611 -33.855,193.279 0.096,-0.09 0.189,-0.174 0.285,-0.262 -0.742,3.148 -1.311,6.313 -2.07,9.074 -11.232,41.012 -25.945,81.326 -43.604,120.01 -16.311,35.725 -35.203,69.693 -56.186,102.857 3.219,-4.051 6.441,-8.1 9.66,-12.154 26.939,-33.881 51.008,-70.664 71.375,-108.857 18.752,-35.164 36.314,-71.141 49.676,-108.746 0.211,-0.6 0.365,-1.199 0.492,-1.797 15.631,17.738 33.814,33.262 54.328,45.07 12.588,7.248 26.008,13.197 40.172,16.547 17.572,4.152 35.979,-1.848 43.068,-19.43 7.004,-17.363 2.221,-37.875 -5.531,-54.121 3.227,-1.956 6.471,-6.794 8.854,-10.022 z"
   id="path1262"
   inkscape:connector-curvature="0"
   style="fill:#009580" />
	<g
   id="g1306">
		<g
   id="g1304">
			<rect
   x="355.76401"
   y="166.832"
   width="41.938"
   height="41.938"
   id="rect1264"
   style="opacity:0.7;fill:#009580" />
			<rect
   x="338.95099"
   y="220.08"
   width="54.091999"
   height="54.09"
   id="rect1266"
   style="opacity:0.7;fill:#009580" />
			<rect
   x="289.36899"
   y="223.60699"
   width="44.707001"
   height="44.705002"
   id="rect1268"
   style="opacity:0.7;fill:#009580" />
			<rect
   x="300.93201"
   y="340.88101"
   width="32.715"
   height="32.715"
   id="rect1270"
   style="fill:#009580" />
			<rect
   x="175.43201"
   y="291.99399"
   width="32.715"
   height="32.715"
   id="rect1272"
   style="opacity:0.7;fill:#009580" />
			<rect
   x="251.19701"
   y="240.55701"
   width="30.587999"
   height="30.586"
   id="rect1274"
   style="opacity:0.5;fill:#009580" />
			<rect
   x="339.50201"
   y="329.89999"
   width="27.34"
   height="27.337999"
   id="rect1276"
   style="opacity:0.7;fill:#009580" />
			<rect
   x="162.80499"
   y="360.97501"
   width="25.254"
   height="25.25"
   id="rect1278"
   style="fill:#009580" />
			<rect
   x="356.82999"
   y="138.164"
   width="22.927999"
   height="22.927999"
   id="rect1280"
   style="fill:#009580" />
			<rect
   x="297.94101"
   y="386.11899"
   width="24.028999"
   height="24.027"
   id="rect1282"
   style="opacity:0.7;fill:#009580" />
			<rect
   x="221.40401"
   y="240.55701"
   width="24.028999"
   height="24.027"
   id="rect1284"
   style="opacity:0.7;fill:#009580" />
			<rect
   x="253.088"
   y="404.436"
   width="26.461"
   height="26.457001"
   id="rect1286"
   style="fill:#009580" />
			<rect
   x="201.34399"
   y="340.88101"
   width="32.713001"
   height="32.715"
   id="rect1288"
   style="opacity:0.7;fill:#009580" />
			<rect
   x="339.50201"
   y="279.66599"
   width="41.925999"
   height="41.925999"
   id="rect1290"
   style="fill:#009580" />
			<rect
   x="201.98"
   y="390.48001"
   width="31.438999"
   height="31.438999"
   id="rect1292"
   style="opacity:0.7;fill:#009580" />
			<rect
   x="226.021"
   y="279.53699"
   width="50.359001"
   height="50.362999"
   id="rect1294"
   style="fill:#009580" />
			<rect
   x="279.54099"
   y="276.71701"
   width="51.077999"
   height="51.082001"
   id="rect1296"
   style="opacity:0.7;fill:#009580" />
			<rect
   x="238.789"
   y="336.87299"
   width="53.604"
   height="53.606998"
   id="rect1298"
   style="opacity:0.5;fill:#009580" />
			<rect
   x="302.23001"
   y="166.53101"
   width="49.463001"
   height="49.465"
   id="rect1300"
   style="fill:#009580" />
			<rect
   x="319.55099"
   y="129.521"
   width="29.045"
   height="29.051001"
   id="rect1302"
   style="opacity:0.7;fill:#009580" />
		</g>
	</g>
</g>
</svg>