<svg xmlns="http://www.w3.org/2000/svg" xmlns:xlink="http://www.w3.org/1999/xlink" id="chart_5a4e7b06-e349-45c2-824c-e0c39fb9f44a" width="214.254" height="256" preserveAspectRatio="xMinYMin meet" version="1.1"><style id="style2" type="text/css">path{fill-rule:evenodd;stroke-linejoin:round}a{cursor:pointer}.map-path:hover{filter:blur(.1rem)}</style><path id="rect4" d="M-.621-.13h577.16v255H-.621z" style="fill:none"/><path id="rect6" d="M-.621-.13h577.16v255H-.621z" style="fill:none"/><g id="g500" style="stroke-width:1px" transform="translate(-181.453 .5)"><g id="g498" class="layer-currentGebiete"><g id="gebiet-STIMMBEZIRK_563000-0101"><a xlink:href="file:///home/delphin/Downloads/ergebnisse_stimmbezirk_563000-0101.html" id="a10"><path id="path8" fill="#e3000f" stroke="#000" d="m338.317 145.495-.488 2.52-3.206-.355-2.158-1.93-.246.33-.239.32.571.376.65.587.51.499.12.333.07.817.134.624-1.196 1.045-.326.233-.22.08-.265.054-.585.474-.192.154-.082.066-.355.395-.302-.228-.511-.453-.657-.71-.522-.73-.329-.39-.514-.395-.521-.403-.989-.164-.696.162-.149.035-.938.129-.904-.174-.704.425-.117-.172-.231-.34-.452-.301-.641-.43-.816-.21-.169-.065-1.168-.445-.87.145-.248-.011-.728-.036.087-.447.171-.403.374-.167.035-.254.252-.181.175-.626.102-.368.104-.375.298-.393.447-.437.19-.112.61-.362 1.221-.617 2.105-.88.298-.158 1.309-.615 1.335-.711.373-.185.504-.25.154-.492.502-1.827.478-2.332.277-2.625.044-1.026.083.155.394.714 1.31 2.18 1.345 1.276 1.88 1.22 1.192.685.631.279 1.573 1.535 1.033 2.372-.056 2.532-.006.281z" class="map-path"/></a></g><g id="gebiet-STIMMBEZIRK_563000-0102"><a xlink:href="file:///home/delphin/Downloads/ergebnisse_stimmbezirk_563000-0102.html" id="a15"><path id="path13" fill="#e3000f" stroke="#000" d="m338.626 159.199-1.273.57.217.478-.258.088-.53.168-.48.544-.503.632-.764-.572-.715-.534-1.27-.93-.262-.123-.06 1.508-.07.718-1.03-.524-.233-.119-.732-.418.499-.699.588-1.168.543-1.711.225-.308.212-.667.405-.354.887-.776-.143-.168-.46-.421-.15-.137-.26-.238-.269-.25-.534-.496-.459-.396-.211-.182-.34-.309-.382-.288.355-.395.082-.066.192-.154.585-.474.265-.053.22-.081.326-.233 1.196-1.045-.134-.624-.07-.817-.12-.333-.51-.5-.65-.586-.571-.375.239-.321.246-.33 2.158 1.93 3.206.354.067.33.058.286.15.978.42.66.519.875-.14 1.255-.467 1.554-.65 1.086.067.685.483 1.012 1.167 1.604-.275.269z" class="map-path"/></a></g><g id="gebiet-STIMMBEZIRK_563000-0111"><a xlink:href="file:///home/delphin/Downloads/ergebnisse_stimmbezirk_563000-0111.html" id="a20"><path id="path18" fill="#e3000f" stroke="#000" d="m331.678 166.2-.17.64-.293 1.109-.056.259-.407 1.843-.358 1.118-.119.37-3.572-1.134-2.846-.555-.374-.027.052-.296.06-.337.063-.35-.452-.845-.54-1.368 1.932-1.111 1.076 1.025.763-.875 1.052-1.26-1.51-.94 1.46-2.235 1.818 1.103 1.046.717-.712 2.577z" class="map-path"/></a></g><g id="gebiet-STIMMBEZIRK_563000-0112"><a xlink:href="file:///home/delphin/Downloads/ergebnisse_stimmbezirk_563000-0112.html" id="a25"><path id="path23" fill="#e3000f" stroke="#000" d="m339.38 161.378.153.441.153.389.111.462.107.511.101.505.124.61.03.676.033.459.087.252.066.19.056.252.244.134-.085.419-.01.052-.28-.079-.295.161-.288-.536-.361.337-1.238.969-.063.07-.58.625.95.8.323.27.707.588.324.316.352.411.323.275.308.444-.102.2-.54 1.512-.21.686-.236.774-.835-.298-.267-.084-1.43-.455-4.08-1.3-2.757-.877.12-.37.357-1.118.407-1.843.056-.26.294-1.109.169-.64-2.087-.57.711-2.578-1.046-.717.809-.948.598-.701.732.418.233.119 1.03.524.07-.718.06-1.508.262.122 1.27.931.715.534.764.572.503-.632.48-.544.53-.168.257-.088-.216-.477 1.272-.571.091.134.326 1.13.142.453z" class="map-path"/></a></g><g id="gebiet-STIMMBEZIRK_563000-0121"><a xlink:href="file:///home/delphin/Downloads/ergebnisse_stimmbezirk_563000-0121.html" id="a30"><path id="path28" fill="#008939" stroke="#000" d="m318.988 157.26.223.02.307-.025.492-.04-.062.467.08.762.732-.133.475-.162.195-.074.057.734.288.065 1.585.388-.572 1.92-.112.5 1.634.82 1.669.963 1.51.942-1.052 1.26-.764.874-1.075-1.025-1.931 1.111.54 1.368.451.845-.062.35-.06.337-.053.296-3.135-.227-1.3-.137-.085-.448-.048-.252-.153-.646-.28-1.185-.557-1.757-.96-1.271-.151-.898-.124-.739-.205-1.214.108-1.245.341-1.3.886-2.266.614.813.184.157.16.032z" class="map-path"/></a></g><g id="gebiet-STIMMBEZIRK_563000-0131"><a xlink:href="file:///home/delphin/Downloads/ergebnisse_stimmbezirk_563000-0131.html" id="a35"><path id="path33" fill="#008939" stroke="#000" d="m319.484 147.258 1.168.445.169.064.816.211.641.43.452.302.23.339.118.172-.326.442-.33.513-.055.084-.207.43-.076.461.398.185 1.524 1.128.739.548-1 1.16-.436.505.777.483.65.554.573.488 1.28 1.075-.488 1.058-.76 1.673-.882 2.105-.15.388-1.633-.82.112-.5.572-1.92-1.585-.387-.288-.065-.057-.734-.195.074-.475.162-.733.133-.079-.762.062-.468-.492.041-.307.026-.223-.02-.21-.02-.16-.033-.184-.157-.614-.813.207-.665.306-.906.12-.829-.021-1.563-.144-1.379-.248-1.526-.227-.796-.177-.454.002-.764.728.036.248.011z" class="map-path"/></a></g><g id="gebiet-STIMMBEZIRK_563000-0132"><a xlink:href="file:///home/delphin/Downloads/ergebnisse_stimmbezirk_563000-0132.html" id="a40"><path id="path38" fill="#e3000f" stroke="#000" d="m334.022 155.002-.887.776-.405.354-.212.667-.225.308-.543 1.71-.588 1.17-.5.698-.597.701-.809.948-1.817-1.103-1.46 2.234-1.67-.964.15-.388.882-2.105.76-1.673.487-1.058.538-1.001.106-.319.11-.326.284-.527.158-.352.66-.883.086-.092.577-.696 1.335 1.099 1.415 1.044.033-.193-.044-.257-.056-.327-.153-.7.037-.25.073-.601.46.396.533.496.27.25.259.238.15.136.46.422z" class="map-path"/></a></g><g id="gebiet-STIMMBEZIRK_563000-0133"><a xlink:href="file:///home/delphin/Downloads/ergebnisse_stimmbezirk_563000-0133.html" id="a45"><path id="path43" fill="#e3000f" stroke="#000" d="m327.458 148.808.521.403.514.395.329.39.522.73.657.71.51.453.303.228.383.288.339.309.211.182-.073.6-.036.25.152.701.056.327.044.257-.033.193-1.415-1.044-1.335-1.099-.577.696-.087.092-.659.883-.158.352-.285.527-.109.326-.106.319-.538 1-1.279-1.074-.574-.488-.65-.554-.775-.483.435-.506 1-1.16-.74-.547-1.523-1.128-.398-.185.076-.46.207-.43.054-.085.331-.513.326-.442.704-.425.904.174.938-.129.149-.035.696-.162z" class="map-path"/></a></g><g id="gebiet-STIMMBEZIRK_563000-0201"><a xlink:href="file:///home/delphin/Downloads/ergebnisse_stimmbezirk_563000-0201.html" id="a50"><path id="path48" fill="#008939" stroke="#000" d="m369.245 183.605-.552.988-.35-.148-.105.228-4.95-1.742-11.717-4.12.57-1.512.293-.943.364-.633.052-.091.48-1.044 1.234-2.145 1.604.843 1.417.82.497.485 1.46.966 2.521 1.583-.97 1.806.505.261 1.02.528 1.992 1.033 2.811 1.691.329.198z" class="map-path"/></a></g><g id="gebiet-STIMMBEZIRK_563000-0202"><a xlink:href="file:///home/delphin/Downloads/ergebnisse_stimmbezirk_563000-0202.html" id="a55"><path id="path53" fill="#008939" stroke="#000" d="m356.079 166.462 1.588.86-.17.22-.81 1.049-.894 1.693-1.886-1.222-.23-.148-.314-.068-1.713-.366-1.087-.223-1.22-.25-1.845 3.336-1.394-.76-.624 1.027-.31.51-.245.533-.61 1.138-.334.624-1.86-.632-2.03-.69.539-1.512.102-.2-.308-.444-.323-.275-.352-.41-.324-.317-.707-.589-.323-.269-.95-.8.58-.624.063-.071 1.238-.969.36-.337.289.536.294-.16.28.078.011-.052.085-.42-.244-.133-.056-.253-.066-.189-.087-.252-.033-.459-.03-.675-.123-.61-.102-.506-.107-.51-.111-.464-.153-.388-.153-.441-.196-.462-.142-.452-.326-1.13-.09-.135.602-.591.275-.27.233.228.826.63 1.415.724 1.36.417 1.384.315 2.023.357 1.13.37 1.549 1.235 1.758 1.514 1.519.902 1.756.67z" class="map-path"/></a></g><g id="gebiet-STIMMBEZIRK_563000-0203"><a xlink:href="file:///home/delphin/Downloads/ergebnisse_stimmbezirk_563000-0203.html" id="a60"><path id="path58" fill="#e3000f" stroke="#000" d="m358.715 172.189 1.856 1.728-.582.829-.448.81-1.459-.965-.497-.485-1.417-.82-1.604-.843-1.233 2.145-2.03-1.136-1.918-1.038 1.29-2.099.205-.384.772-1.451 1.713.366.315.068.229.148 1.886 1.222.496.323.543.354.899.586z" class="map-path"/></a></g><g id="gebiet-STIMMBEZIRK_563000-0204"><a xlink:href="file:///home/delphin/Downloads/ergebnisse_stimmbezirk_563000-0204.html" id="a65"><path id="path63" fill="#e3000f" stroke="#000" d="m375.98 174.482-.009.318-.213.026-.523-.058-.015.48-.28.177.134.304.113.347-.388 1.9-.425.725-.409.289.221.396.335.599-.776 5.435-.394-.213-1.575-.832-.077-.04-.203-.108-1.164-.614-.005-.349-.172-.108-.441-.276-.32.418-.149.307-1.495-.948-.329-.197-2.811-1.692-1.993-1.032-1.02-.528-.504-.262.97-1.805-2.522-1.584.447-.811.583-.829-1.856-1.728-.985-.642-.898-.586-.543-.353-.496-.324.894-1.693.81-1.049.17-.22 1.327 1.387 1.542 1.61 1.056.912.622.42.413.201.538.328 1.137.546.813.035 3.09.164 1.152.108.98.585 1.425.131 1.617.12.936.07z" class="map-path"/></a></g><g id="gebiet-STIMMBEZIRK_563000-0205"><a xlink:href="file:///home/delphin/Downloads/ergebnisse_stimmbezirk_563000-0205.html" id="a70"><path id="path68" fill="#008939" stroke="#000" d="m350.674 170.315-1.291 2.1 1.917 1.037 2.03 1.136-.48 1.044-.052.09-.364.634-.293.943-.57 1.512-11.927-4.258.237-.774.21-.686 2.03.69 1.86.632.334-.624.61-1.138.244-.532.311-.511.624-1.028 1.394.76 1.844-3.335 1.22.25 1.088.223-.772 1.451z" class="map-path"/></a></g><g id="gebiet-STIMMBEZIRK_563000-0301"><a xlink:href="file:///home/delphin/Downloads/ergebnisse_stimmbezirk_563000-0301.html" id="a75"><path id="path73" fill="#399adf" stroke="#000" d="m351.125 180.064-.131.43-.356 1.15-1.006-.355-1.388-.49-.236-.062-.716-.196-.656.423-1.033-.364-.277.881-.926.61-.16-.24-.653-.512-.326-.229-.986-.31-.535-.166-1.64-.64-1.614-.567-1.544-.582 1.188-3.343.412-1.33.267.083.835.298 11.927 4.258z" class="map-path"/></a></g><g id="gebiet-STIMMBEZIRK_563000-0302"><a xlink:href="file:///home/delphin/Downloads/ergebnisse_stimmbezirk_563000-0302.html" id="a80"><path id="path78" fill="#399adf" stroke="#000" d="m344.24 181.851.16.24.926-.61.277-.881 1.033.365.656-.424.716.196.236.062 1.388.49 1.006.355-.132.428-.59.177-.638.19-2.034.561-2.036.525-1.563.417-.715.167.165.798-.96.287-.163-.547-.344-.18-.43.128-1.954.532-1.21.295-1.808.503-.215-2.113-.125-1.9 1.63.438 1.62.449.963-2.805 1.641.64.535.167.986.31.326.228z" class="map-path"/></a></g><g id="gebiet-STIMMBEZIRK_563000-0303"><a xlink:href="file:///home/delphin/Downloads/ergebnisse_stimmbezirk_563000-0303.html" id="a85"><path id="path83" fill="#e3000f" stroke="#000" d="m340.1 179.994-.965 2.805-1.62-.45-1.63-.438.126 1.901.215 2.113-2.008.524-1.963.515-.185-2.416-.026-.369-.085-1.673-.013-.262-.051-1.483 1.963.548 1.018-3.156 2.065.692 1.545.582z" class="map-path"/></a></g><g id="gebiet-STIMMBEZIRK_563000-0311"><a xlink:href="file:///home/delphin/Downloads/ergebnisse_stimmbezirk_563000-0311.html" id="a90"><path id="path88" fill="#e3000f" stroke="#000" d="m338.13 175.502-1.188 3.343-2.066-.692-1.824-.646-2.157-.774-1.86-.664.363-1.455.1-.344.378-1.602.245-.694.154-.435 2.757.878 4.08 1.299 1.43.455z" class="map-path"/></a></g><g id="gebiet-STIMMBEZIRK_563000-0312"><a xlink:href="file:///home/delphin/Downloads/ergebnisse_stimmbezirk_563000-0312.html" id="a95"><path id="path93" fill="#399adf" stroke="#000" d="m334.876 178.153-1.018 3.156-1.963-.548.051 1.483.013.262-2.134.091-.026-.942h-.324l-.006-.224.858-.064.266-.984-.442-.128-.297-.083-1.725-.533.45-1.98.456-1.59 1.86.664 2.158.774z" class="map-path"/></a></g><g id="gebiet-STIMMBEZIRK_563000-0313"><a xlink:href="file:///home/delphin/Downloads/ergebnisse_stimmbezirk_563000-0313.html" id="a100"><path id="path98" fill="#399adf" stroke="#000" d="m329.799 181.655.026.942 2.134-.09.085 1.672.026.369.185 2.416-.71.205-1.964.442-1.17.335-1.606.223-1.503.133-.417-1.594-.375-1.314-.033-.115 1.735.083-.064-2.663 1.712-.018.012-.717.256-2.325 1.726.533.297.083.441.128-.266.984-.858.064.006.225z" class="map-path"/></a></g><g id="gebiet-STIMMBEZIRK_563000-0314"><a xlink:href="file:///home/delphin/Downloads/ergebnisse_stimmbezirk_563000-0314.html" id="a105"><path id="path103" fill="#000" stroke="#000" d="m327.872 181.964-.012.717-1.712.018.064 2.663-1.735-.083.032.115.376 1.314.417 1.594-.183.02-1.999.067-1.074-.012-1.238.159.262-2.174.285-1.052.433-1.564.2-1.242.11-1.008.031-1.15-.318-1.453-.257-.99.012-.592-.004-1.334-.215-.882-.55-2-.452-1.355-.053-1.368.057-.776 3.134.227.375.027 2.845.554 3.573 1.135-.154.435-.245.694-.38 1.602-.098.344-.364 1.455-.456 1.589-.45 1.98z" class="map-path"/></a></g><g id="gebiet-STIMMBEZIRK_563000-0401"><a xlink:href="file:///home/delphin/Downloads/ergebnisse_stimmbezirk_563000-0401.html" id="a110"><path id="path108" fill="#399adf" stroke="#000" d="m351.571 178.811 11.717 4.12 4.95 1.742-.126.276-.15.241.243.237-.41.18-.156.336-.077.168-1.47-.393-2.291-.625-2.442-.92-2.88-1.51-1.69 1.684-.213.212-.14.14-.229.228-.653.651-2.48 1.567-1.071-2.024-1.315.534-.382-1.238-1.794.604-2.676.877-1.71.557-.144-.272-.887-1.276-.165-.798.715-.167 1.563-.417 2.036-.525 2.034-.56.637-.191.591-.177.132-.428.356-1.151.131-.43z" class="map-path"/></a></g><g id="gebiet-STIMMBEZIRK_563000-0411"><a xlink:href="file:///home/delphin/Downloads/ergebnisse_stimmbezirk_563000-0411.html" id="a115"><path id="path113" fill="#e3000f" stroke="#000" d="m350.306 184.417.382 1.238 1.315-.534 1.07 2.024.838 1.59.444.846.318.605-1.083.36-.528.175-2.34.776-1.507.494-.253-.775-.304-.936-.858-1.405-.897.288-1.504.482-.566-1.538-.136-.145-.572-1.507 1.711-.557 2.676-.877z" class="map-path"/></a></g><g id="gebiet-STIMMBEZIRK_563000-0412"><a xlink:href="file:///home/delphin/Downloads/ergebnisse_stimmbezirk_563000-0412.html" id="a120"><path id="path118" fill="#000" stroke="#000" d="m348.962 191.216.253.775 1.507-.494 2.34-.776.4 1.326-.03.162-.207.1-1.618.521-1.91.645.454 1.393.12.371.22.689.071.222.162.506.245.77.46 1.443.524 1.646-1.436.49-.39.12-2.295.705-2.76.56-.435-.416-.384-1.096-.243-.693-.39-1.22-.588-1.843-.082-.26-.132-.41-.096-.302-.702-2.242-.693-2.135-.24-.74 1.46-.51 2.853-.878 1.503-.482.897-.288.858 1.405z" class="map-path"/></a></g><g id="gebiet-STIMMBEZIRK_563000-0421"><a xlink:href="file:///home/delphin/Downloads/ergebnisse_stimmbezirk_563000-0421.html" id="a125"><path id="path123" fill="#000" stroke="#000" d="m356.3 218.499-1.05 1.015-.701-.935-1.416-3.804-.462-1.545-.13-.523-.103-.408-.567-1.694-.197-.612-.264-.822-.65-1.337-.618-.87-.9-.92-.156-.159-.56-.514-1.935-1.376-1.03-1.382-.488-.223 2.76-.56 2.293-.705.39-.12 1.437-.49 1.28-.435 1.355-.413.892-.272 1.415-.46-.867-2.433-.557-1.362 2.223-.712 1.443 1.967 1.009 1.477.633.638.46.463.938.916.677 1.043.37.533.314.451.7 1.009.375.661.228.402-.193.155.316.512.15.244-.412 1.727-.018.124-.503 3.437-.037.258-.36.702-2.746 2.65-1.011 1.004-.226.224-.564.56-1.481 1.472-.34.338-.665.662z" class="map-path"/></a></g><g id="gebiet-STIMMBEZIRK_563000-0422"><a xlink:href="file:///home/delphin/Downloads/ergebnisse_stimmbezirk_563000-0422.html" id="a130"><path id="path128" fill="#e3000f" stroke="#000" d="m353.233 200.08-1.28.435-.524-1.646-.46-1.442-.245-.77-.162-.507-.07-.222-.22-.689-.121-.37-.453-1.394 1.91-.645 1.617-.521.208-.1.03-.162-.401-1.326.528-.176 1.083-.36.343.684 1.786 2.342.892 1.217-2.223.712.557 1.362.867 2.433-1.415.46-.892.272z" class="map-path"/></a></g><g id="gebiet-STIMMBEZIRK_563000-0431"><a xlink:href="file:///home/delphin/Downloads/ergebnisse_stimmbezirk_563000-0431.html" id="a135"><path id="path133" fill="#e3000f" stroke="#000" d="m365.834 203.518-.429.397-.393-.147-.09.117-.08.103-.229-.402-.375-.661-.7-1.009-.313-.45-.37-.534-.678-1.043-.938-.916-.46-.463-.633-.638-1.009-1.477-1.443-1.967-.892-1.217-1.786-2.342-.343-.683-.318-.605-.444-.846-.837-1.59 2.48-1.567.653-.651.23-.228.139-.14.213-.212 1.69-1.685 2.88 1.51 2.442.921 2.291.625 1.47.393.681.6-.209.635-.112.41-.157.574-.269 1.071-.237 3.424.02.468.071 1.578-.08 2.202-.314 2.53-.03.163-.476 2.676z" class="map-path"/></a></g><g id="gebiet-STIMMBEZIRK_563000-0501"><a xlink:href="file:///home/delphin/Downloads/ergebnisse_stimmbezirk_563000-0501.html" id="a140"><path id="path138" fill="#399adf" stroke="#000" d="m341.972 184.647.162.547.961-.287.887 1.276.143.272.572 1.507.136.145.566 1.538-2.852.878-1.46.51-.19.065-.47-1.624-2.83.923-.476-1.67-.389-1.247-.387-1.246-.12-.309 1.809-.503 1.21-.295 1.953-.532.43-.128z" class="map-path"/></a></g><g id="gebiet-STIMMBEZIRK_563000-0511"><a xlink:href="file:///home/delphin/Downloads/ergebnisse_stimmbezirk_563000-0511.html" id="a145"><path id="path143" fill="#e3000f" stroke="#000" d="m334.841 189.48.504 1.638-1.789.56-.483-1.65-.67.272-1.688.488-1.38.398-.254-.814-.21-.758-.46-1.668 1.17-.335 1.963-.442.711-.205 1.963-.515 2.008-.524.119.309.387 1.246.389 1.246-.996.355z" class="map-path"/></a></g><g id="gebiet-STIMMBEZIRK_563000-0512"><a xlink:href="file:///home/delphin/Downloads/ergebnisse_stimmbezirk_563000-0512.html" id="a150"><path id="path148" fill="#399adf" stroke="#000" d="m337.12 188.726.476 1.67 2.83-.922.471 1.624.19-.065.24.74.693 2.135-1.27.388-1.769.554-2.29.717.548 1.582-1.67.464-.738-2.097-.792-2.226-.483-1.613 1.789-.559-.504-1.638 1.284-.399z" class="map-path"/></a></g><g id="gebiet-STIMMBEZIRK_563000-0513"><a xlink:href="file:///home/delphin/Downloads/ergebnisse_stimmbezirk_563000-0513.html" id="a155"><path id="path153" fill="#e3000f" stroke="#000" d="m335.948 204.04-.595.082-.225-1.842 1.125-.15.575-.085 1.954-.23-.384-1.146-.594-1.77-.233-.723-.332-1.027-.548-1.581 2.29-.718 1.77-.554 1.27-.388.701 2.242.096.302.132.41.082.26.588 1.843.39 1.22.243.693.384 1.096.436.416-.173.033-2.782.565-.654.132-2.324.472-2.596.365z" class="map-path"/></a></g><g id="gebiet-STIMMBEZIRK_563000-0514"><a xlink:href="file:///home/delphin/Downloads/ergebnisse_stimmbezirk_563000-0514.html" id="a160"><path id="path158" fill="#000" stroke="#000" d="m326.805 188.169-.464 1.92-.476 1.961.459 2.044.44 1.594 1.56-.53.985-.335.202-.07.767-.26 1.458-.484.327-.09 1.976-.629.792 2.226.739 2.097-1.252.348-.3.084-.796.254-1.942.392-1.456.382-1.233.325-.888.233-2.43.446-1.186-3.48-.028-.092-.548-1.738-.14-1.125-.812.27-.372.026-.513.022-.458.02-.916-.302-.664-.493-.191-.107.72-.43.63-.968.067-1.144-.049-1.578-.005-.422 1.238-.16 1.074.013 2-.067.182-.02z" class="map-path"/></a></g><g id="gebiet-STIMMBEZIRK_563000-0515"><a xlink:href="file:///home/delphin/Downloads/ergebnisse_stimmbezirk_563000-0515.html" id="a165"><path id="path163" fill="#399adf" stroke="#000" d="m320.3 193.678.916.302.458-.02.513-.022.372-.025.812-.27.14 1.124.548 1.738.028.091 1.186 3.48 2.43-.445.888-.233 1.233-.325 1.456-.382 1.942-.392.795-.254.301-.084 1.252-.348 1.67-.464.33 1.027.234.724.594 1.77.384 1.144-1.954.231-.575.085-1.125.15.225 1.842-2.734.368-.445.342-.79.319-1.506.569-1.212.326-.461.01-.535.009-.587.128-1.027.283-.2.096-1.178-.145-.857-.015-.562.008-.424-.023.019-.435-.027-1.517-.113-.325-.778-.343-.775-.098-.738-.399-.771-.806-.738-.881-.485-.728-.132-.72.557-1 .307-.91-.03-1.238.031-1.66-.155-.917.002-.844.2-.316.235-.182.192.107z" class="map-path"/></a></g><g id="gebiet-STIMMBEZIRK_563000-0516"><a xlink:href="file:///home/delphin/Downloads/ergebnisse_stimmbezirk_563000-0516.html" id="a170"><path id="path168" fill="#399adf" stroke="#000" d="m329.08 190.372.255.814 1.38-.398 1.688-.488.67-.272.483 1.65.483 1.612-1.976.63-.327.089-1.458.484-.767.26-.202.07-.986.335-1.558.53-.441-1.594-.459-2.044.476-1.962.464-1.92 1.607-.222.46 1.668z" class="map-path"/></a></g><g id="gebiet-STIMMBEZIRK_563000-0601"><a xlink:href="file:///home/delphin/Downloads/ergebnisse_stimmbezirk_563000-0601.html" id="a175"><path id="path173" fill="#000" stroke="#000" d="m351.87 210.605.568 1.694.102.408.13.523.463 1.545 1.416 3.804.7.935-.211.196-1.076.997-2.569 2.419-.177.166-1.633 1.329-.024.012-.968.502-.87-.12-3.913-3.584-.213.33-1.979-1.343-1.788-1.213-1.62-1.035.394-.718.63-.848-.634-.638-.04-.04-.265-.267-.613-.957-.448-1.211-.217-1.04-.516-3.72.68-.23.841-.283.316-.036.805-.146.773-.14.244-.04.903-.147.489 1.237 1.159 1.694 1.039 1 .2.194.151-.476.787-1.42 1.102-1.376 1.193-1.1 1.905-1.576.156.159.9.919.619.87.649 1.337.264.823z" class="map-path"/></a></g><g id="gebiet-STIMMBEZIRK_563000-0602"><a xlink:href="file:///home/delphin/Downloads/ergebnisse_stimmbezirk_563000-0602.html" id="a180"><path id="path178" fill="#000" stroke="#000" d="m349.086 205.885-1.905 1.577-1.193 1.1-1.102 1.376-.787 1.42-.152.476-.199-.195-1.04-.999-1.158-1.694-.489-1.237-.903.147-.244.04-.773.14-.805.146-.316.035-.84.284-.681.23.516 3.72.217 1.04.448 1.21.613.958.264.266.04.04.636.64-.63.847-.396.718 1.62 1.035 1.789 1.213 1.979 1.342-1.026 1.277-.897 1.144 1.429 1.245 1.767 2.263 1.058 1.79.053.09 1.224 2.226 1.998 8.25-1.212.298-2.403.533-.761-.055-.16.982-.104 2.07.071.435.3.857 1.068 2.262.807 1.815-1.796.7-1.323.149.025.217-.455.093-.154-.15-2.075.725-.136-.434-.234.059-.22.056.181.564-.709.575-1.797 2.006-.708.64-.88.507-.09.051-.163-.4.025-.146-.157-.144-.276-.225-.347-.709-.297-.371-.255-.303-.599-.431-.326-.508-.424-1.353-.02-.768-.031-.366-.093-.46-.101-.74-.172-.528-.343-.462-.58-.71-.353-.508-1.182-1.046-.45-.602-.367-.782-.17-.437-.227-.591-.242-.354-.263-.266-.023-.33.078-1.025.233-.287.096-.303-.035-.9.146-.69.128-.65.026-.5-.082-.639-.01-.722-.747-.928-.251-.409-.574-.587-.607-.33-.842-.56-.421-.114-.35-.91.122-.46.338-.635.489-.615.437-.738.359-.471.306-.307.316-.548.064-.715-.599-1.09-.458-1.206.047-.55.268-.767-.32-.719-.63.018-.58.291-.21.31-.946.845-1.055.966-.37.307-.318.068-.35-.205-.235-.555-.499-1.778-.38-.786-.264-.665.01-.53.196-.406.495-.871.04-.367-.096-.41-.234-.39-.535-.442-.75-.434-.45-.24-.285-.216-.05-.302.315-1.001.531-1.54.506-1.06.226-.225.437-.747.06-.14.19-.448.116-.434.052-.194.062-.571.007-1.376.286-1.426.353-.985.034-.75.424.023.561-.008.857.016 1.18.145.199-.097 1.026-.282.587-.129.535-.008.46-.011 1.214-.326 1.506-.569.79-.318.444-.343 2.735-.367.594-.082.596-.084 2.596-.365 2.325-.472.653-.132 2.782-.565.173-.033.487.223 1.03 1.383 1.937 1.375z" class="map-path"/></a></g><g id="gebiet-STIMMBEZIRK_563000-0701"><a xlink:href="file:///home/delphin/Downloads/ergebnisse_stimmbezirk_563000-0701.html" id="a185"><path id="path183" fill="#000" stroke="#000" d="m320.813 188.958.049 1.578-.066 1.144-.632.968-.72.43-.235.182-.2.316-.001.843.155.917-.032 1.66.03 1.239-.307.909-.556 1 .132.72.484.729.738.88.771.807.738.398.775.099.778.343.113.325.027 1.517-.018.435-.034.75-.353.984-.286 1.426-.007 1.376-.062.57-.052.195-.116.434-.19.448-.06.14-.437.747-.402-.195-1.123 1.34.254-1.398-.105-.05-.948-.136-.505-.098-.522-.002-.924.026-.206-.005-.541-.012-1.494-.04.184.468-.325.013-.695.035-.478-.028-.839-.08-.08.415-.535-.014-.078 1.36-.165 2.663-.408.099-.42.05-.285-.013-.128-.013-.092-.01-1.123-.207-.373-.074-.746-.16-.514-.065-.269-.036-.469-.047-.936-.11-.413-.083-.326-.109-.368-.164-.298-.168-.108-.061-.618-.42.182-.522.478-.614-.37-.308.265-.316-.124-.102-.131-.078.235-.33.411-.521.71-.88.513-.633.436-.52-.03-.583-.063-.618.139-.052-.218-.8-.32-1.342-.26-1.19-.072-.317-.294.01-.143-1.318-.049-1.74-.335-1.566-.125-.578-.163-.762-.223-.916-.183-.75-.33-1.505-.204-.927-.133-.672-.033-.166-.138-.703-.157-.792.208-.025.425-.27.034-.01.688-.209 1.07-.478.45-.016.931-.178.55.08.8.1.633-.176 1.336-.385 1.088-.305.072-.038.528-.28.566-.3.659-.313-.44-.494-.272-.107-.206-.08-.535-.113-.327.156-.646.157-.774.046-.034-.607-.078-1.73-.203-.56-1.328-.143-.628-.066.082-.382.48-1.133.322-.622.342-.661.25-.82.154-.506.19-.794.635-2.099.1-.331.28-1.05.002-.858.148-.968.286-.567.738-.703.661-.63 2.655-.398.061-.623.132-1.627.303-1.53.227-.94.156-.572.26-.063.27-.391.034-.18 1.54.11 1.085.113 1.3.137-.057.777.052 1.367.453 1.355.55 2 .215.882.004 1.334-.013.592.258.99.318 1.452-.032 1.15-.109 1.01-.2 1.24-.434 1.565-.284 1.052-.262 2.174z" class="map-path"/></a></g><g id="gebiet-STIMMBEZIRK_563000-0702"><a xlink:href="file:///home/delphin/Downloads/ergebnisse_stimmbezirk_563000-0702.html" id="a190"><path id="path188" fill="#000" stroke="#000" d="m310.111 180.667-.636 2.099-.19.794-.153.506-.25.82-.342.66-.322.623-.48 1.133-.082.382.628.066 1.328.143.203.56.078 1.73.034.607.775-.046.645-.157.327-.156.535.113.206.08.272.107.44.494-.659.314-.566.3-.527.279-.073.038-1.088.305-1.336.385-.633.175-.8-.099-.55-.08-.931.178-.45.016-1.07.478-.688.208-.034.011-.425.27-.207.025.156.792.139.703.032.166.133.672.204.927.33 1.504.183.75.223.917-2.488-2.238-.691-.629-2.469-2.243-6.418-5.987-3.726-3.487-1.05-.994.367-.373.192-.196.133.071.717.187 1.092.397.777.342.412.21.378.194.193.098.552.42.27.182.537.243.53.12.511.17.424.22.117.222.682-.342.59-.174.09-.025.718-.196.644-.114.836-.056-.104-.97-.175-1.38-.029-1.354.129-1.346.1-.54.124-.238 1.382.884 2.216 1.282.903-.29.045-.185.067-.274.102.092.143-.444.505-1.573.088-.274.646-2.175.198-.666.973-3.026.503-1.756.244-.9.526-.972.702-.74.691-.4.8-.228 1.003-.055 1.243.016 1.817.029 3.172.237-.034.18-.27.392-.26.063-.156.573-.227.939-.303 1.53-.132 1.627-.06.623-2.656.398-.66.63-.739.703-.286.567-.148.968-.002.858-.28 1.05z" class="map-path"/></a></g><g id="gebiet-STIMMBEZIRK_563000-0703"><a xlink:href="file:///home/delphin/Downloads/ergebnisse_stimmbezirk_563000-0703.html" id="a195"><path id="path193" fill="#000" stroke="#000" d="m309.893 168.668 3.359.33-1.817-.029-1.243-.016-1.002.055-.8.227-.692.4-.702.741-.526.971-.244.901-.503 1.756-.974 3.026-.197.666-.646 2.175-.088.274-.506 1.573-.142.444-.102-.092-.067.274-.045.185-.903.29-2.216-1.282-1.382-.884-.124.237-.1.541-.129 1.346.029 1.354.175 1.38.104.97-.836.056-.644.114-.719.196-.089.024-.59.174-.682.343-.117-.223-.424-.22-.51-.17-.53-.12-.537-.242-.27-.182-.553-.42-.193-.098-.379-.194-.41-.21-.779-.342-1.091-.397-.717-.187-.133-.072.093-.364.19-.415.18-.395.325-.593.684-1.123.26-.52.36-.715.357-1.045.071-.297.095-.392.36-1.929.062-.314-.147-.334-.113-.256.183-.154.423-.475.232-.428.131-.39.067-.589.083-1.226.232-.848.216-.387.443-.635.467-.494.763-.786.497-.67.74-1.454.435-.796.666-1.214 2.298.727 1.478.468 1.635.544 2.245.688 1.78.46 1.09.225.989.214z" class="map-path"/></a></g><g id="gebiet-STIMMBEZIRK_563000-0711"><a xlink:href="file:///home/delphin/Downloads/ergebnisse_stimmbezirk_563000-0711.html" id="a200"><path id="path198" fill="#000" stroke="#000" d="m288.015 184.508-.367.373-1.592-1.506-2.68-2.52-2.652-2.44-.255-.312-.087-.107-1.42-1.27-.685-.614-2.38-2.208-.898-.831-1.754-1.711-1.142-1.199-1.056-1.306-.729-1.03-1.467-2.348-1.312-2.417-1.378-2.328-.795-1.604-1.394-2.81-.82-2.237-.606-2.01 2.499 1.634 1.193.742 2.342 1.278 2.5 1.01 2.008.653 3.892 1.29 3.737 1.243 2.33.743 1.878.599 2.549.856 1.27.427 4.313 1.389.948.307 2.557.829-.666 1.214-.435.796-.74 1.454-.497.67-.763.786-.467.494-.443.635-.216.387-.232.848-.083 1.226-.067.59-.131.389-.232.428-.423.475-.183.154.113.256.147.334-.063.314-.359 1.929-.095.392-.071.297-.358 1.045-.358.715-.261.52-.684 1.123-.325.593-.18.395-.19.415-.093.364z" class="map-path"/></a></g><g id="gebiet-STIMMBEZIRK_563000-0801"><a xlink:href="file:///home/delphin/Downloads/ergebnisse_stimmbezirk_563000-0801.html" id="a205"><path id="path203" fill="#000" stroke="#000" d="m274.402 178.945 2.425.078 1.933-.345.93-.313.779-.262.255.312 2.651 2.44 2.681 2.52 1.592 1.506 1.05.994 3.726 3.487 6.418 5.987 2.469 2.243.691.629 2.488 2.238.164.762.124.578.335 1.566.05 1.74-1.385-.139-1.802-.181-1.592-.175-.673-.11-1.512-.247-.71-.129-.518-.087-.119.426-.408-.313-.485-.684-.318-.304-.986-.154-1.15-.26-.728-.432-.394-.565-.32-.641-.08-.095-1.29-.164-.378.022-1.106.205-.476-.002-.673.359-.897.44-.482.147-.45.155-.254.02-.262-.687-.045-.116.082-.018-.508-1.424-.43.099-.915.057-.517.113-.41.047-.449.051.141.852-.038.573-1.433.294-1.487.303-.463.06-1.123.199-.272-.282-.199-.208-.343-.59-.847.35h-.74l-1.488.015-1.519-.226-1.091-.165-.888-.1-1.321-.134-1.609-.225-1.053.172-.231-3.735-.268.117-.85.192-1.875.437-.336.072-1.4.301-.761.112-2.157.284-1.3.165-.415.05-.74.101-.516.019-2.631.087-2.759.197.101-.001-3.078.24-.404.051-.785.045-.998.082-.482.052-.763.055-.847-.37-4.536-2.257.021-.4.885.187.96-.15 1.743-.228.495-.374.953-.651 1.334-.746 2.74-.222.582-.021 1.335.083 1.448-.062 1.632-.457.782-.215.756-.173 1.529-.05.49-.23.536-.47.953-.57 1.332-.588.296-.127.524-.279.742-.214.944-.257.39-.214.094-.051.52-.523.37-1.244-.28-.885-.089-.39-.031-.806-.004-.269-.345-1.07-.343-1.07.3.014 1.139-.045.748-.082 1.862-.938 1.23-.82.313-.293-.436-.67 1.78-1.179-.562-.99.397-.497-.52-.955.38-.142 2.427.046 3.162.692z" class="map-path"/></a></g><g id="gebiet-STIMMBEZIRK_563000-0811"><a xlink:href="file:///home/delphin/Downloads/ergebnisse_stimmbezirk_563000-0811.html" id="a210"><path id="path208" fill="#000" stroke="#000" d="m233.936 154.491 1.559.043 1.983-.046 1.055-.024 2.625-.192 2.086-.08.256.369.096.14 1.328 1.465 1.007 1.08.996.887 1.016.691 1.044.677 1.12 1.065 1.132.762.146.081.672.375.352.178-1.188 3.535.625.05.362.23 1.358.943.39.363.4 1.158.119.045.698.263.353.131 1.106.21.419.078 1.096.303.235-.052.644-.143.582-.111.479-.091.243-.07 1.076-.304.679-.17.579.03.725.163.122.063.423.22.992.154.79-.133 1.058-.473.41-.532-.752-1.127-.898-1.345-.892-1.336-.953-1.819-.274-.522-.652-1.422-.228-.497-.923-2.055-.887-.865-.265-.492-.148-.276-.216-.401.203.076.755.408 1.037.56 1.76 1.3 2.31 2.724 1.378 2.329 1.312 2.417 1.467 2.347.73 1.031 1.055 1.306 1.142 1.199 1.754 1.71.897.832 2.38 2.208.686.613 1.42 1.271.087.107-.779.262-.93.313-1.933.345-2.425-.078-.169-.037-3.161-.692-2.428-.047-.38.143-1.387.519-.236.089-.92.396-.202.087-.28.121-.09.038-2.512 1.317-.262-.505-.352-.54-1.45.712-.524.265-.881.424-.77.25-.624.023-1.034-.03-.788-.194-.627-.278-.913-.528-.426-.21-.665-.208-1.103-.169-.749-.092-.34-.13-1.313 1.02-.337.28.44.17.138.588-.756.168-.467.103-.293.106-1.186.43.168.645-.26.737-.455 2.342-.566 3.063-.534 2.947-.598 2.873-1.335.746-.952.651-.495.374-1.744.228-.959.15-.885-.186-.4-.212-.698-.349-1.423-.751-1.394-.724-.466-.293-.457-.32-.672-.477-1.29-.934-1.376-1.065-.412-.303-.848-.478-1.395-.706-1.712-.415-.608-.11-2.305-.457-1.096-.683-.228-.455-1.174-.437-.306.114-.422.233-.476.279-.54.225-1.742.638-.423.142-2.256.487-.582.058-3.555-.448-.038-.19-.287-1.353-1.38-.896-.247-.868-.52-.623-.302-.187-.995-.602-.94-1.149-.048-.493-.228-2.362-1.298-1.202.757-.837.85-.674.383-.442.785-.479 1.151-.488.234-.103.7-.392 1.233-1.475.32-1.012.096-.909.059-.595.018-.627.194-.384.31-.605.274-.338.624-.663.107-.074-.011-.507-.371-1.112-.904-1.911-.068-1.4.106-.05.787-.45-.734-.798-.348-.292-2.245-1.66-1.185-.898-2.072-1.55.061-.28-.108-.105-.563.376-.97-2.326.144-.739-.427.018-.502.061-.686.129-.437.03-1.088.146-.999.152-1.075.205-.207-.389-.106-.372-.435-1.384.144-.177.159-.196-.943-2.75-.177-.518 3.508.052 5.038.24.576.112 4.828.47 4.614.71 4.66.755 4.545.607 5.005.588z" class="map-path"/></a></g><g id="gebiet-STIMMBEZIRK_563000-0812"><a xlink:href="file:///home/delphin/Downloads/ergebnisse_stimmbezirk_563000-0812.html" id="a215"><path id="path213" fill="#000" stroke="#000" d="m267.184 167.822-.41.532-1.057.473-.792.133-.99-.154-.424-.22-.122-.063-.725-.163-.579-.029-.679.169-1.076.305-.243.069-.479.09-.582.112-.644.143-.235.052-1.096-.303-.419-.078-1.106-.21-.353-.131-.698-.263-.12-.045-.4-1.158-.39-.363-1.357-.944-.362-.229-.625-.05 1.188-3.535-.352-.178-.672-.375-.146-.081-1.131-.762-1.121-1.065-1.044-.677-1.016-.691-.996-.887-1.007-1.08-1.328-1.465-.096-.14-.256-.369 3.72-.144 2.6-.037 4.202.199 3.64.595 2.51.79.18.07.216.401.148.276.265.492.887.865.922 2.055.229.498.652 1.422.273.521.954 1.82.892 1.335.898 1.345z" class="map-path"/></a></g><g id="gebiet-STIMMBEZIRK_563000-0813"><a xlink:href="file:///home/delphin/Downloads/ergebnisse_stimmbezirk_563000-0813.html" id="a220"><path id="path218" fill="#399adf" stroke="#000" d="m268.95 180.754-1.781 1.178.436.67-.314.294-1.229.82-1.861.937-.75.083-1.138.045-.3-.014.343 1.07.345 1.07.004.269.031.805.088.391.28.885-.368 1.244-.52.523-.094.051-.39.214-.945.257-.741.214-.525.28-.296.126-1.332.589-.953.57-.535.469-.491.23-1.53.05-.755.173-.782.215-1.632.457-1.448.061-1.334-.083-.582.022-2.74.222.597-2.873.534-2.947.566-3.063.455-2.342.26-.737-.168-.645 1.187-.43.292-.105.467-.104.756-.168-.137-.588-.44-.17.337-.28 1.311-1.02.341.13.75.092 1.102.169.665.208.426.21.913.528.628.278.787.195 1.035.03.623-.024.77-.25.881-.424.525-.265 1.449-.712.352.54.263.505 2.511-1.317.09-.038.28-.121.203-.087.919-.396.236-.09 1.387-.518.52.954-.396.498z" class="map-path"/></a></g><g id="gebiet-STIMMBEZIRK_563000-0901"><a xlink:href="file:///home/delphin/Downloads/ergebnisse_stimmbezirk_563000-0901.html" id="a225"><path id="path223" fill="#000" stroke="#000" d="m216.875 120.937 1.367.178.004-1.6-.075-.336 1.155 1.042 1.293 1.073 1.19.824 1.436.953-.383.799.24 2.443-1.764-.055-2.23-.039.228 1.033-1.222-.036-1.656.22-.826.174.085.656.183 1.544-1.652.225-.514.16-.486.347-.57.43-.96 1.145-.572.54-.931.58-.375.237-.777.488-.604.362-.842.276-1.072.173-1.366.102-.65.09-.855.144-1.003.158-1.835.134-.78.045-1.37.028-.483.012-.808-.026-.784-.074-.61.123-.125-1.56.014-1.238.041-1.243-.099-1.667-.05-1.459.994.123 1.009.124 1.727.154 1.663.006.423-.064 1.168-.17 1.04-.15 3.703-.55 3.715-.595.635-.102-.164-1.133-.104-.716-.03-.433-.052-1.27.116-1.415.036-.44.04-.264.196-1.287.252-1.298.493-2.013.557.216 1.082.802-.192.922-.352 1.694 1.748.24z" class="map-path"/></a></g><g id="gebiet-STIMMBEZIRK_563000-0902"><a xlink:href="file:///home/delphin/Downloads/ergebnisse_stimmbezirk_563000-0902.html" id="a230"><path id="path228" fill="#000" stroke="#000" d="m225.152 126.713.1.994.203.712.031.11.178.779-1.5.357-1.827.526.083.257.1.621.004.024.18 1.112.12 1.598 1.146.05.9.034.298.011 1.209.05 1.407.044.234-.011.258-.035.582-.22.774-.011h.308l.426-.28.662-.16.514-.108.183-.023.137-.266.329-.157.27-.047.219.017-.076.362-.036.17-.026.124-.509.812-.533.789-.295.501.612.04.837-.053.919-.084.748-.221.086-.021.395-.097.944-.23 1.418-.154.438.007.574.009.61-.639 1.683-.167 1.563-.3.515-.099-.358-1.168-.524-.884-.264-.268.365-.247.326-.268.167.22.125.165.875 1.07 1.45 1.938.525.602 2.68 3.43 2.487 3.149.191.24.184.223.157.19 1.773 2.143 1.815 1.906 2.366 1.921.513.392 1.851 1.415.303.174.61.35 1.613 1.326.77.614.605 2.01.82 2.237 1.394 2.81.796 1.603-2.311-2.725-1.76-1.3-1.037-.56-.755-.407-.203-.077-.18-.069-2.509-.791-3.64-.595-4.202-.199-2.601.037-3.72.145-2.086.08-2.624.192-1.056.024-1.983.045-1.56-.042-4.125-.063-5.004-.589-4.545-.606-4.66-.755-4.615-.71-4.828-.47-.575-.113-5.038-.24-3.509-.052-.14-.715-.411-2.115-.49-.501-.277-.375-.2-.812-.072-.838-.207-2.486-.304-1.041-.206-.388-.362-.573-.317-.717-.605-2.314.693-.202.066-.691 1.06-.159.755.05.744-.113-.035-.257-.15-.164-2.079-.21-.049-.192.922-.456.63-.116.61-.123.783.074.808.027.484-.013 1.37-.028.78-.044 1.835-.134 1.003-.158.855-.145.65-.089 1.366-.102 1.071-.173.842-.277.605-.361.776-.489.375-.236.931-.58.572-.54.961-1.145.57-.43.485-.348.515-.16 1.652-.225-.184-1.544-.085-.656.827-.173 1.656-.22 1.222.036-.229-1.033 2.23.038 1.765.056 1.96.061z" class="map-path"/></a></g><g id="gebiet-STIMMBEZIRK_563000-0903"><a xlink:href="file:///home/delphin/Downloads/ergebnisse_stimmbezirk_563000-0903.html" id="a235"><path id="path233" fill="#000" stroke="#000" d="m205.656 110.36.526.24.6.277.743.342 1.385.623.624.353.095.054.583.33.541.354.304.198 1.157.756.607.39.687.443 1.33 1.015.974.95 1.709 1.814.65.68.075.336-.004 1.6-1.367-.178-1.39-.214-1.748-.24.353-1.694.191-.922-1.081-.802-.557-.216-.494 2.013-.252 1.298-.195 1.287-.04.264-.036.44-.116 1.415.05 1.27.032.434.103.715.165 1.134-.635.101-3.715.595-3.704.55-1.04.15-1.167.17-.424.064-1.662-.006-1.728-.154-1.009-.124-.993-.123-.836-.035-.719.032-.388-.235-2.328-1.403.051-.476.03-.952-.024-1.373-1.195-1.13-.752-.513-.792-.157-.513.07-.234-.228.181-.683-.414-.412-.46-.002-.375-.714-.48-.731-.17-.438.088-.641.14-1.291-.07-.542-.282-1.856-1.152.405-.077.027-.664.329-.439.273-.274.238-.256.211-.025-2.122-.714.085-.058-.696-.129-.647-.04-.472-.239-.181-.029-.808-.192.031.006-.947.134-1.698 1.126.396 1.65.602 1.003.3.184.055 2.763.318.063-.135.596.037 1.69.11 1.795.15.206.116-.1-.787-.163-1.488.34-.022-.003-.228-.196-.987.472-.51.362-.478.589-.902.146-.223 3.391 1.723 3.558 1.762.853.422.179.089 1.726.769z" class="map-path"/></a></g><g id="gebiet-STIMMBEZIRK_563000-0904"><a xlink:href="file:///home/delphin/Downloads/ergebnisse_stimmbezirk_563000-0904.html" id="a240"><path id="path238" fill="#000" stroke="#000" d="m223.742 78.845.291.026.41-.137.37-.167.18-.002.134.21-.046.242-.186.406-.037.212.013.221.185.24.07.049.412-.016.134.18.094.28.22.224.225-.336.25-.135.13-.001.326.277-.255.437-.057.243.243.147.363.055.423.115.347.368.356.277.586.254.234.208.144.21.023.152.044.29.049.266.213.189.241-.024.39-.086.09-.052.062-.585.18-.124.28-.094.117-.193.21-.114.243.127.143.2.004.272-.166.325-.078.192.094.21.162.089.421-.047.243.108.308.449.243.178.342.025.218-.205.128-.183.07-.031.173.118.393.79.291.374.272.037.841-.224.531-.098.201-.003.135.3.122.12.179-.164-.045-.312.118-.173.364.166.432-.046.358-.237.408-.288.176-.345.311-.014.129-.133-.035-.342.124-.108.197-.235.097-.303.069-.082.313.117.201.017.6-.19.283.077.123.2.004.261.134.21.222.118.22-.084.14-.002-.025.323.002.171.174.179.232.108.311-.055.161.028.234.188.342.025.92.38.843-.37.007-.181-.163-.19-.14.003-.249.225-.19.073-.242-.097-.064-.241-.003-.232.088-.162-.033-.221-.043-.211.357-.328.44-.167.29-.075.385.267.337.348.219-.145.228-.194.332.015.118-.153-.296-.348.06-.454.18-.18.24-.239.409-.271.515-.023.518.259.43.245.455-.095.6-.29.216-.312.39-.537.209-.16.359-.276.426.009.28-.063.247-.137.322-.152.118-.045.962 1.15.516.618-.372.513-.682.445-.717.482-.371.66-.067.436.138.743.338.885.268 1.013.052.48-.016.227-.044.646-.229.493-1.272.98-.163.248-.44.669-.493.951-.65.763-.127.099-.464.363-.465.442-.388.696-.135.746-.106 1.436.05 1.016.293 1.391.057.275.156.833-.09 1.308-.028.95-.405 1.243-.326 1.062-.371 1.26-.37.998-.532.755-.609.607-.89.69-1.35.906-1.104.838.016.547.067.573.162 1.017.288 1.134.257 1.134.212 1.13.22 1.126.11.595.04.196.103.495.123.44.09.388.264.142.019.283.121 1.208-.046.957-.087.711-.095.673-.274 1.289-.188.81-.225.914-.039.598-.07 1.121.084.746.286.718-.502.736-.085.094-.273.302-.243.183-.34-.45-1.065-1.165-1.565-1.41-1.125-.957-1.446-.902-2.384-1.488-.697-.423-.096.27-.14.393-2.74-1.688-.232.394-.108.183-.686 1.161-.826 1.397-.467-.506-.496-.428-.609-.274-.998-.45-.5-.2-1.43-.575-.085-.04-.811-.377-1.437-.953-1.19-.824-1.292-1.073-1.155-1.042-.651-.68-1.708-1.814-.975-.95-1.33-1.016-.686-.441-.607-.39-1.158-.757-.303-.198-.542-.354-.583-.33-.094-.054-.625-.353-1.385-.623-.743-.342-.6-.276-.525-.241-1.334-.611-1.726-.77-.179-.088-.853-.422-3.558-1.762-3.392-1.724.212-.325.367-.53.426-.543.714-.69-1.136-1.45-.157-.225-.484-.909 1.098-.63 1.252 1.282 1.005 1.567.375-.387.212-.202.236-.185.683-.855.753-1.426.718-1.555.254-.493.416-1.053.229-.894.279-.923.157-.504.298-1.168.072-.557.12-.928.05-.388.087-.714.073-.606.083-1.148.087-1.054.006-.982.024-1.143 1.989.317.153-.713.258-.03.048-.446.263.137.27-.115.24-.023.345.226.708.303 1.234-.099 1.237.063.503.023.798-.365.7-.17.891-.256 1.304-.568.68-.21.37-.087.498-.29.27-.053.604-.704.225-.029.437.316.192.048.268-.185.018-.142-.196-.255-.142-.183-.013-.262.3-.135.295-.357.952-.225.524.143.423.075.441-.087.538-.32.129-.133.13-.34.077-.253-.314-.207.027-.212.278-.246.2-.013.243.067.29-.064.28-.145.067-.183-.084-.25.099-.123.451-.077.252.047z" class="map-path"/></a></g><g id="gebiet-STIMMBEZIRK_563000-0905"><a xlink:href="file:///home/delphin/Downloads/ergebnisse_stimmbezirk_563000-0905.html" id="a245"><path id="path243" fill="#000" stroke="#000" d="m230.494 122.786 2.74 1.688.14-.393.096-.27.697.423 2.384 1.488 1.445.902 1.126.957 1.565 1.41 1.064 1.165.34.45-.326.267-.364.248.264.267.524.885.358 1.168-.515.099-1.563.3-1.684.167-.61.638-.573-.009-.438-.007-1.418.154-.945.23-.394.097-.087.021-.748.22-.918.086-.837.053-.612-.04.294-.502.534-.788.509-.813.026-.124.035-.17.076-.362-.218-.016-.27.046-.33.158-.136.266-.183.022-.514.11-.662.158-.426.28h-.309l-.773.011-.583.22-.257.035-.234.012-1.408-.044-1.208-.05-.3-.011-.898-.035-1.147-.05-.12-1.598-.18-1.112-.003-.023-.1-.622-.083-.256 1.827-.526 1.5-.358-.178-.779-.031-.11-.204-.711-.1-.995-.089-.338-1.96-.061-.24-2.444.383-.799.81.378.086.04 1.43.574.5.2.999.45.608.275.496.427.467.507.826-1.397.686-1.161.108-.183z" class="map-path"/></a></g><g id="gebiet-STIMMBEZIRK_563000-0911"><a xlink:href="file:///home/delphin/Downloads/ergebnisse_stimmbezirk_563000-0911.html" id="a250"><path id="path248" fill="#000" stroke="#000" d="m263.127 114.136-2.117 5.422-.708-.257-.182-.054-1.135-.336-1.422-.28-1.78-.163-.571.013-1.428.031-.1.01.09 1.377.002.043 1.793.067.166 2.251-.679.052-.682.052-.142.873-.064.4-.096.599-.315.926 1.043.908-.254.33-.424.447-.33.254-.874.462-.553.095-1.345.182-.236-1.777-1.69.066-2.264-.587-.441.024-.13-1.27-.812.02-.073.002-1.175.136-.357.005-.495-.075.274-1.288.095-.674.087-.71.046-.957-.121-1.208-.02-.284-.262-.142-.09-.388-.124-.44-.103-.495-.04-.196-.11-.595-.22-1.126-.212-1.13-.257-1.134-.288-1.133-.162-1.018-.067-.573-.016-.547 1.104-.838 1.35-.905.89-.691.61-.607.532-.755.369-.998.37-1.26.327-1.062.405-1.242.028-.95.09-1.309-.156-.833-.057-.275 2.022.564 11.452 4.527.217.166.615.47 3.005 1.624.589.304.597.307 1.11.572-2.045 3.027z" class="map-path"/></a></g><g id="gebiet-STIMMBEZIRK_563000-0912"><a xlink:href="file:///home/delphin/Downloads/ergebnisse_stimmbezirk_563000-0912.html" id="a255"><path id="path253" fill="#000" stroke="#000" d="m259.415 127.109-.154 1.831-.035.402-.309 3.662-.23 4.843.061 2.094.306 4.823.44 2.124.293 1.419.34 1.648.037.179-.61-.35-.303-.175-1.851-1.415-.513-.391-2.366-1.922-1.815-1.906-1.773-2.143-.157-.19-.184-.222-.19-.24-2.488-3.15-2.68-3.43-.526-.602-1.45-1.937-.874-1.07-.125-.166-.167-.22.242-.182.273-.302.086-.094.502-.736-.286-.718-.085-.746.071-1.121.039-.598.225-.915.188-.81.495.076.357-.005 1.175-.136.073-.002.811-.02.13 1.27.441-.025 2.265.588 1.69-.066.236 1.776 1.345-.182.553-.094.873-.463.331-.253.424-.447.253-.33-1.042-.908.315-.927.095-.597.064-.4.143-.875.682-.051.679-.052-.166-2.251-1.793-.068-.002-.042-.09-1.377.1-.01 1.428-.031.57-.013 1.781.163 1.422.28 1.135.336.182.054.707.257-1.085 3.92-.333 2.37z" class="map-path"/></a></g><g id="gebiet-STIMMBEZIRK_563000-1001"><a xlink:href="file:///home/delphin/Downloads/ergebnisse_stimmbezirk_563000-1001.html" id="a260"><path id="path258" fill="#000" stroke="#000" d="m306.289 87.354 1.48.154 1.462-.162.519-.04 1.55.65.532.375.72.759.35.603.167.445.177.422.099.492.041.539-.175.558-.767.791-1.386.741-1.367 2.06-.045.902.478.659.412.29 1.112.779 1.988 1.561 1.207 1.291 1.466 1.517-.38.366-.64.617-.872.843-2.373 2.29-1.791 1.729-.544.524-1.082 1.045-1.82 1.8-2.441 2.414-1.88 1.722-.086.086-1.203 1.204-.72.8-.566.818-.257-.164-.077-.048-.377-.171-.413-.048h-.61l-.551-.046-.788-.073-1.102-.207-.964-.178-.252.034-.44.167-.313.037-.17.1-.358.212-.216.437-.416.403-.565.256-.204.461-.531.302-.6.015-.147-.094.038-.115.174.053.276-.111.324-.443.934-1.149.679-.712.799-.914.522-.474.627-.39.568-.273.368-.225.541-.456.264-.272.205-.23.107-.296-.66.534-.833-.218-.61-.156-.09.238-.159.483-.132.218-.32.398-.181.165-.29.202-.254.057-.348.02.157-.521.36-1.078.26-1.122.138-.484.207-.73.195-.533.267-.677.457-.708.962-1.015-.522.103-.76.15-.5.465-.499.31-.598.297-.37.075-.552.033-.768-.166-.794-.153-.944-.056-.086-.005-1.34-.101-.055-.014-1.003-.249-.835-.323-.137-.054-.617-.092-.46-.088-1.835-.138-4.17.007-5.862.207-2.152-.253-.652-.415-.78-.497-1.64-.908-.117-.064-.84-.376 3.085-4.012 4.23-5.237 5.234-5.79 2.339-3.368.656-.945 1.611-3.324.58-1.74.562-2.85.385-2.16.2-3.739-.16-2.471.514-.119 1.585-.365 2.758-.401 2.603-.127.797-.057.843-.113 6.27-.313 5.952-.486.366-.03.007.512-.272.78-.834 1.133-1.188.6-2.06.044-.564 1.413.016 1.183.118.536.34.744-.414.763-.81.627-.52 1.151.048 1.183.44 1.052.793.51 1.088.158.748.597.202.945-.36 1.393.329.974.498.774z" class="map-path"/></a></g><g id="gebiet-STIMMBEZIRK_563000-1011"><a xlink:href="file:///home/delphin/Downloads/ergebnisse_stimmbezirk_563000-1011.html" id="a265"><path id="path263" fill="#000" stroke="#000" d="m271.253 109.414 2.152.253 5.862-.207 4.17-.007 1.836.138.46.088.616.092.137.054.835.323 1.003.249.056.014 1.339.1.086.006.944.056.794.153.768.166.552-.033.37-.075.598-.297.499-.31.5-.464.76-.15.522-.104-.962 1.015-.457.708-.267.677-.195.534-.207.73-.137.483-.261 1.122-.36 1.078-.157.521.348-.02.255-.057.289-.202.182-.165.32-.398.131-.218.16-.483.089-.238.61.156.833.218.66-.534-.107.297-.205.23-.264.271-.54.456-.369.225-.568.273-.627.39-.522.475-.8.913-.678.712-.934 1.149-.324.443-.276.11-.174-.052-.038.115-.884 1.163-.195.234-.259.012-.677.074-.754.152-.562.235-.922.588-.532.064-.419.103-.732.27-.16.057-.41.145-.5.072-.453-.018-.591-.057-.573-.097-.158-.251-.71-1.09-.9-1.366-.282-.016-1.22.062-.733.475.024.455.06.455-.066.439-.047.076-.144.23-.214.33-.441.318-.24.102-.08.028-.505.159-.22.2-.41.566-.696.963-.203.137-.122.154.048.25-.476.426-.31.085-.285.012-.025.17-.187.021-.07.055.04.294-.114.162-.24-.014-1.24-.117-1.098-.143-1.22-.159-.135.103-.186.325-.176.205-.39.233-.229.062.51 1.709.165.555.238 1.57.044.194.759 3.372-1.527.192-.783.187-1.773.344-1.463.345-1.588.416-1.306.351-.607.185-1.106.305-.268.074-.944.263.23-4.844.308-3.662.035-.402.154-1.83.177-1.262.332-2.37 1.086-3.92 2.117-5.421 2.053-3.955 2.045-3.027.84.375.116.065 1.64.908.78.496z" class="map-path"/></a></g><g id="gebiet-STIMMBEZIRK_563000-1012"><a xlink:href="file:///home/delphin/Downloads/ergebnisse_stimmbezirk_563000-1012.html" id="a270"><path id="path268" fill="#000" stroke="#000" d="m299.316 119.729-.788 1.399-.553 1.039-.618 1.465-.28.962-.146.51-.289 1.376-.266 2.401.043 2.05.311 1.993.475 2.137.35 1.479-.375-.22-1.874-1.017-.929-.519-.642-.314-1.779-.837-.966-.518-1.391-1.07-2.585-2.009-1.263-.957-.535-.322-.625-.258-.945-.146-1.1.003-.557-.01-.05-.886-.218-1.52 1.378.532.41.023-.053-.243-.056-.264-.278-.555-.391-.785-.064-.1-.73-1.159.573.097.59.057.453.018.5-.072.411-.145.16-.057.732-.27.419-.103.532-.064.922-.588.562-.235.754-.152.677-.074.259-.012.195-.233.884-1.164.147.094.6-.014.53-.302.205-.462.565-.256.416-.403.216-.437.358-.21.17-.102.312-.037.441-.167.252-.034.964.178 1.102.207.788.074.55.046.611-.001.413.048.377.17.077.05.257.163z" class="map-path"/></a></g><g id="gebiet-STIMMBEZIRK_563000-1013"><a xlink:href="file:///home/delphin/Downloads/ergebnisse_stimmbezirk_563000-1013.html" id="a275"><path id="path273" fill="#399adf" stroke="#000" d="m283.122 125.434.277.555.057.263.052.243-.409-.022-1.378-.532.218 1.52.05.885-1.919-.095-.483-.012-.389-.01-.832.01-.196.004-.518.082-.08 2.564-.033 1.029-.018.553-.03.92-.023.573-.023.556-.01.262-.02.292-.028.45-.215-.05-.279-.065-1.324-.231-.41-.08-.386-.076-1.908-.08-1.55.087-1.263.157-.758-3.372-.044-.194-.238-1.57-.166-.556-.509-1.708.23-.063.389-.232.176-.205.185-.325.136-.103 1.22.159 1.097.143 1.24.117.24.014.114-.162-.04-.294.071-.055.187-.02.024-.17.285-.013.311-.085.475-.427-.048-.25.123-.153.203-.137.696-.963.41-.567.22-.2.506-.158.08-.028.238-.102.442-.319.213-.329.144-.23.048-.076.065-.44-.06-.454-.024-.455.733-.475 1.22-.062.282.016.9 1.366.71 1.09.159.25.73 1.159.063.1z" class="map-path"/></a></g><g id="gebiet-STIMMBEZIRK_563000-1014"><a xlink:href="file:///home/delphin/Downloads/ergebnisse_stimmbezirk_563000-1014.html" id="a280"><path id="path278" fill="#000" stroke="#000" d="m298.684 141.21.323 1.293-.287-.097-.203-.069-1.348-.455-.811-.257-1.001-.317-2.036-.634-1.255-.409-1.05-.342-.945-.335-.262-.093-2.676-.903-1.932-.594-.391-.12-2.482-.809-1.053-.343-.915-.3-2.146-.706-.827-.195.029-.45.019-.293.01-.263.024-.555.023-.573.03-.92.017-.553.033-1.03.08-2.563.519-.083.195-.003.833-.01.388.01.483.012 1.92.095.557.01 1.1-.003.944.146.625.258.535.322 1.263.957 2.585 2.01 1.39 1.07.967.518 1.78.836.641.314.93.52 1.873 1.016.374.22.655 2.77z" class="map-path"/></a></g><g id="gebiet-STIMMBEZIRK_563000-1101"><a xlink:href="file:///home/delphin/Downloads/ergebnisse_stimmbezirk_563000-1101.html" id="a285"><path id="path283" fill="#399adf" stroke="#000" d="m283.062 147.495-.589.139-.737-.027-.401-.047-.078-.382-.247-.482-.536-1.05-.586-.864-.147-.496.067-.17.488-1.24.174-.462.256-1.184.032-.444.052-.722-.001-.256v-.09l-.003-1.298.121-.589.348-1.105 1.053.343 2.481.81.392.12 1.931.593 2.677.903.262.093-1.046 3.112-.324 1.227-.446.491-.588.515-1.12.746-1.216.786-.768.458-.835.37z" class="map-path"/></a></g><g id="gebiet-STIMMBEZIRK_563000-1102"><a xlink:href="file:///home/delphin/Downloads/ergebnisse_stimmbezirk_563000-1102.html" id="a290"><path id="path288" fill="#399adf" stroke="#000" d="m288.316 148.963.269.998.12.485.096.672.056.336.005.589-.005.673-.062.77-.02.445-.534.029-1.066.29-.98.537-.903.28-.74.186-1.077.213-.329-.066-1.796-.357-1.438-.352-.488-.12-.356-.181-1.137-.651-1.215-1.093-.17-.165.546-.636.124-.145.303-.311.27-.28.314-.341.056-.06.1-.636.262.472.501-.155.412-.134.522-.106.64-.088.285-.014.624-.107.536-.052 1.065-.178.935-.234.601-.148.673.05.432.214.326.054.613-.09.727-.231.427-.169z" class="map-path"/></a></g><g id="gebiet-STIMMBEZIRK_563000-1103"><a xlink:href="file:///home/delphin/Downloads/ergebnisse_stimmbezirk_563000-1103.html" id="a295"><path id="path293" fill="#399adf" stroke="#000" d="m299.925 146.353.404 1.7.176.748.255 1.15.209.937.539 2.197-.367.037-.4.04-.695.072-.71.048-1.395.097-.194.014-2.995.21-2.71.19-.465-.006-1.855.097-.947.048.019-.447.062-.769.005-.673-.005-.589-.055-.336-.097-.671-.12-.485-.269-.999-.477.194-.427.168-.727.231-.613.09-.326-.053-.431-.215-.674-.05-.6.149-.936.234-1.064.177-.537.053-.041-.779-.128-1.601.402.046.736.027.59-.138.666-.203.835-.37.767-.458 1.217-.786 1.12-.745.587-.516.447-.49.324-1.228 1.046-3.111.944.334 1.05.343 1.255.408 2.036.634 1 .318.812.256 1.349.456.202.069.287.097.282 1.145z" class="map-path"/></a></g><g id="gebiet-STIMMBEZIRK_563000-1104"><a xlink:href="file:///home/delphin/Downloads/ergebnisse_stimmbezirk_563000-1104.html" id="a300"><path id="path298" fill="#000" stroke="#000" d="m283.145 155.4.33.066 1.076-.213.74-.185.903-.28.98-.538 1.066-.29.535-.029.947-.047 1.855-.098.465.006 2.71-.19 2.995-.21.194-.013 1.395-.097.71-.048.266 1.801.292 1.425-.428.316-.725.517-.674.495-.595.225-.431.12-.72.05-1.012.105-1.028.039.153 2.912.21 1 .02.372.022.444-1.874.16-.225.148-.172.25-.068.324-4.313-1.39-1.27-.426-2.549-.856-1.878-.6-2.33-.743-3.737-1.243-3.892-1.289-2.008-.654.29-.318.165-.18-.14-.197-.393-.27.004-.175.225-.782 1.929.738.954-.05.68-1.737-1.033-1.222-.475-.237.996-1.004.585-.501.312.354 1.366 1.325.17.165 1.215 1.093 1.137.652.356.18.488.12 1.438.352z" class="map-path"/></a></g><g id="gebiet-STIMMBEZIRK_563000-1105"><a xlink:href="file:///home/delphin/Downloads/ergebnisse_stimmbezirk_563000-1105.html" id="a305"><path id="path303" fill="#399adf" stroke="#000" d="m317.07 169.079.894.266-1.54-.11-3.172-.237-3.36-.33-1.815-.269-.99-.214-1.089-.226-1.78-.46-2.245-.687-1.635-.544-1.478-.468-2.298-.727-2.557-.829-.948-.307.069-.323.171-.25.225-.148 1.874-.16-.023-.445-.019-.372-.21-1-.153-2.912 1.029-.039 1.01-.104.721-.05.431-.12.595-.226.674-.495.725-.516.428-.316-.292-1.425-.266-1.802.695-.071.4-.04.367-.038.308 1.458.242.948.712 2.402 1.067 2.444.854 1.398.485.616.132.167.61.776.182.195.63.676.203.182 1.139 1.015 1.45 1.143.242.144.967.573 1.495.69 1.774.67 1.239.292z" class="map-path"/></a></g><g id="gebiet-STIMMBEZIRK_563000-1106"><a xlink:href="file:///home/delphin/Downloads/ergebnisse_stimmbezirk_563000-1106.html" id="a310"><path id="path308" fill="#000" stroke="#000" d="m280.81 140.064-.052.722-.032.444-.256 1.184-.174.462-.488 1.24-.067.17-.825.24-.55.03-1.702-.52-1.974-.973-1.423-.742-.838-.5-.572-.34-.872-.425-.813-.36-.377 1.052-.34 1.057-.184.762-.119 1.985.127.314-.062.244.663.957.153.216 1.136 1.664-.046.04-.906.8.097.783.164 1.203.544.92.104 1.075.105 1.046-.224.783-.004.174.392.27.14.197-.165.18-.29.318-2.5-1.009-2.342-1.278-1.193-.742-2.499-1.634-.77-.614-1.612-1.325-.037-.179-.34-1.648-.293-1.42-.44-2.123-.306-4.823-.06-2.094.944-.262.268-.074 1.106-.305.607-.185 1.306-.352 1.588-.415 1.463-.345 1.773-.344.783-.187 1.527-.192 1.262-.158 1.55-.086 1.908.08.387.075.41.08 1.323.232.28.065.214.05.827.195 2.146.706.915.3-.347 1.106-.122.59.003 1.297v.09z" class="map-path"/></a></g><g id="gebiet-STIMMBEZIRK_563000-1107"><a xlink:href="file:///home/delphin/Downloads/ergebnisse_stimmbezirk_563000-1107.html" id="a315"><path id="path313" fill="#000" stroke="#000" d="m276.664 144.036 1.702.52.55-.03.825-.24.147.496.586.865.536 1.05.247.481.078.382.128 1.602.041.778-.624.107-.285.014-.64.088-.521.106-.413.134-.5.155-.262-.472-.101.636-.055.06-.314.34-.27.281-.304.311-.124.145-.546.636-1.366-1.325-.312-.355-.585.501-.995 1.005.474.236 1.033 1.222-.68 1.738-.954.05-1.93-.739-.104-1.046-.104-1.074-.544-.921-.164-1.203-.097-.783.906-.8.046-.04-1.136-1.664-.153-.215-.663-.958.062-.244-.127-.314.119-1.985.185-.761.34-1.058.375-1.051.814.359.872.425.572.34.838.5 1.422.742z" class="map-path"/></a></g><g id="gebiet-STIMMBEZIRK_563000-1201"><a xlink:href="file:///home/delphin/Downloads/ergebnisse_stimmbezirk_563000-1201.html" id="a320"><path id="path318" fill="#000" stroke="#000" d="m318.432 152.275.021 1.563-.12.83-.306.905-.207.665-.886 2.266-.34 1.3-.109 1.245.205 1.214.124.739.151.898.96 1.27.557 1.758.28 1.185.154.646.048.252.085.448-1.085-.114-.894-.266-1.832-.205-1.238-.292-1.774-.67-1.495-.69-.967-.573-.243-.144-1.45-1.143-1.138-1.015-.203-.182-.63-.676-.182-.195-.61-.776-.132-.167-.485-.616-.854-1.398.218-.117 1.68-.904.849-.539.561-.4.644-.412.308-.128.185-.1.326-.176.82-.321.855-.483 1.104-.697.918-.695-.187-.412-.2-1.123-.473.069-.377-1.885.538-.087.043-.311.138-.6.366-.69.1-.202.272-.555.128-.74.112-.753.538-.045.1-.015.619-.096.162-.07.868-.336.481-.059.895-.156 1.21.058-.002.763.177.455.227.795.248 1.526z" class="map-path"/></a></g><g id="gebiet-STIMMBEZIRK_563000-1211"><a xlink:href="file:///home/delphin/Downloads/ergebnisse_stimmbezirk_563000-1211.html" id="a325"><path id="path323" fill="#399adf" stroke="#000" d="m310.973 146.837 1.48.049.713-.134.327-.92.235.119 1.407.652.516.248.414.238.363.21-.895.156-.481.059-.868.335-.162.07-.618.097-.1.015-.54.045-.11.753-.129.74-.273.555-.1.202-.365.689-.138.6-.043.312-.538.087-1.355.216-1.904.303-1.78.194-.305.018-.051-.713.529-1.278-1.557-.485-1.234-.095.045-.445.143-1.405-.459-.08-.534.028-.48-.004-1.016-.139-.423-.037-.358-.038-.404-1.7-.637-2.705-.28-1.145.353.12.133.044.242.08.565.187.471.148.716.225.752.265.26.091.845.396.626.473.945.969.295.062.463.237.524.268 1.25.356.11.021 1.23.242 1.553.13z" class="map-path"/></a></g><g id="gebiet-STIMMBEZIRK_563000-1212"><a xlink:href="file:///home/delphin/Downloads/ergebnisse_stimmbezirk_563000-1212.html" id="a330"><path id="path328" fill="#399adf" stroke="#000" d="m302.126 148.268.48.004.534-.03.46.082-.144 1.405-.045.445 1.234.095 1.557.485-.53 1.278.052.713.304-.019 1.781-.193 1.904-.303 1.355-.216.377 1.884.473-.068.2 1.123.187.412-.918.695-1.104.697-.854.482-.82.322-.327.176-.185.1-.308.127-.644.413-.561.4-.848.539-1.681.903-.218.117-1.067-2.443-.712-2.403-.242-.948-.308-1.458-.54-2.196-.208-.938-.255-1.15-.177-.747.359.038.423.037z" class="map-path"/></a></g><g id="gebiet-STIMMBEZIRK_563000-1301"><a xlink:href="file:///home/delphin/Downloads/ergebnisse_stimmbezirk_563000-1301.html" id="a335"><path id="path333" fill="#000" stroke="#000" d="m311.538 140.716-.449 1.45-.14.174-.164.009-.596-.157-1.588-.455-.753-.169-.433-.033-1.778.053-.422.471-.528.64.82.697.503.318.827.524.225.183.102.083.459.479.321.335.132.124.196.183.584.263.314.088.647.183.841.3.315.378-.632-.02-1.554-.13-1.23-.241-.11-.022-1.249-.356-.524-.268-.464-.237-.294-.062-.945-.968-.626-.473-.845-.396-.26-.092-.752-.265-.716-.225-.47-.148-.566-.187-.242-.08-.133-.044-.354-.12-.323-1.294-.475-1.9-.655-2.77-.349-1.479-.475-2.137-.311-1.992-.043-2.05.274.01 1.313.047.18.025 2.266.296.918.11.378.084.957.213.562.125 1.593.798.968.552.94.498.734.775.791.634-.26.563-.294.553-1.007 1.867-.998 1.312-.982 1.43.546.258 1.735.385.598.096 1.38.35 1.069.308z" class="map-path"/></a></g><g id="gebiet-STIMMBEZIRK_563000-1302"><a xlink:href="file:///home/delphin/Downloads/ergebnisse_stimmbezirk_563000-1302.html" id="a340"><path id="path338" fill="#000" stroke="#000" d="m314.961 141.837-.173.464-1.515-1.121-.17-.045-.5-.13-.316-.088-.75-.2-1.5-.547-1.069-.308-1.38-.35-.598-.096-1.734-.384-.547-.258.982-1.43.998-1.313 1.007-1.867.294-.552.26-.564.74-1.953.562-1.329.409-1.188.343-1.581.14-.919.08-.492.779-.034 1.211.11.358.085.834.2.158.018.695.086.665.171.426.327.209.195.141.186.352.463.56.64.062 1.303.12 1.114.298 1.608.1.532.023.128.088.925-.068.932-.067 1.287-.023.416-.1.535-.254.798-.655 1.412-.428.748-.695 1.215-.285.69z" class="map-path"/></a></g><g id="gebiet-STIMMBEZIRK_563000-1303"><a xlink:href="file:///home/delphin/Downloads/ergebnisse_stimmbezirk_563000-1303.html" id="a345"><path id="path343" fill="#e3000f" stroke="#000" d="m317.829 136.135.162.122.622-.114 1.1-.207.708-.096.72.028 1.259.147 1.383.173 1.777.54 1.07.36.472.138.813.186.37.084-.503 1.827-.154.491-.504.25-.373.186-1.335.711-1.31.615-.297.158-2.105.88-1.22.617-.61.362-.19.111-.448.438-.298.393-.104.375-.102.367-.175.627-.252.18-.035.255-.374.167-.171.403-.087.447-1.21-.057-.363-.21-.414-.238-.516-.248-1.407-.652-.235-.118-.327.92-.712.133-1.481-.049-.315-.378-.84-.3-.648-.182-.314-.089-.584-.262-.196-.184-.132-.123-.321-.336-.46-.479-.1-.083-.227-.183-.826-.523-.504-.319-.819-.698.527-.638.423-.472 1.778-.053.433.034.753.168 1.588.455.596.157.164-.009.14-.174.449-1.45.75.201.315.09.5.129.17.044 1.515 1.121.173-.464.066-.16.285-.69.696-1.215.428-.748.655-1.413.253-.797.101-.536.023-.416z" class="map-path"/></a></g><g id="gebiet-STIMMBEZIRK_563000-1311"><a xlink:href="file:///home/delphin/Downloads/ergebnisse_stimmbezirk_563000-1311.html" id="a350"><path id="path348" fill="#000" stroke="#000" d="m320.659 113.493.727.086.217-.004 1.311-.007 1.347.604 1.599 2.002.26.74 1.414 4.024.224.776.962 3.051.203 1.37-.028 2.276.188 3.1-.044 1.027-.277 2.625-.478 2.332-.37-.084-.812-.186-.472-.138-1.07-.36-1.777-.54-1.383-.173-1.259-.147-.72-.028-.708.096-1.1.207-.622.115-.162-.123-.361-.273.067-1.287.068-.932-.088-.925-.024-.128-.099-.532-.299-1.608-.119-1.114-.062-1.303-.56-.64-.352-.463-.141-.186-.21-.195-.425-.327-.665-.17-.695-.087-.158-.018-.834-.2-.358-.085-1.212-.11-.778.034.009-1.38-.017-.516-.025-.759-.042-1.251-.102-2.876-.011-.303-.026-1.544-.048-1.29-.004-.162-.023-1.27.01-.425.004-.175.147-.373.248-.211.287-.273-1.462-1.728-.689-.733-.152-.163 1.083-1.045.543-.524 1.791-1.73 2.373-2.289.873-.842.64-.618.379-.365 1.035.628 1.468.973 1.458 1.634-.638 1.605-.705 1.692-.776 1.432.23 1.183 1.276 1.15z" class="map-path"/></a></g><g id="gebiet-STIMMBEZIRK_563000-1312"><a xlink:href="file:///home/delphin/Downloads/ergebnisse_stimmbezirk_563000-1312.html" id="a355"><path id="path353" fill="#e3000f" stroke="#000" d="m305.17 122.542-.743.29-.188-.458-.027-.862.137-1.227.31-.944.294-.755-1.73-1.645-.535-.497-.288-.268.086-.086 1.88-1.722 2.441-2.415 1.82-1.799.152.163.689.733 1.462 1.728-.288.273-.247.21-.147.374-.004.175-.01.425.023 1.27.004.162.048 1.29.026 1.544.01.303.103 2.876-.456.018-.774.075-1.333.13-1.226.281z" class="map-path"/></a></g><g id="gebiet-STIMMBEZIRK_563000-1313"><a xlink:href="file:///home/delphin/Downloads/ergebnisse_stimmbezirk_563000-1313.html" id="a360"><path id="path358" fill="#399adf" stroke="#000" d="m304.239 122.374.188.457.743-.289 1.49-.358 1.226-.282 1.333-.13.774-.074.456-.018.042 1.251.025.76.016.515-.009 1.38-.08.492-.14.919-.343 1.581-.409 1.188-.563 1.33-.739 1.952-.79-.634-.735-.775-.94-.498-.968-.551-1.592-.799-.563-.124-.956-.214-.379-.084-.918-.11-2.265-.296-.18-.024-1.313-.048-.275-.01.267-2.401.288-1.377.147-.509.28-.962.617-1.465.553-1.04.788-1.398.596-.731.565-.817.72-.8 1.204-1.205.288.268.534.497 1.73 1.645-.294.755-.309.945-.137 1.226z" class="map-path"/></a></g><g id="gebiet-STIMMBEZIRK_563000-1401"><a xlink:href="file:///home/delphin/Downloads/ergebnisse_stimmbezirk_563000-1401.html" id="a365"><path id="path363" fill="#000" stroke="#000" d="m382.372 130.284.094 7.235 4.147-.338.222 3.728v.027l-.001.152-.001.29-.011 2.387-.01 2.131-3.096 1.23-1.14.477-.842.487-.604.41-.816.554-4.103 2.69-2.525 1.78-.509.36-.367.296-.959.777-1.252 1.021-.212.179-.859.726-.35.253-.707.576-.528.43-2.775-3.697-1.823-2.17-1.432-2.003-2.15-3.175-.864-1.678-.38-.922 1.024-.28.328-.088 1.292-.498 2.025-1.114.317-.275.528-.333 1.439-1.125.782-.662 1.243-1.15.221-.205 1.077-1.091.252-.318.416-.265.554-.565 1.302-1.125 1.036-.782 1.467-.967.113-.074 1.338-.742.417-.274.767-.357.202-.096.214-.099.24-.108.237-.102.326-.129.64-.264.348-.144.275-.087.355-.124.248-.083.496-.155.25-.074.249-.071.502-.137.359-.02z" class="map-path"/></a></g><g id="gebiet-STIMMBEZIRK_563000-1411"><a xlink:href="file:///home/delphin/Downloads/ergebnisse_stimmbezirk_563000-1411.html" id="a370"><path id="path368" fill="#000" stroke="#000" d="m390.65 145.237.111.173.39-.027.363 7.862.201.81.097.385.018 2.976.002.336-.17.33-.07.087-.036.044.55.516-1.63 6.776.263.15-1.433 3.46-.565.008-1.856-.717-.653-.1-.35-.257-.38-.736-.59-.254-.339.658-.106.22-.367.086-.217.052-.174.002-.297.57-1.132-.658-.225-.13-.439-.278-.128.132-.44-.364-2.11-1.89-.536.53-.217.068-.492-.692 1.607-1.37-.203-.269-1.775-2.103-.69-.797-.732-.896-.965-1.18-.671-.817-.426-.517-1.103-1.34-.383-.465-.501-.654.959-.777.367-.297.509-.36 2.524-1.78 4.104-2.69.816-.554.603-.41.842-.486 1.14-.478 3.097-1.23v.001l.319-.085.387-.103 3.062-.82z" class="map-path"/></a></g><g id="gebiet-STIMMBEZIRK_563000-1412"><a xlink:href="file:///home/delphin/Downloads/ergebnisse_stimmbezirk_563000-1412.html" id="a375"><path id="path373" fill="#000" stroke="#000" d="m379.3 163.995-1.607 1.37.493.692-.218-.019-.322.331-.398-.54-.194.09-.62-.82-.601.466-.545.443-.272.221.952 1.383.517 1.322.025.063.11.262.275 1.151-.163 2.508-.102.48.217.042-.287 1.289-.589.07.009-.317-1.666-.543-.935-.07-1.617-.12-1.426-.13-.98-.586-1.151-.108-3.09-.164-.813-.035-1.137-.546-.538-.328-.414-.2-.621-.421-1.056-.913-1.542-1.61-1.328-1.386 4.542-4.05.86-.77 1.316-1.32.776-.675.495-.485 1.154-.949.642-.527.49-.404.53-.43.707-.577.35-.252.859-.726.21-.179 1.254-1.021.501.654.382.465 1.103 1.34.426.518.672.817.964 1.18.733.895.69.798 1.775 2.103z" class="map-path"/></a></g><g id="gebiet-STIMMBEZIRK_563000-1421"><a xlink:href="file:///home/delphin/Downloads/ergebnisse_stimmbezirk_563000-1421.html" id="a380"><path id="path378" fill="#000" stroke="#000" d="m349.191 147.784 1.342 1.15.08.07 1.822-1.57 1.367-.061.838.705-.231.112-.679.42-.637.42-.54.447-.68.613.236.204 1.83 1.583.257.205 2.197 1.754-1.86 1.154-.84.526.582.782.3.332.916.779.857.66 1.212.814.426.294.529.366 1.097.993 1.358 1.366 1.239 1.37-4.542 4.05-1.588-.86-1.623-.763-1.756-.669-1.52-.902-1.757-1.514-1.55-1.235-1.129-.37-2.023-.357-1.384-.315-1.36-.417-1.415-.724-.826-.63-.233-.227-1.167-1.604-.483-1.012-.067-.685.65-1.086.467-1.554.14-1.256-.52-.874-.419-.66-.15-.978-.058-.287-.068-.329 1.762.036.102.002 1.22.005.648.008 2.079.023.908-.297 1.41-.462.579-.093.924-.218.713-.108z" class="map-path"/></a></g><g id="gebiet-STIMMBEZIRK_563000-1422"><a xlink:href="file:///home/delphin/Downloads/ergebnisse_stimmbezirk_563000-1422.html" id="a385"><path id="path383" fill="#000" stroke="#000" d="m359.763 147.097 2.15 3.175 1.431 2.004 1.824 2.169 2.774 3.697-.491.404-.642.527-.463-.495-.528-.624-.958-1.098-.793-.916-.193-.223-1.04-1.07-.705-.662-.844-.77-.403-.475-.879-1.263-1.139.686-1.04-1.042-1.494-1.351-2.134 2.312-.256-.205-1.831-1.583-.235-.204.678-.613.541-.446.637-.42.679-.42.23-.113-.837-.705-1.367.061-1.822 1.57-.08-.07-1.342-1.15-1.018-.874 1.777-.27.13-.019.31-.07.663-.149 1.942-.434 2.325-.647 1.015-.261 1.122-.29 1.061-.273.38.922z" class="map-path"/></a></g><g id="gebiet-STIMMBEZIRK_563000-1423"><a xlink:href="file:///home/delphin/Downloads/ergebnisse_stimmbezirk_563000-1423.html" id="a390"><path id="path388" fill="#000" stroke="#000" d="m357.825 151.121 1.04 1.042 1.138-.686.879 1.263.403.475.844.77.706.663 1.04 1.07.192.222.793.916.958 1.098.528.624.463.495-1.154.949-.495.485-.775.674-1.316 1.32-.86.77-1.239-1.37-1.358-1.365-1.097-.993-.53-.366-.425-.294-1.212-.814-.857-.66-.916-.779-.3-.332-.582-.782.84-.526 1.86-1.154-2.197-1.754 2.134-2.312z" class="map-path"/></a></g><g id="gebiet-STIMMBEZIRK_563000-1501"><a xlink:href="file:///home/delphin/Downloads/ergebnisse_stimmbezirk_563000-1501.html" id="a395"><path id="path393" fill="#000" stroke="#000" d="m379.007 130.715.002.005 2.273-.727.09.217.025.305-.359.019-.502.137-.248.071-.25.074-.497.155-.248.082-.355.125-.275.087-.347.144-.64.264-.327.13-.236.1-.24.11-.215.098-.201.096-.768.357-.417.274-1.338.741-.113.075-1.466.967-1.037.782-1.302 1.125-.553.565-.417.265-.252.318-1.076 1.091-.222.205-1.242 1.15-.783.662-1.438 1.125-.529.333-.317.275-.586-1.145-.158-.321-.141-.301-.424-1.005-.119-.303-.107-.304-.125-.319-.277-1.018-.075-.35-.079-.39-.045-.317-.028-.23-.028-.284-.017-.245-.012-.278-.004-.26.004-.26.015-.296.027-.26.04-.26.049-.266.06-.246.072-.25.073-.259.035-.123.17-.362.2-.396.25-.402.253-.352.322-.371.3-.306.263-.236.113-.1.418-.378.398-.242-.12-.193-.289-.528-.202-.369-.101-.215-.13-.248-.062-.116.191-.102.416-.217.394-.187.351-.178.149-.162.205-.097.37-.18.185-.098.172-.118.198-.081.39-.154.362-.214.275-.239.285-.204.412-.18-.045-.105-.197-.428-.12-.239-.004-.007.023-.121-.173-.261-.302-.604-.157-.33-.154-.314-.114-.236-.035-.072 1.608-.87.298-.204-.002-.11.244-.187.701-.499.865-.619.124-.112.028-.026.63-.728.389-.37.052-.109.143-.156.213-.188.224-.23.234-.263.189-.242.16-.22.192-.196.158-.123 1.192.283 3.343.791-1.625 3.749.025.218 2.128 4.854z" class="map-path"/></a></g><g id="gebiet-STIMMBEZIRK_563000-1502"><a xlink:href="file:///home/delphin/Downloads/ergebnisse_stimmbezirk_563000-1502.html" id="a400"><path id="path398" fill="#000" stroke="#000" d="m356.335 145.06-1.015.261-.468-1.315-.52-1.459-.593-1.273.62-.46.438-.985.069-.503-.397-1.627-.853-2.217 1.365-1.263.425-.395.658-.615.873-.78 1.159-1.034.868-.974.21-.246.088-.124.558-.867 1.465-2.356.744-.922.765-.704 1.263-.799 1.469-.75.671-.367.035.071.115.236.154.315.156.33.302.603.173.261-.023.122.003.007.121.238.197.428.046.105-.413.18-.284.204-.276.24-.362.214-.39.153-.198.081-.172.118-.185.1-.37.179-.205.097-.148.162-.352.178-.393.186-.417.217-.191.102.062.117.13.248.101.215.202.369.289.527.12.193-.397.242-.42.378-.111.1-.264.236-.3.306-.322.372-.254.352-.249.401-.199.396-.17.362-.036.124-.073.259-.073.25-.06.246-.048.265-.04.26-.026.26-.016.296-.004.261.004.26.012.277.017.245.028.285.028.23.045.316.079.391.075.35.277 1.018.125.318.107.304.119.304.424 1.004.141.301.158.321.587 1.146-2.025 1.113-1.292.498-.328.09-1.025.278-1.061.274z" class="map-path"/></a></g><g id="gebiet-STIMMBEZIRK_563000-1503"><a xlink:href="file:///home/delphin/Downloads/ergebnisse_stimmbezirk_563000-1503.html" id="a405"><path id="path403" fill="#399adf" stroke="#000" d="m354.98 134.219-1.364 1.263.853 2.217.397 1.627-.069.503-.438.985-.62.46-1.78 1.681-1.582-2.393-.477-.721-1.158.817-1.9.844-.635-1.76-.1-.284 1.219-.613.096-.048.673-.236-1.077-2.545.894-.479.602-.487.343.335 1.99-1.742 1.97-1.92-.166-1.358-.013-.106-.208-.93-.151-.673-.38-1.581 1.35.291.578.17 1.153 4.591.426 1.697z" class="map-path"/></a></g><g id="gebiet-STIMMBEZIRK_563000-1504"><a xlink:href="file:///home/delphin/Downloads/ergebnisse_stimmbezirk_563000-1504.html" id="a410"><path id="path408" fill="#399adf" stroke="#000" d="m346.207 139.742.636 1.76 1.9-.844 1.157-.817.477.72 1.582 2.394 1.78-1.68.593 1.272.52 1.46.468 1.314-2.325.647-1.942.435-.664.148-.31.07-.129.02-1.777.27-.713.107.18-.214-.036-.15-1.275-1.097-.575-.368-.524-.254-3.52-2.597.024-1.984 1.94-.366.782-.147 1.651-.383z" class="map-path"/></a></g><g id="gebiet-STIMMBEZIRK_563000-1505"><a xlink:href="file:///home/delphin/Downloads/ergebnisse_stimmbezirk_563000-1505.html" id="a415"><path id="path413" fill="#399adf" stroke="#000" d="m347.018 136.016 1.077 2.546-.673.235-.096.048-1.219.613-1.651.383-.781.147-1.941.366-.024 1.984 3.52 2.597.524.254.575.368 1.275 1.097.036.15-.18.214-.924.218-.579.093-1.41.462-.908.297-2.079-.023-.649-.008-1.22-.005-.101-.002-1.761-.036.488-2.519.145-.753.006-.281.056-2.532-1.033-2.372-1.573-1.535-.632-.28.072-.448 1.266.392 1.735.638 1.69.153 1.37-.525 1.68-.592 2.018-.712z" class="map-path"/></a></g><g id="gebiet-STIMMBEZIRK_563000-1511"><a xlink:href="file:///home/delphin/Downloads/ergebnisse_stimmbezirk_563000-1511.html" id="a420"><path id="path418" fill="#399adf" stroke="#000" d="m348.39 93.375.212.576.364.606.374.482.915.922.371.373.758.764.667-.801.35-.672.79-1.611.259-.482.362-.03.065.314.08.394.208 1.171.2.96.144.309.59.559.804.43.368.134.47.17.49.079 1.123.092 2.456.198 2.074.138.052.237.046.234.055.28.052.267.073.403-1.475.492-1.195.36-.71.315-.202.088-.5.306-.318.249-.249.256-.177.206-.634.885-.548.893-.09.145-.413.674-.37.702-.83 1.218-.159.232-.345.518-1.181 1.636-.66.618-.614.418-.277.188-.896.403-.507.169-1.212.404.563 2.232-1.047 1.098.545 1.256.318 1.11.088.32-.852.433-.253-.014-1.197-.92-.628-.516-.352-.29-1.012-.24-.386.098-.872.223-.251.084-1.196.402-1.954.656-.106-.771-.305-2.227-.404-1.023.728-.55-.91-2.72-.83-2.917-.44-1.234-.706-1.99.337-.493-.677-.847-.76-.501-.5-.06-.74.11-.037-.244.132-.08v-.089l2.027-.443-.073-1.419-.107-2.043-.005-.158-.121-2.055-.115-1.954-.055-.641-.143-.457-.162-.347.385.337.821.567.216.149 1.106.524.535.052.403.01.718-.167 1.256-.362.472-.127 1.21-.325.512-.137.487-.12 1.839-.458.553-.107.253.073.234.33.064.383z" class="map-path"/></a></g><g id="gebiet-STIMMBEZIRK_563000-1512"><a xlink:href="file:///home/delphin/Downloads/ergebnisse_stimmbezirk_563000-1512.html" id="a425"><path id="path423" fill="#000" stroke="#000" d="m383.233 104.397-.725 1.078-.246.38-.18.28-.846.75-1.03.916-.36.347-.636.941-.494.73-.923.884-2.43 2.06.155.172-1.114 1.257-1.014 2.302-.743 1.34-.159.123-.19.195-.161.22-.19.242-.233.263-.225.23-.212.189-.143.156-.052.108-.388.37-.63.729-.03.025-.124.113-.864.619-.702.499-.243.187.002.11-.298.204-1.608.87-.672.367-1.468.75-1.263.799-.766.704-.743.922-1.465 2.356-.559.867-.087.124-.21.246-.869.974-1.159 1.035-.873.78-.657.614-.426-1.697-1.153-4.59-.578-.17-1.35-.292-.12-.502-.364.11-.894-.166-1.397-.59-1.664-.442-1.128-.467.348-.577.58-1.014-1.609-1.503.74-1 .486-.555-1.294-1.158.968-1.148.241-.286.972-1.015 1.198.919.252.014.853-.434-.089-.32-.317-1.109-.546-1.256 1.047-1.098-.563-2.232 1.212-.404.508-.17.896-.402.277-.188.613-.418.66-.618 1.182-1.636.345-.518.158-.232.83-1.218.37-.702.414-.674.494.132.947.245.3.052.089.056.192.051.925.242.12.032.93.265 2.296.617.35.083.116-.205.772-.862.37-.183.134.218.14.222.136.22.139.222.138.22 2.338-.26 2.215-.086.457-.064.423-.154 1.112-.426 1.768-.675.386-.152.622-.244.453-.068.458-.026 1.253.146 1.822.22.077.01 1.157.118 1.436.192 1.052.102z" class="map-path"/></a></g><g id="gebiet-STIMMBEZIRK_563000-1513"><a xlink:href="file:///home/delphin/Downloads/ergebnisse_stimmbezirk_563000-1513.html" id="a430"><path id="path428" fill="#000" stroke="#000" d="m350.522 126.517.893.167.365-.11.119.5.38 1.582.15.673.21.93.012.106.167 1.357-1.97 1.92-1.99 1.743-.344-.335-.69-.938-.345-.514-.268-.602-.454-1.016-.435-.975-.343-1.058-.418-1.291-.376-.936-.159-.397-.438-.763-.091-.177-1.512-2.482-.55-1.054-.247-.79-.216-.878-.147-.595-.188-.764-.256-.872-.202-.69-.065-1.08 1.954-.656 1.196-.402.25-.084.873-.223.386-.098 1.012.24.352.29.628.517-.972 1.015-.242.286-.968 1.148 1.295 1.158-.486.556-.74.999 1.609 1.503-.58 1.014-.349.577 1.129.467 1.663.443z" class="map-path"/></a></g><g id="gebiet-STIMMBEZIRK_563000-1514"><a xlink:href="file:///home/delphin/Downloads/ergebnisse_stimmbezirk_563000-1514.html" id="a435"><path id="path433" fill="#000" stroke="#000" d="m323.17 109.78.149.308 1.083-.527.121.218.745.967 1.045 1.28.297.118 1.607.702 1.165.357 1.095.073.87-.043 4.212-.755 2.324.565.601-1.036.949.419.866.731.403 1.023.306 2.227.106.771.065 1.08.202.69.256.872.188.764.147.595.217.878.246.79.55 1.054 1.512 2.482.091.177.438.763.16.397.375.936.418 1.29.343 1.059.436.975.453 1.016.268.602.346.514.69.938-.603.487-.894.48-1.9.631-2.018.712-1.68.592-1.37.525-1.69-.153-1.736-.638-1.266-.392-.071.449-1.193-.685-1.879-1.22-1.346-1.275-1.31-2.181-.393-.714-.083-.155-.188-3.101.028-2.277-.203-1.369-.962-3.051-.224-.776-1.414-4.024-.26-.74-1.599-2.002-1.347-.604-1.311.007-.217.004-.727-.086-1.002-.454-1.277-1.15-.23-1.185.777-1.43.705-1.694.638-1.604.38-.196.461.646.218.213.39 1.08.55.712.405.504z" class="map-path"/></a></g><g id="gebiet-STIMMBEZIRK_563000-1601"><a xlink:href="file:///home/delphin/Downloads/ergebnisse_stimmbezirk_563000-1601.html" id="a440"><path id="path438" fill="#000" stroke="#000" d="m340.247 34.026 1.47.588-.71 1.08 2.175 1.018-.535.662.812.556.346 1.479 4.341 1.383 1.37.282.021-.253 2.36.269 1.883.934.055.872.065.09.378.515.177.238 1.69 1.199.437.146-1.257.344-.493.552-.373 1.19-.17.54-.165.657-.39.114-.78.163-1.348.04-.114.05-1.66.737-.991.294-.547.163v.001l.488 7.255.217-.003.255 2.81h-.002l-.888.121-.262.086-.778.255.276 1.13.665 2.587.59.276.482.168.139 2.31.722.339 1.637.458 1.508.59 1.135.334 1.764.173 1.57.372 2.207.822-.013 2.267.007.567.218.02-.264.988-.25 1.022-.084.344 1.057.086 1.336.109-.15 1.877 1.388-.302.205.717 1.453-.303.462 2.066 2.16.123 4.694.267.224-.017-.146 1.683-.157.302-.155 1.381-.063 1.255-.024.472-.025.768-.066 1.972-.019.644-.003.433.002.793.164.448.313.366-.803.514.047.237-.032 1.214.061.652.082.863.176 2.097.016.162-.324.093-.19.06-.441.143-.507.218-.534.236-.85.51-.568.342-.777.443-.466.263-.787.446-.407.196-.327.157-.603.197-.387.125-1.5.343-.074-.403-.052-.266-.055-.28-.046-.235-.052-.237-2.074-.138-2.456-.198-1.123-.092-.49-.08-.47-.17-.368-.133-.804-.43-.59-.56-.143-.308-.201-.96-.209-1.17-.079-.395-.064-.314-.363.03-.259.482-.79 1.611-.35.672-.667.8-.758-.763-.37-.373-.915-.922-.375-.482-.363-.606-.214-.576-.183-.727-.065-.384-.233-.33-.253-.073-.553.107-1.839.457-.487.121-1.397-5.31-1.048-4.074-2.042-8.268-.818-3.004-.925-5.605-.432-3.43-.372-5.797-.071-1.105.192-10.806.246-8.95.815-.987.014-.36.642-.729.197.063.347.049z" class="map-path"/></a></g><g id="gebiet-STIMMBEZIRK_563000-1602"><a xlink:href="file:///home/delphin/Downloads/ergebnisse_stimmbezirk_563000-1602.html" id="a445"><path id="path443" fill="#000" stroke="#000" d="m395.207 78.667-.668 3.868-2.57-.338-2.414-.077-.035 5.522-.001.147-2.208.215-.376.037-.049 4.667.934-.122.044 3.423-.651.096.003 3.597.02 3.204.002.24-1.194.125-.825.054-.67.27-.562.291-.754.511-.552-.07-1.052-.102-1.435-.192-1.158-.12-.076-.008-1.823-.22-1.253-.146-.458.025-.453.068-.622.245-.385.151-1.768.675-1.112.426-.423.155-.458.063-2.215.087-2.338.26-.138-.22-.138-.223-.137-.219-.14-.223-.134-.218-.37.183-.771.863-.117.205-.35-.084-2.296-.616-.93-.266-.12-.031-.924-.242-.193-.051-.088-.056-.301-.053-.946-.245-.494-.132.089-.144.548-.893.634-.886.177-.205.249-.257.317-.249.5-.305.203-.089.71-.314 1.195-.361 1.475-.492 1.501-.342.387-.126.603-.196.326-.158.408-.196.787-.445.466-.264.777-.442.567-.343.851-.51.533-.236.508-.218.441-.142.19-.06.324-.094-.016-.162-.177-2.097-.081-.863-.062-.652.033-1.213-.047-.238.803-.513-.313-.366-.164-.448-.002-.794.003-.432.018-.645.067-1.972.025-.768.024-.472.063-1.254.155-1.382.156-.302 4.435.315.291-3.832.1-.677 3.375.105.084.002 1.175.081.536.037.912.062.835.057-.13 1.124-.005.035.185.006.479.015 4.752.149.563-3.54 1.588.023-.199 1.464z" class="map-path"/></a></g><g id="gebiet-STIMMBEZIRK_563000-1701"><a xlink:href="file:///home/delphin/Downloads/ergebnisse_stimmbezirk_563000-1701.html" id="a450"><path id="path448" fill="#000" stroke="#000" d="m312.912 2.054.27.425.168-.122.215.085.248.167.346.002.062-.039.353.027.113-.052.163-.037.13-.122.213-.09.277.027.1-.027.12-.014.1-.02.208-.028.206-.085.24.01.227-.125.225.08.139.03.312.273.208.06.226-.028.203.105.175-.101.68.329.506.363.589 1.108.117.04 1.138.4.773.538 1.605.728.367.16.97.342-.262 1.667 2.992.213.002.176.067.111 1 .794.547-.139.283.095.192.171.236.463.231.2.183-.021.347-.045.139.123.447.191.3.318.728.575.681.47.614.342.437.168.728.754.409-.041.398.161 1.48-.295 2.074-.157.452.54.64.875.14.61.303 1.523.136 2.07-.076.809.196.084-.203 1.072-.231.614-.896 1.32-.084.22-.271.898-.05 1.114-.15 3.536-.173.002.027 3.993v.023l.02 2.79v-.001l-.014.361-.814.988-.246 8.95-.192 10.804.07 1.106.373 5.797-.42-.204-.326-.144-.317-.14-1.061-.39-.669-.102-.459-.015-.43.076-.883.388-1.474 1.023-.8.436-.228.127-.13.073-1.036.501-.253.083-.148.048-.987-.015-.428.146-.22.184-.092.405-.115.768-.26.324-.386.014.541-3.296.459-2.8.288-1.753.143-.882.12-.74.613-3.774.153-.794.564-2.919.366-1.184-.695-.179-.31.012-4.99.193-6.353.79-2.232.284-2.962.376-1.113-.174-.333-1.204-.535-1.548-.945.019-.477.01-.756-1.07-2.291-1.4-1.834.615-2.588-1.537-1.52-.326-.509-.11-1.16-1.543-.133-2.727.353-.951.504.1 1.336.324 1.673.984 1.068.629.843.357.901-1.804.7-1.398-.199-.101-1.538-.8-.169-.084-.482-.239 1.996-1.829-.226-3.985.008-.155.128-2.532.66-2.079.02-.134.623-3.835.147-2.209-.209-4.874-.724-.134.353-.717.388-1.475.095-.811.64-1.827-.024-.606.348-1.104 1.485-3.02-.005-.348.164-.124.255-1.291.86-1.224-.033-.167.952-1.205.088-.112.607.858.065.092.11.156.147.232.242.192.11.257z" class="map-path"/></a></g><g id="gebiet-STIMMBEZIRK_563000-1711"><a xlink:href="file:///home/delphin/Downloads/ergebnisse_stimmbezirk_563000-1711.html" id="a455"><path id="path453" fill="#000" stroke="#000" d="m338.114 62.855.432 3.43.925 5.605.817 3.004 2.043 8.268 1.048 4.074 1.397 5.31-.513.137-1.209.325-.472.127-1.257.362-.717.168-.404-.01-.534-.053-1.106-.524-.216-.15-.822-.566-.385-.337.163.347.143.457.054.641.116 1.954.12 2.055.006.158.106 2.043.074 1.419-2.028.444v.088l-.131.08.036.244.741-.11.5.06.76.501.676.847-.337.493.707 1.99.439 1.234.83 2.917.911 2.72-.728.55-.866-.731-.949-.42-.6 1.037-2.325-.565-4.212.755-.87.043-1.095-.073-1.165-.357-1.607-.702-.297-.117-1.045-1.28-.745-.968-.121-.218-1.084.527-.147-.308-.497-.845-.404-.504-.55-.712-.39-1.08-.219-.213-.461-.646-.38.196-1.458-1.634-1.469-.973-1.035-.629-1.465-1.517-1.207-1.29-1.988-1.562-1.112-.78-.413-.29-.478-.658.045-.901 1.368-2.06 1.385-.742.767-.79.629.114.693-.193.155.007.076.182.337-.105.431-.09.628-.132.831-.097.474-.135.092-.042.681-.308 1.055-.492.677 1.205 1.314 2.584.486.955.251-.645.093-.276.179-.533.258-.942.3-1.09.561-3.48.862-5.334.44-2.792.181-1.169.093-.596.206-1.322.03-.196 1.027-6.72.742-4.067.386-.014.26-.324.115-.768.092-.405.22-.184.428-.146.987.015.148-.048.253-.083 1.036-.501.13-.073.228-.127.8-.436 1.473-1.023.884-.388.43-.076.46.015.667.103 1.062.39.316.14.327.143z" class="map-path"/></a></g><g id="gebiet-STIMMBEZIRK_563000-1712"><a xlink:href="file:///home/delphin/Downloads/ergebnisse_stimmbezirk_563000-1712.html" id="a460"><path id="path458" fill="#000" stroke="#000" d="m324.273 83.303-.862 5.334-.56 3.48-.3 1.09-.26.942-.178.533-.092.276-.252.645-.486-.955-1.313-2.585-.678-1.204-1.055.492-.68.308-.093.042-.474.134-.831.098-.628.132-.43.09-.338.105-.075-.182-.156-.007-.693.193-.628-.115.175-.558-.042-.539-.098-.492-.177-.422-.166-.445-.351-.603-.72-.759.357-.14.213-.084-.228-.43-.181-.629-.13-.406-.09-.352-.08-.628 2.161-.378.611-.164.91-.343.637-.348.174.34.05.087.217.43.916-.426.004-.001.21-.098.594-.323-.324-.745.25-.348.177-.138-.388-1.014-.16-.852-.3-1.15-.176-.532 1.092-.05 1.299.097 1.117.085.888.142.006.001.531.085 1.78.33.745.161z" class="map-path"/></a></g><g id="gebiet-STIMMBEZIRK_563000-1713"><a xlink:href="file:///home/delphin/Downloads/ergebnisse_stimmbezirk_563000-1713.html" id="a465"><path id="path463" fill="#000" stroke="#000" d="m327.533 63.145-.54 3.296-.742 4.067-1.028 6.72-.03.196-.206 1.322-.093.596-.181 1.169-.745-.162-1.78-.33-.531-.085h-.006l-.888-.143-1.117-.085.174-.48-.305-.14-.568-.321-.452-.424-.332-.291-.387-.61.024.003.726.087 1.594.206.015-.726.044-1.107.05-1.113-4.762-.428.075-.677.148-.68.11-.502.412-1.848.199-1.046.249-1.34.048-.329.063-.836-.22-.663-.257-.568.14-.08.396-.313.342.107.442-.038 1.081-.331 1.042-.162.883-.129 1.676-.033.852-.128.142-2.505.194-.067 1-.634 1.851-1.03.702-.523.954.337z" class="map-path"/></a></g><g id="gebiet-STIMMBEZIRK_563000-1714"><a xlink:href="file:///home/delphin/Downloads/ergebnisse_stimmbezirk_563000-1714.html" id="a470"><path id="path468" fill="#000" stroke="#000" d="m316.66 68.268-.249 1.341-.199 1.046-.411 1.848-.11.501-.149.68-.075.678 4.763.428-.05 1.113-.044 1.107-.016.726-1.594-.206-.726-.087-.024-.003.387.61.332.29.452.425.568.322.305.139-.174.48-1.298-.097-1.092.05.176.532.3 1.15.16.852.387 1.014-.177.138-.25.348.324.745-.593.323-.21.098-.005.001-.916.427-.216-.431-.05-.087-.175-.34-.636.348-.91.344-.611.163-2.162.378.08.628.091.352.13.406.18.63.228.43-.213.083-.356.14-.532-.375-1.55-.65-.52.04-1.46.162-1.482-.154-1.049-.775-.498-.774-.328-.974.358-1.393-.201-.944-.748-.598-1.088-.158-.794-.51-.439-1.052-.048-1.183.52-1.151.81-.627.414-.763-.34-.744-.118-.536-.016-1.183.563-1.412 2.061-.044 1.188-.6.834-1.133.272-.78-.007-.512.35.051.129.019.536.043.412.01 1.115-.056.336-.182.181-.576 1.748-.778.796-.355.162-.106.22-.144 1.312-.771 1.364-.79.256.568.22.663-.063.836z" class="map-path"/></a></g><g id="gebiet-STIMMBEZIRK_563000-1715"><a xlink:href="file:///home/delphin/Downloads/ergebnisse_stimmbezirk_563000-1715.html" id="a475"><path id="path473" fill="#000" stroke="#000" d="m311.584 49.601 1.113.174 2.962-.376 2.232-.283 6.352-.791 4.99-.193.311-.012.695.179-.366 1.184-.564 2.92-.153.793-.613 3.774-.12.74-.143.882-.288 1.752-.954-.337-.702.524-1.85 1.029-1.001.634-.194.067-.143 2.505-.852.128-1.675.033-.884.13-1.041.16-1.082.333-.442.037-.341-.107-.397.312-.14.081-1.363.79-1.312.771-.22.144-.161.106-.797.355-1.747.778-.182.576-.336.182-1.115.055-.412-.009-.536-.043-.128-.02-.35-.05-.442-2.217.229-1.63.395-1.255-.024-1.719-1.462-1.63-1.214-1.874-.967-2.233-.07-1.798-1.574-3.119.58-1.04.632-.524 3.756-.858 2.002.688.807.182.376-.343-.15-1.26-1.215-2 .477-.01.945-.02.535 1.549z" class="map-path"/></a></g><g id="gebiet-STIMMBEZIRK_563000-1801"><a xlink:href="file:///home/delphin/Downloads/ergebnisse_stimmbezirk_563000-1801.html" id="a480"><path id="path478" fill="#000" stroke="#000" d="m301.825 43.486 2.588 1.537 1.834-.614 2.291 1.4.756 1.069 1.216 2 .149 1.26-.376.343-.807-.182-2.002-.688-3.755.858-.633.525-.58 1.04 1.573 3.118.07 1.798.968 2.233 1.214 1.874 1.462 1.63.024 1.719-.395 1.254-.23 1.63.442 2.218-.366.03-5.952.485-6.27.313-.843.113-.797.057-2.603.127-2.757.401-1.586.365-.514.119-.034-.994-.036-1.004-.154-1.909-.012-.742-.52-3.314-.21-1.333-.036-.228-.71-5.271-.083-.62-.29-5.104.635-.032 1.651-.082 1.302-.21.857-.091.93-.139.764-.116.398.036.545-.002.29.306.412.127.7.043.527-.156.224-.066.873-.202-.278-1.633.278.007 1.336.032.512-.282.194-.107 1.232-.76.202-.105 1.096-.517.764-.317.193-.17.36-.73.665-1.222-.217-1.451z" class="map-path"/></a></g><g id="gebiet-STIMMBEZIRK_563000-1802"><a xlink:href="file:///home/delphin/Downloads/ergebnisse_stimmbezirk_563000-1802.html" id="a485"><path id="path483" fill="#000" stroke="#000" d="m261.025 14.937 1.768.879.129-.277 1.83.854 1.49.585 5.24 2.103 1.221.47 1.395.547.205.123.292.106.124-.096.066-.324.122-.834.848.122.275.059 3.817.351 1.624.088.682-.218 1.696-.027 1.369.514 1.28.48.09-1.865 1.827.076 5.423.02 1.415.095-.031.485 1.595.028 1.344.039.52-.94 1.202-.017 1.03.07h.64l.975.22.354-1.58.352-1.246.321-.784 1.121.398.412-1.484.828.074.724.134.209 4.874-.147 2.21-.622 3.834-.022.134-.66 2.08-.127 2.531-.008.155.226 3.985-1.996 1.83.482.238.169.084 1.538.8.198.1-.699 1.399-.902 1.804-.842-.357-1.068-.629-1.673-.984-1.336-.325-.505-.1-.353.952.134 2.727-.437.029-.112.022-1.432.283-2.81.004-.503.001.059-1.578.378-.753.807-.8.256-.253.168-.167.124-.092.63-.47 1.148-1.382.334-.492.115-.083-.123-.153-.514-.017-.505.098-.237.046-.912.177-.06.012-.662.123-2.447.627-.813-.064-.776-.062-.298-.023-1.349-.584-.196-.1-.57-.285-.26-.12-.956-.438-1.03 2.995-.575 2.002-.732 2.55-.157 1.267-.228 1.852-.06 3.111-1.298-.01-2.157-.015-2.74.378-2.522.64-5.532.357-2.859.845-.32.022-6.398.197-4.448.106-.11.324-.59-.333-1.492-.5-1.968-1.308-1.216-.198-3.083.044-2.527.048.013-.09-6.633.154.029-1.246.123-2.498.085-2.417.519-.011 3.217-.085 5.32-.11.025-.103.134-2.475.06-1.778.128-1.896.073-1.645-.422.01-2.526.06-2.395.078h-3.785l.145-2.547 2.616-.021.1-.996-.022-1.02.463-.774.412-.768.013-.189.04-.546.03-.394.49-.164.452-.187.286-.318.19-.357.3-.596.108-.207 1.138-.104-.103-1.809-.148-1.872-.256-3.195.243-.003 1.375-.247.076-.222-.117-1.314-.045-1.532.106-.013 2.958-.573 1.29-.238 1.715-.366 1.267-.136v-.087l-.067-.784-.126-.418 1.594-.275 2.447-.396.599.459.941.663z" class="map-path"/></a></g><g id="gebiet-STIMMBEZIRK_563000-1803"><a xlink:href="file:///home/delphin/Downloads/ergebnisse_stimmbezirk_563000-1803.html" id="a490"><path id="path488" fill="#000" stroke="#000" d="m291.088 36.625.813.064 2.447-.627.663-.123.059-.012.912-.177.237-.046.505-.098.514.017.123.153-.115.083-.334.492-1.148 1.381-.63.471-.124.092-.168.167-.256.253-.807.8-.378.753-.06 1.578h.505l2.809-.005 1.432-.283.112-.022.437-.029 1.16 1.542.51.11.216 1.452-.664 1.222-.36.73-.193.17-.765.317-1.095.517-.203.105-1.23.76-.195.107-.512.282-1.336-.032-.278-.007.278 1.633-.874.202-.223.066-.527.156-.7-.043-.412-.127-.29-.306-.545.002-.398-.036-.765.116-.93.139-.857.091-1.301.21-1.651.082-.636.032.04-2.209.06-3.111.23-1.852.156-1.267.732-2.55.575-2.002 1.03-2.995.956.439.26.119.57.285.196.1 1.35.584.297.023z" class="map-path"/></a></g><g id="gebiet-STIMMBEZIRK_563000-8190"><a xlink:href="file:///home/delphin/Downloads/ergebnisse_stimmbezirk_563000-8190.html" id="a495"><path id="path493" fill="#000" stroke="#000" d="m283.86 50.999.291 5.104.083.62.71 5.271.036.228.209 1.333.52 3.314.013.742.154 1.909.036 1.004.033.994.162 2.471-.201 3.738-.385 2.161-.563 2.85-.579 1.74-1.61 3.324-.657.945-2.34 3.368-5.233 5.79-4.23 5.237-3.085 4.012-1.11-.571-.596-.308-.588-.303-3.006-1.625-.615-.47-.216-.165-11.453-4.527-2.022-.564-.292-1.39-.05-1.017.106-1.436.134-.746.389-.695.464-.443.464-.363.127-.1.65-.762.494-.951.44-.669.163-.247 1.271-.98.229-.494.044-.646.016-.227-.052-.48-.268-1.013-.338-.885-.137-.743.066-.437.371-.659.718-.482.681-.445.373-.513-.517-.617-.962-1.151-.118.045-.321.152-.249.137-.278.063-.427-.009-.359.275-.209.161-.39.537-.216.313-.6.289-.454.095-.43-.245-.52-.258-.514.022-.408.271-.24.239-.147-.153-.302-.622-.035-.136-.205-.79.037-.076-.2-1.4.227-.042.036-1.45-.234-1.22.004-.276-.176-.853-.462-1.406-.501-1.86-.154-.903-.171-1.003-.057-.471-.098-1.85.07-1.32.126-1.132.324-1.54-2.05-1.512.258-.375.176-.374.005-.128-.15-.166-.287-.772.321-.619.458-.89.107-.397v-.585l.214-1.029.222-1.389.2-1.378.073-.365.187-1.264.218-1.321.212-1.506-.074-.157 2.527-.048 3.084-.044 1.215.198 1.968 1.308 1.492.5.59.333.11-.324 4.448-.106 6.398-.197.32-.022 2.86-.845 5.53-.357 2.523-.64 2.74-.378 2.157.016 1.298.01z" class="map-path"/></a></g></g></g></svg>